<?xml version="1.0" encoding="UTF-8"?>
<svg version="1.1" xmlns="http://www.w3.org/2000/svg" width="254" height="245">
<path d="M0 0 C0.82406188 -0.00397441 1.64812376 -0.00794881 2.49715722 -0.01204365 C5.26244988 -0.02167913 8.02723255 -0.00984094 10.79251099 0.00190735 C12.77349031 -0.00052024 14.75446841 -0.00423924 16.73544312 -0.00915527 C22.11980014 -0.0185736 27.50397567 -0.0091302 32.88831854 0.00417686 C38.52029293 0.015482 44.15225825 0.01138449 49.78424072 0.00942993 C59.24503549 0.00854652 68.70575867 0.01963611 78.16653442 0.03804016 C89.104653 0.05919627 100.04266658 0.06272052 110.98080146 0.0564782 C121.499342 0.05078259 132.01784556 0.05643334 142.53638077 0.06765175 C147.01391407 0.07229636 151.49142475 0.07317216 155.96895981 0.0710659 C161.2433807 0.06918172 166.51769482 0.07729704 171.79209137 0.0931263 C173.7278639 0.09736779 175.66364728 0.09822061 177.59942245 0.0954361 C180.24217994 0.09221149 182.88461899 0.10130333 185.52734375 0.11352539 C186.29310978 0.10974607 187.05887581 0.10596674 187.84784687 0.10207289 C192.22442405 0.1378661 195.86411794 0.6165005 199.89065552 2.3742218 C204.45657976 11.50607029 201.95228168 27.8230982 201.92507935 37.81513977 C201.92325307 39.10739408 201.92142679 40.3996484 201.91954517 41.73106194 C201.91427291 45.22653209 201.90583615 48.72198714 201.89637804 52.21744823 C201.89067898 54.36538034 201.88565568 56.51331303 201.88082504 58.66124725 C201.8360722 78.19408487 201.75302571 97.72674925 201.65494061 117.25938606 C201.60966058 126.33866913 201.57022868 135.41790817 201.54421997 144.49726868 C201.52127493 152.50420963 201.48796709 160.51102693 201.44195396 168.51786983 C201.41807501 172.73289549 201.39930848 176.94779967 201.39304161 181.16289139 C201.38701436 185.10152896 201.36710157 189.03984873 201.33638 192.97836876 C201.32757885 194.42154297 201.32388149 195.86475863 201.32564735 197.3079586 C201.32729546 199.27556821 201.3088635 201.24316424 201.28938293 203.2106781 C201.28477397 204.31104967 201.280165 205.41142124 201.27541637 206.54513741 C200.82211588 209.87818265 200.49316139 211.2126084 197.89065552 213.3742218 C195.05781037 213.77482339 192.60971734 213.9143385 189.7742157 213.88215637 C188.93734645 213.88839633 188.10047721 213.8946363 187.23824829 213.90106535 C184.42361423 213.91706746 181.60983757 213.90436307 178.79519653 213.89179993 C176.78156019 213.89721788 174.76792781 213.9043387 172.75430298 213.91304016 C167.27701564 213.93131638 161.80002879 213.9241879 156.32273602 213.91152382 C150.59772238 213.90141702 144.87273496 213.91078316 139.14772034 213.91706848 C129.5313046 213.92435224 119.91501161 213.91473866 110.2986145 213.89570618 C99.17352218 213.87394229 88.04872312 213.88098247 76.92363793 213.9030118 C67.38131781 213.92115238 57.83908609 213.92373048 48.2967543 213.91325712 C42.59346867 213.90701403 36.89032096 213.90620887 31.18704414 213.91940308 C25.82472353 213.93094117 20.46278163 213.92297302 15.10050201 213.89982605 C13.13002845 213.89452779 11.15952313 213.89607173 9.18906212 213.90487671 C6.50363455 213.91577189 3.81942825 213.90214193 1.13407898 213.88215637 C0.3501323 213.89107926 -0.43381437 213.90000215 -1.24151701 213.90919542 C-4.53786068 213.86145363 -6.75975786 213.58819727 -9.59407425 211.85336494 C-11.72818412 208.36173438 -11.65314874 205.16998311 -11.59709167 201.19999695 C-11.60327657 199.9535454 -11.60327657 199.9535454 -11.60958642 198.68191302 C-11.61852729 195.89330582 -11.59884397 193.10563536 -11.57931519 190.3170929 C-11.57982387 188.3197722 -11.58207882 186.32245129 -11.58595276 184.32513428 C-11.59137983 178.89759015 -11.57194058 173.47038635 -11.5478518 168.04290342 C-11.52658996 162.37036399 -11.52715203 156.69782625 -11.52516174 151.0252533 C-11.51871076 141.50056584 -11.49744901 131.97600665 -11.46603394 122.45137024 C-11.4257208 110.21256369 -11.40834409 97.9738407 -11.39872456 85.73497581 C-11.39043263 75.22782693 -11.37319253 64.72069588 -11.35368705 54.21356249 C-11.34761368 50.82844013 -11.34247444 47.4433171 -11.33733559 44.05819321 C-11.32857083 38.74769186 -11.31427983 33.4372322 -11.29562569 28.12675667 C-11.28948942 26.17317855 -11.28504694 24.21959431 -11.28238297 22.26600838 C-11.27841834 19.60879199 -11.26831678 16.95167081 -11.2565155 14.29447937 C-11.25669987 13.51317103 -11.25688423 12.73186269 -11.25707418 11.92687833 C-11.22358154 6.60269592 -11.22358154 6.60269592 -10.10934448 4.3742218 C-10.76934448 4.0442218 -11.42934448 3.7142218 -12.10934448 3.3742218 C-8.48062629 -0.21426455 -4.81849602 -0.04613308 0 0 Z " fill="#6365B6" transform="translate(28.109344482421875,17.625778198242188)"/>
<path d="M0 0 C1.41975632 -0.00503792 1.41975632 -0.00503792 2.86819458 -0.01017761 C6.0101247 -0.01970814 9.15200162 -0.02163197 12.29394531 -0.02270508 C14.47389752 -0.02591689 16.65384952 -0.02928091 18.83380127 -0.03279114 C23.41036478 -0.03878815 27.9869094 -0.04063052 32.56347656 -0.04003906 C38.42572324 -0.03993757 44.28784846 -0.05357435 50.15006638 -0.07081127 C54.65566564 -0.08193642 59.16123563 -0.08395809 63.66684723 -0.08342934 C65.82777575 -0.08460927 67.98870504 -0.08903177 70.14962006 -0.0967617 C73.17535358 -0.10656906 76.20082466 -0.10368018 79.2265625 -0.09765625 C80.56405045 -0.10608551 80.56405045 -0.10608551 81.92855835 -0.11468506 C86.60751629 -0.0910379 90.5253533 0.18398815 94.87207031 2.14526367 C106.72451507 25.85015319 96.33244764 86.09054847 95.87207031 110.14526367 C60.56207031 110.14526367 25.25207031 110.14526367 -11.12792969 110.14526367 C-11.12792969 74.17526367 -11.12792969 38.20526367 -11.12792969 1.14526367 C-7.70200542 -0.56769846 -3.77002327 -0.00189887 0 0 Z " fill="#FBC214" transform="translate(133.1279296875,17.854736328125)"/>
<path d="M0 0 C33.99 0 67.98 0 103 0 C103 33.33 103 66.66 103 101 C86.561875 101.04125 70.12375 101.0825 53.1875 101.125 C47.99410889 101.14320801 42.80071777 101.16141602 37.44995117 101.18017578 C31.11584473 101.18920898 31.11584473 101.18920898 28.15205383 101.19088745 C26.07884361 101.19396178 24.005637 101.20100239 21.93244934 101.21115112 C18.79499075 101.22574402 15.657751 101.22781356 12.52026367 101.22705078 C11.59422175 101.234247 10.66817984 101.24144321 9.71407604 101.2488575 C8.87029054 101.2461025 8.02650503 101.24334751 7.15715027 101.24050903 C6.42248126 101.24235262 5.68781225 101.24419621 4.93088055 101.24609566 C3 101 3 101 0 99 C-0.36914349 97.20778465 -0.36914349 97.20778465 -0.36076355 95.00106812 C-0.36489604 94.16705664 -0.36902853 93.33304516 -0.37328625 92.4737606 C-0.36249192 91.55348894 -0.3516976 90.63321728 -0.34057617 89.68505859 C-0.34093778 88.70351114 -0.34129938 87.72196369 -0.34167194 86.71067238 C-0.33942689 83.52305561 -0.31655411 80.33596052 -0.29296875 77.1484375 C-0.28855974 75.18465427 -0.28549807 73.22086753 -0.28381348 71.25708008 C-0.26806351 63.96299974 -0.2261801 56.66899479 -0.1875 49.375 C-0.125625 33.08125 -0.06375 16.7875 0 0 Z " fill="#F74547" transform="translate(18,130)"/>
<path d="M0 0 C34.32 0 68.64 0 104 0 C104.0309375 24.4715625 104.0309375 24.4715625 104.0625 49.4375 C104.071604 54.59689209 104.08070801 59.75628418 104.09008789 65.07202148 C104.09460449 71.35168457 104.09460449 71.35168457 104.09544373 74.28749084 C104.0969836 76.34661576 104.10050939 78.40573975 104.10557556 80.46485901 C104.1128505 83.57611671 104.1139075 86.68731911 104.11352539 89.79858398 C104.1171235 90.72245376 104.12072161 91.64632353 104.12442875 92.59818935 C104.11402634 98.88597366 104.11402634 98.88597366 103 100 C101.0686463 100.09944147 99.13361855 100.12799608 97.19970703 100.12939453 C95.95134064 100.13254669 94.70297424 100.13569885 93.41677856 100.13894653 C92.0304562 100.13715017 90.64413415 100.13509764 89.2578125 100.1328125 C87.8185118 100.13348783 86.37921121 100.13445976 84.93991089 100.13571167 C81.89140764 100.13719387 78.84293347 100.13502808 75.79443359 100.13037109 C72.00329135 100.1248458 68.21222261 100.12783481 64.42108345 100.13394356 C61.42409792 100.1376869 58.42712764 100.13634769 55.43014145 100.13381577 C53.38922832 100.13287319 51.34831445 100.13577749 49.30740356 100.13894653 C32.85428022 100.10068658 16.46373102 99.47039231 0 99 C0 66.33 0 33.66 0 0 Z " fill="#1687E4" transform="translate(124,130)"/>
<path d="M0 0 C0.33 0 0.66 0 1 0 C1.02312132 12.62995485 1.04091401 25.2599047 1.05181217 37.88987637 C1.05704146 43.75382164 1.06413994 49.61775249 1.07543945 55.48168945 C1.0862667 61.13561712 1.09227649 66.78953087 1.09487724 72.44346809 C1.09673179 74.6057361 1.10035295 76.76800331 1.10573006 78.93026543 C1.11293833 81.94758657 1.11399103 84.96484943 1.11352539 87.98217773 C1.11712067 88.8856041 1.12071594 89.78903046 1.12442017 90.71983337 C1.11405216 96.88594784 1.11405216 96.88594784 0 98 C-1.9313537 98.09944147 -3.86638145 98.12799608 -5.80029297 98.12939453 C-7.04972687 98.13250641 -8.29916077 98.13561829 -9.5864563 98.13882446 C-10.97170031 98.13701953 -12.35694406 98.13500961 -13.7421875 98.1328125 C-15.17178371 98.13382627 -16.60137972 98.13516462 -18.03097534 98.1368103 C-21.85663869 98.13951254 -25.68226163 98.13504957 -29.50791931 98.12857056 C-31.8637199 98.12501702 -34.21951445 98.12338617 -36.57531738 98.12231445 C-58.72867448 98.10975117 -80.86352485 97.95232433 -103 97 C-103.10162669 81.03366496 -103.11624331 65.08373513 -102.5625 49.125 C-102.52326416 47.93229492 -102.48402832 46.73958984 -102.44360352 45.51074219 C-102.40162842 44.41665039 -102.35965332 43.32255859 -102.31640625 42.1953125 C-102.27974854 41.23641113 -102.24309082 40.27750977 -102.20532227 39.28955078 C-102 37 -102 37 -101 35 C-100.34 35 -99.68 35 -99 35 C-98.87625 34.236875 -98.7525 33.47375 -98.625 32.6875 C-98 30 -98 30 -96 27 C-95.67 33.27 -95.34 39.54 -95 46 C-93.68 46.66 -92.36 47.32 -91 48 C-91.15339844 49.24652344 -91.30679688 50.49304688 -91.46484375 51.77734375 C-92.08552414 57.36346727 -92.33586621 62.94866968 -92.5625 68.5625 C-92.60568359 69.57119141 -92.64886719 70.57988281 -92.69335938 71.61914062 C-92.79829618 74.07932575 -92.90045701 76.53959175 -93 79 C-91.33388095 79.042721 -89.66617115 79.04063832 -88 79 C-87.505 78.505 -87.505 78.505 -87 78 C-87.02007819 75.74101404 -87.10932533 73.48259356 -87.2265625 71.2265625 C-87.28967443 69.8307567 -87.35215461 68.43492222 -87.4140625 67.0390625 C-87.51724635 64.83092812 -87.62508874 62.62335461 -87.74414062 60.41601562 C-87.85639662 58.29076226 -87.94916128 56.16536297 -88.0390625 54.0390625 C-88.13501709 52.12407959 -88.13501709 52.12407959 -88.23291016 50.17041016 C-88 47 -88 47 -86.52954102 45.31079102 C-86.02479248 44.87822998 -85.52004395 44.44566895 -85 44 C-84.50176904 42.08034352 -84.50176904 42.08034352 -84.48828125 39.98828125 C-84.45283203 39.23095703 -84.41738281 38.47363281 -84.38085938 37.69335938 C-84.35830078 36.90767578 -84.33574219 36.12199219 -84.3125 35.3125 C-84.27833984 34.51521484 -84.24417969 33.71792969 -84.20898438 32.89648438 C-84.12661896 30.93148096 -84.06162933 28.96576304 -84 27 C-83.67 27 -83.34 27 -83 27 C-83 31.29 -83 35.58 -83 40 C-79 38.5 -79 38.5 -78 36 C-77.34 36.33 -76.68 36.66 -76 37 C-76.495 37.86625 -76.99 38.7325 -77.5 39.625 C-80.61191422 46.96554407 -80.07345947 56.053431 -77.375 63.4375 C-73.57390874 71.51647445 -68.25005655 76.52780229 -60 80 C-56.15996222 80.99954855 -52.46062461 81.19447723 -48.5 81.25 C-47.3965625 81.27578125 -46.293125 81.3015625 -45.15625 81.328125 C-41.66359758 80.96502747 -39.88229483 79.92829584 -37 78 C-36.34 78 -35.68 78 -35 78 C-35 77.34 -35 76.68 -35 76 C-33.78939166 74.91280319 -32.53009456 73.87945376 -31.25 72.875 C-25.48164356 67.98465887 -22.5057314 62.1153488 -21.76171875 54.58984375 C-21.55806135 47.31177152 -23.11634184 41.65558602 -26 35 C-25.34 35 -24.68 35 -24 35 C-23.505 36.98 -23.505 36.98 -23 39 C-22.34 39 -21.68 39 -21 39 C-20.566875 39.94875 -20.13375 40.8975 -19.6875 41.875 C-18.20697799 45.20041937 -18.20697799 45.20041937 -15 47 C-14.8041001 49.49190826 -14.79149663 51.71635932 -14.92578125 54.1953125 C-14.96544258 55.25647781 -14.96544258 55.25647781 -15.00590515 56.33908081 C-15.09378215 58.60190191 -15.20288483 60.86313773 -15.3125 63.125 C-15.37574737 64.65749501 -15.43761382 66.19004768 -15.49804688 67.72265625 C-15.64933994 71.48262767 -15.81967653 75.24131349 -16 79 C-14.33388095 79.042721 -12.66617115 79.04063832 -11 79 C-9.31313222 77.31313222 -9.86809926 75.23269557 -9.86132812 72.98242188 C-9.86583984 72.28697266 -9.87035156 71.59152344 -9.875 70.875 C-9.87693359 70.16666016 -9.87886719 69.45832031 -9.88085938 68.72851562 C-9.93878915 61.46154734 -10.4172901 54.24225167 -11 47 C-10.360625 46.731875 -9.72125 46.46375 -9.0625 46.1875 C-6.66868314 45.11332248 -6.66868314 45.11332248 -6 42 C-5.72579221 37.74977931 -5.59284408 35.00717516 -7.1875 31.0625 C-8.859477 28.81957375 -8.859477 28.81957375 -11.5 28.125 C-14.1306102 27.8417544 -14.1306102 27.8417544 -17 29 C-16.505 27.515 -16.505 27.515 -16 26 C-9.66752577 25.5128866 -9.66752577 25.5128866 -6.6875 27.6875 C-4.95945868 30.05555662 -4.03213078 32.27222579 -3 35 C-2.34 35.33 -1.68 35.66 -1 36 C-0.67 24.12 -0.34 12.24 0 0 Z " fill="#1281DF" transform="translate(227,132)"/>
<path d="M0 0 C7.35574453 5.09938118 12.21708518 11.15145978 14 20 C14.80109205 29.92121691 13.02368778 37.02747205 7 45 C4.375 47.875 4.375 47.875 2 50 C1.34 50 0.68 50 0 50 C0 50.66 0 51.32 0 52 C-0.969375 52.474375 -1.93875 52.94875 -2.9375 53.4375 C-5.80477437 54.70193947 -5.80477437 54.70193947 -7 56 C-18.01212188 56.85212848 -26.55129992 55.62103803 -35.21484375 48.59375 C-41.71430737 42.79116541 -44.57396645 37.14741911 -45.28515625 28.5546875 C-45.55535286 17.48837424 -43.11063926 11.34851508 -35.515625 3.3125 C-25.2051941 -6.16541163 -12.15145446 -6.47592483 0 0 Z " fill="#29C26D" transform="translate(192,158)"/>
<path d="M0 0 C0.474375 0.99 0.94875 1.98 1.4375 3 C3.67765781 6.27156754 3.67765781 6.27156754 6.96875 6.50390625 C15.0123158 6.64033377 15.0123158 6.64033377 22 3 C22.33 2.01 22.66 1.02 23 0 C33.47602936 0.33257236 39.47434375 5.27571208 46.8828125 12.2890625 C48 14 48 14 47.91796875 15.984375 C46.75529016 18.53732033 45.32883745 19.82135027 43.1875 21.625 C42.50042969 22.21539062 41.81335938 22.80578125 41.10546875 23.4140625 C39.09653683 24.92728394 37.35312748 26.11220748 35 27 C34.01 26.67 33.02 26.34 32 26 C32.00523682 26.69150146 32.01047363 27.38300293 32.01586914 28.09545898 C32.036575 31.20946352 32.04963963 34.32345361 32.0625 37.4375 C32.07087891 38.52611328 32.07925781 39.61472656 32.08789062 40.73632812 C32.09111328 41.77080078 32.09433594 42.80527344 32.09765625 43.87109375 C32.10289307 44.82943115 32.10812988 45.78776855 32.11352539 46.77514648 C32 49 32 49 31 50 C28.35713726 50.11336626 25.74138544 50.16417761 23.09765625 50.16796875 C21.90830727 50.17296135 21.90830727 50.17296135 20.69493103 50.17805481 C19.01448142 50.18312726 17.33402171 50.18546304 15.65356445 50.18530273 C13.07681741 50.18748786 10.50049924 50.20563609 7.92382812 50.22460938 C6.2942723 50.22754345 4.66471444 50.22952815 3.03515625 50.23046875 C1.87416161 50.24124702 1.87416161 50.24124702 0.68971252 50.25224304 C-4.77117747 50.22882253 -4.77117747 50.22882253 -7 48 C-7.22705078 45.84521484 -7.22705078 45.84521484 -7.1953125 43.2109375 C-7.18886719 42.26992187 -7.18242188 41.32890625 -7.17578125 40.359375 C-7.15902344 39.37453125 -7.14226563 38.3896875 -7.125 37.375 C-7.11597656 36.38242188 -7.10695313 35.38984375 -7.09765625 34.3671875 C-7.07404116 31.91121866 -7.04110799 29.45572832 -7 27 C-7.78785889 27.18409424 -8.57571777 27.36818848 -9.38745117 27.55786133 C-12 28 -12 28 -13.80078125 27.07421875 C-15.2379834 25.75585502 -16.62093638 24.37906362 -18 23 C-18 22.34 -18 21.68 -18 21 C-18.639375 20.814375 -19.27875 20.62875 -19.9375 20.4375 C-22 19 -22 19 -23.375 15.9375 C-22.92603829 11.22340209 -21.97576665 10.43947198 -18.625 7.25 C-12.75935081 2.41413473 -7.60501381 0 0 0 Z " fill="#30C36D" transform="translate(57,167)"/>
<path d="M0 0 C0.67343445 -0.00029205 1.3468689 -0.00058411 2.04071045 -0.00088501 C4.26465784 0.00050734 6.4882694 0.01606375 8.7121582 0.03173828 C10.25486569 0.03546876 11.79757555 0.03831557 13.34028625 0.04031372 C17.3993281 0.04794749 21.45822666 0.06759372 25.51721191 0.08972168 C29.65964825 0.11018566 33.80210776 0.11931662 37.94458008 0.12939453 C46.07159893 0.1508399 54.19850137 0.1849727 62.32543945 0.22705078 C62.32543945 0.88705078 62.32543945 1.54705078 62.32543945 2.22705078 C56.38543945 2.22705078 50.44543945 2.22705078 44.32543945 2.22705078 C44.32543945 6.84705078 44.32543945 11.46705078 44.32543945 16.22705078 C49.93543945 16.22705078 55.54543945 16.22705078 61.32543945 16.22705078 C60.83043945 17.71205078 60.83043945 17.71205078 60.32543945 19.22705078 C55.04543945 19.22705078 49.76543945 19.22705078 44.32543945 19.22705078 C44.32543945 24.83705078 44.32543945 30.44705078 44.32543945 36.22705078 C47.38825195 36.19611328 47.38825195 36.19611328 50.51293945 36.16455078 C54.61740023 36.12309158 58.32748053 36.27085345 62.32543945 37.22705078 C62.32543945 37.55705078 62.32543945 37.88705078 62.32543945 38.22705078 C38.23543945 38.22705078 14.14543945 38.22705078 -10.67456055 38.22705078 C-11.33456055 36.90705078 -11.99456055 35.58705078 -12.67456055 34.22705078 C-13.66456055 33.56705078 -14.65456055 32.90705078 -15.67456055 32.22705078 C-16.54956055 28.78955078 -16.54956055 28.78955078 -16.67456055 25.22705078 C-16.18084961 24.79908203 -15.68713867 24.37111328 -15.1784668 23.93017578 C-12.82729769 21.26755311 -13.53477719 18.86807941 -13.73706055 15.41455078 C-13.91511484 7.57206871 -13.91511484 7.57206871 -11.86206055 4.47705078 C-7.88665152 0.38805864 -5.56420451 -0.02027033 0 0 Z " fill="#FABD16" transform="translate(152.674560546875,45.77294921875)"/>
<path d="M0 0 C0.71244873 -0.00029205 1.42489746 -0.00058411 2.15893555 -0.00088501 C4.51273802 0.00050782 6.86622356 0.01606659 9.2199707 0.03173828 C10.85235928 0.03546858 12.4847501 0.03831547 14.11714172 0.04031372 C18.41291489 0.04794884 22.70855274 0.06759626 27.00427246 0.08972168 C31.38800221 0.11018273 35.77175383 0.11931599 40.15551758 0.12939453 C48.75649112 0.15084229 57.3573547 0.18497674 65.95825195 0.22705078 C65.62825195 1.21705078 65.29825195 2.20705078 64.95825195 3.22705078 C59.34825195 3.22705078 53.73825195 3.22705078 47.95825195 3.22705078 C47.95825195 8.17705078 47.95825195 13.12705078 47.95825195 18.22705078 C49.65594727 18.20964844 49.65594727 18.20964844 51.38793945 18.19189453 C52.86970864 18.18251625 54.35147961 18.17341609 55.83325195 18.16455078 C56.57961914 18.15617187 57.32598633 18.14779297 58.0949707 18.13916016 C63.73168945 18.11376953 63.73168945 18.11376953 65.95825195 19.22705078 C65.46325195 20.71205078 65.46325195 20.71205078 64.95825195 22.22705078 C55.54396233 22.34303436 46.12991961 22.4318111 36.71507072 22.48611164 C32.34307446 22.51217681 27.97156794 22.54751767 23.59985352 22.60424805 C19.37878754 22.65867909 15.15819182 22.68849449 10.93680191 22.701437 C9.32843754 22.71065711 7.72009817 22.72866238 6.11193466 22.75570107 C3.85425488 22.79214169 1.59850395 22.79699029 -0.65942383 22.79467773 C-1.94293732 22.80578079 -3.22645081 22.81688385 -4.54885864 22.82832336 C-9.18202385 22.03076155 -10.77273956 20.56005256 -14.04174805 17.22705078 C-15.25435682 13.58922446 -15.43719356 11.04969079 -15.04174805 7.22705078 C-10.45422825 1.64763481 -7.128508 -0.02453875 0 0 Z " fill="#25C56F" transform="translate(149.041748046875,84.77294921875)"/>
<path d="M0 0 C13.53 0 27.06 0 41 0 C41 15 41 15 40 17 C39.01 16.67 38.02 16.34 37 16 C36.505 14.515 36.505 14.515 36 13 C34.02 13 32.04 13 30 13 C29.67 13.99 29.34 14.98 29 16 C25.4375 17.1875 25.4375 17.1875 22 18 C21.896875 19.27875 21.79375 20.5575 21.6875 21.875 C21.51171875 24.0546875 21.51171875 24.0546875 21 26 C20.01 26.66 19.02 27.32 18 28 C17.33319632 30.95720628 17.33319632 30.95720628 18 34 C20.41055254 35.66299965 20.41055254 35.66299965 23 37 C23.8125 39.1875 23.8125 39.1875 24 41 C26.53522416 41.78006897 28.3748961 41.98469812 31.0625 41.875 C34 42 34 42 35.6875 43.4375 C36.120625 43.953125 36.55375 44.46875 37 45 C37.99 45.33 38.98 45.66 40 46 C40 46.66 40 47.32 40 48 C35.29796986 48.92947107 30.75205901 49.13238813 25.9765625 49.09765625 C25.31422607 49.09664917 24.65188965 49.09564209 23.96948242 49.09460449 C21.52130372 49.08941589 19.07314992 49.07545499 16.625 49.0625 C11.13875 49.041875 5.6525 49.02125 0 49 C0 32.83 0 16.66 0 0 Z " fill="#189CDD" transform="translate(48,50)"/>
<path d="M0 0 C0.67328842 -0.00014603 1.34657684 -0.00029205 2.04026794 -0.0004425 C4.26955366 0.00025512 6.4987562 0.0080405 8.72802734 0.01586914 C10.27216547 0.01773385 11.81630419 0.01915751 13.36044312 0.02015686 C17.42766957 0.02397785 21.49486039 0.03380457 25.56207275 0.04486084 C29.71113605 0.05508395 33.86020509 0.05965641 38.00927734 0.06469727 C46.15252287 0.0754272 54.29573943 0.09249862 62.43896484 0.11352539 C62.43896484 0.77352539 62.43896484 1.43352539 62.43896484 2.11352539 C56.49896484 2.11352539 50.55896484 2.11352539 44.43896484 2.11352539 C44.43896484 6.73352539 44.43896484 11.35352539 44.43896484 16.11352539 C50.04896484 16.11352539 55.65896484 16.11352539 61.43896484 16.11352539 C61.43896484 16.77352539 61.43896484 17.43352539 61.43896484 18.11352539 C52.10324751 18.22929452 42.76777662 18.31817666 33.43149853 18.37258625 C29.09640874 18.39869824 24.76180942 18.43412449 20.42700195 18.49072266 C16.24485254 18.54498687 12.06317531 18.57493386 7.88070107 18.58791161 C6.28381221 18.5971617 4.68694967 18.61522517 3.09026146 18.64217567 C0.85590844 18.67839479 -1.3764854 18.6834742 -3.61108398 18.68115234 C-4.88349442 18.6922554 -6.15590485 18.70335846 -7.46687317 18.71479797 C-10.56103516 18.11352539 -10.56103516 18.11352539 -12.49931335 15.79679871 C-13.95656881 12.11389923 -13.57942748 9.91552339 -12.56103516 6.11352539 C-8.75818853 0.47059169 -6.63056164 -0.01205557 0 0 Z " fill="#FD642A" transform="translate(152.56103515625,45.886474609375)"/>
<path d="M0 0 C3.49010734 2.39990609 5.96431345 5.4833144 7.86328125 9.28125 C8.35215857 15.08366278 8.71873563 20.43873286 6.23828125 25.78125 C1.04214957 31.2508623 -2.39552726 34.10309802 -10.07421875 34.46875 C-15.9740831 34.37041893 -19.85168122 32.34075924 -24.13671875 28.28125 C-27.41237852 23.36776034 -28.42568737 18.12383432 -28.13671875 12.28125 C-26.4833355 6.33940394 -23.10953761 2.73177737 -18.13671875 -0.71875 C-11.8518308 -4.10292044 -6.07044674 -3.30043706 0 0 Z " fill="#85EF6E" transform="translate(186.13671875,167.71875)"/>
<path d="M0 0 C1.41975632 -0.00503792 1.41975632 -0.00503792 2.86819458 -0.01017761 C6.0101247 -0.01970814 9.15200162 -0.02163197 12.29394531 -0.02270508 C14.47389752 -0.02591689 16.65384952 -0.02928091 18.83380127 -0.03279114 C23.41036478 -0.03878815 27.9869094 -0.04063052 32.56347656 -0.04003906 C38.42572324 -0.03993757 44.28784846 -0.05357435 50.15006638 -0.07081127 C54.65566564 -0.08193642 59.16123563 -0.08395809 63.66684723 -0.08342934 C65.82777575 -0.08460927 67.98870504 -0.08903177 70.14962006 -0.0967617 C73.17535358 -0.10656906 76.20082466 -0.10368018 79.2265625 -0.09765625 C80.56405045 -0.10608551 80.56405045 -0.10608551 81.92855835 -0.11468506 C86.60751629 -0.0910379 90.5253533 0.18398815 94.87207031 2.14526367 C106.72451507 25.85015319 96.33244764 86.09054847 95.87207031 110.14526367 C60.56207031 110.14526367 25.25207031 110.14526367 -11.12792969 110.14526367 C-11.12792969 74.17526367 -11.12792969 38.20526367 -11.12792969 1.14526367 C-7.70200542 -0.56769846 -3.77002327 -0.00189887 0 0 Z M-9.12792969 2.14526367 C-9.12792969 37.45526367 -9.12792969 72.76526367 -9.12792969 109.14526367 C24.86207031 109.14526367 58.85207031 109.14526367 93.87207031 109.14526367 C94.13709291 90.53213008 94.13709291 90.53213008 94.37402344 71.91870117 C94.46435915 64.33131419 94.55804255 56.74406866 94.67114258 49.15698242 C94.76208148 43.04281087 94.83843932 36.92861787 94.90452003 30.81412888 C94.93237573 28.47678161 94.96556114 26.1394918 95.00406456 23.80229568 C95.05693848 20.5385154 95.09116801 17.27504805 95.12084961 14.01098633 C95.14098618 13.03634933 95.16112274 12.06171234 95.18186951 11.05754089 C95.18830475 9.72818764 95.18830475 9.72818764 95.19487 8.37197876 C95.20500972 7.59951624 95.21514944 6.82705372 95.22559643 6.03118324 C95.10893281 5.40882978 94.99226919 4.78647633 94.87207031 4.14526367 C91.78312962 2.08596987 91.16255229 1.89609477 87.67695618 1.90475464 C86.82477414 1.90199965 85.97259211 1.89924465 85.09458637 1.89640617 C83.69147095 1.9072005 83.69147095 1.9072005 82.26000977 1.91821289 C81.25851741 1.91797182 80.25702505 1.91773075 79.22518444 1.91748238 C75.97848359 1.91897696 72.73201142 1.93421652 69.48535156 1.94995117 C67.48287059 1.95289115 65.48038809 1.95493187 63.47790527 1.95605469 C56.04677021 1.96654724 48.61566802 1.99446957 41.18457031 2.02026367 C16.27988281 2.08213867 16.27988281 2.08213867 -9.12792969 2.14526367 Z " fill="#F2D05C" transform="translate(133.1279296875,17.854736328125)"/>
<path d="M0 0 C35.31 0 70.62 0 107 0 C107 32.34 107 64.68 107 98 C106.67 98 106.34 98 106 98 C106 65.99 106 33.98 106 1 C71.68 1 37.36 1 2 1 C2 33.67 2 66.34 2 100 C13.55 100 25.1 100 37 100 C43.02648015 100.05464481 49.04895541 100.11617746 55.07421875 100.21875 C56.52634825 100.24140743 57.97848158 100.26382007 59.43061829 100.28601074 C63.10775801 100.3428133 66.78483869 100.40275435 70.46191406 100.46356201 C74.27210301 100.52594362 78.08234277 100.58506419 81.89257812 100.64453125 C89.26176936 100.75998833 96.63090089 100.87879018 104 101 C104 101.33 104 101.66 104 102 C69.68 102 35.36 102 0 102 C0 68.34 0 34.68 0 0 Z " fill="#2E70AD" transform="translate(122,129)"/>
<path d="M0 0 C23.1 0 46.2 0 70 0 C70 0.33 70 0.66 70 1 C64.72 1 59.44 1 54 1 C54 6.61 54 12.22 54 18 C58.29 18 62.58 18 67 18 C67 18.33 67 18.66 67 19 C60.73 19 54.46 19 48 19 C48 18.01 48 17.02 48 16 C47.34 16 46.68 16 46 16 C46 16.99 46 17.98 46 19 C43.69 19 41.38 19 39 19 C39 13.06 39 7.12 39 1 C31.08 1 23.16 1 15 1 C15 6.94 15 12.88 15 19 C10.38 19 5.76 19 1 19 C1.66 18.67 2.32 18.34 3 18 C3.28875 17.401875 3.5775 16.80375 3.875 16.1875 C5.19572625 13.61942118 6.97014533 12.02985467 9 10 C9 9.34 9 8.68 9 8 C8.34 7.67 7.68 7.34 7 7 C7 5.02 7 3.04 7 1 C4.69 1 2.38 1 0 1 C0 0.67 0 0.34 0 0 Z " fill="#FB9214" transform="translate(143,64)"/>
<path d="M0 0 C1.32 0 2.64 0 4 0 C4 1.32 4 2.64 4 4 C4.66 4.33 5.32 4.66 6 5 C5 6 5 6 2.93359375 6.09765625 C2.10988281 6.08605469 1.28617188 6.07445313 0.4375 6.0625 C-0.38878906 6.05347656 -1.21507813 6.04445313 -2.06640625 6.03515625 C-2.70449219 6.02355469 -3.34257813 6.01195313 -4 6 C-3.88541307 7.43836751 -3.75790884 8.87570966 -3.625 10.3125 C-3.55539063 11.11300781 -3.48578125 11.91351563 -3.4140625 12.73828125 C-3.10435574 15.27224441 -3.10435574 15.27224441 -1 18 C1.54207971 18.33343551 1.54207971 18.33343551 4 18 C5.39681568 16.83016556 5.39681568 16.83016556 5.125 13.5625 C5.2526281 10.15894416 5.2526281 10.15894416 4 8 C5.8125 6 5.8125 6 8 4 C8.99 4 9.98 4 11 4 C11.061875 4.94875 11.12375 5.8975 11.1875 6.875 C11.455625 7.90625 11.72375 8.9375 12 10 C14.46255685 11.45291273 14.46255685 11.45291273 17 12 C17 13.98 17 15.96 17 18 C16.37609375 18.23460938 15.7521875 18.46921875 15.109375 18.7109375 C12.39744059 20.36823075 12.11024003 21.6141599 11.25 24.625 C11.00765625 25.44226563 10.7653125 26.25953125 10.515625 27.1015625 C10.34546875 27.72804688 10.1753125 28.35453125 10 29 C8.35 29 6.7 29 5 29 C4.67 28.01 4.34 27.02 4 26 C3.38511719 26.16757813 2.77023438 26.33515625 2.13671875 26.5078125 C1.32847656 26.71148437 0.52023438 26.91515625 -0.3125 27.125 C-1.11300781 27.33382812 -1.91351563 27.54265625 -2.73828125 27.7578125 C-5 28 -5 28 -8 26 C-8.309375 25.175 -8.61875 24.35 -8.9375 23.5 C-9.77763578 20.85479785 -9.77763578 20.85479785 -12.125 19.6875 C-12.74375 19.460625 -13.3625 19.23375 -14 19 C-14.1875 16.125 -14.1875 16.125 -14 13 C-13.01 12.34 -12.02 11.68 -11 11 C-10.42251197 9.03638136 -10.42251197 9.03638136 -10.3125 6.875 C-10.209375 5.59625 -10.10625 4.3175 -10 3 C-9.04287109 2.80083984 -9.04287109 2.80083984 -8.06640625 2.59765625 C-7.24011719 2.42105469 -6.41382812 2.24445313 -5.5625 2.0625 C-4.32693359 1.80146484 -4.32693359 1.80146484 -3.06640625 1.53515625 C-1.02338796 1.19247006 -1.02338796 1.19247006 0 0 Z " fill="#E0DC57" transform="translate(79,65)"/>
<path d="M0 0 C3.36344489 2.48602449 4.80057749 3.91425523 5.5625 8.0625 C4.88350965 11.60833849 3.83835687 12.82949181 1 15 C0.34 15 -0.32 15 -1 15 C-1 15.66 -1 16.32 -1 17 C-0.2575 17.12375 0.485 17.2475 1.25 17.375 C3.80141485 17.95486701 5.7267573 18.73708739 8 20 C7.8125 22.3125 7.8125 22.3125 7 25 C3.18891193 27.91395237 0.18160462 28.45602221 -4.5625 28.5 C-6.23505859 28.54640625 -6.23505859 28.54640625 -7.94140625 28.59375 C-11 28 -11 28 -13.40234375 25.59375 C-15 23 -15 23 -15 21 C-18.96 21.495 -18.96 21.495 -23 22 C-22.505 20.515 -22.505 20.515 -22 19 C-20.68 19 -19.36 19 -18 19 C-17.67 18.01 -17.34 17.02 -17 16 C-15.35 16.33 -13.7 16.66 -12 17 C-11.34 15.02 -10.68 13.04 -10 11 C-10.33 10.67 -10.66 10.34 -11 10 C-11.23529412 4.47058824 -11.23529412 4.47058824 -10 2 C-6.68935479 -0.20709681 -3.91636788 -0.55948113 0 0 Z " fill="#E14D48" transform="translate(72,146)"/>
<path d="M0 0 C2.47189851 1.94220597 2.97912836 2.93738507 4 6 C4.33900253 11.25453924 4.55746012 14.78375097 1 19 C0.01 19 -0.98 19 -2 19 C-1.67 19.66 -1.34 20.32 -1 21 C-0.08194628 28.18575384 0.11444942 35.44974676 0.1875 42.6875 C0.20047119 43.38246582 0.21344238 44.07743164 0.22680664 44.79345703 C0.23003876 46.53061425 0.12332191 48.26722264 0 50 C-0.66 50.66 -1.32 51.32 -2 52 C-4.625 51.625 -4.625 51.625 -7 51 C-6.97905273 50.05157227 -6.95810547 49.10314453 -6.93652344 48.12597656 C-6.8682644 44.59983575 -6.81816071 41.07439901 -6.78027344 37.54785156 C-6.76018401 36.02299915 -6.73290684 34.49822352 -6.69824219 32.97363281 C-6.64960204 30.77910402 -6.62700604 28.58559531 -6.609375 26.390625 C-6.58842773 25.07094727 -6.56748047 23.75126953 -6.54589844 22.39160156 C-7.07386834 18.44829088 -8.02899521 17.4969006 -11 15 C-12.06301505 10.1929834 -11.68994055 6.1269029 -9.125 1.9375 C-5.76879977 -1.12256492 -4.32193392 -1.26495627 0 0 Z " fill="#74A9F2" transform="translate(218,160)"/>
<path d="M0 0 C0.71873795 -0.00524185 1.43747589 -0.0104837 2.17799377 -0.0158844 C3.69685577 -0.02230231 5.21576748 -0.0209705 6.73461914 -0.01245117 C9.05510311 -0.00394767 11.37311911 -0.03268925 13.69335938 -0.06445312 C15.17057218 -0.06606549 16.64778933 -0.06548694 18.125 -0.0625 C18.81677841 -0.07373398 19.50855682 -0.08496796 20.22129822 -0.09654236 C23.42189521 -0.05040026 25.38971505 0.2792181 28.09790039 2.02709961 C29.62890625 4.43359375 29.62890625 4.43359375 29.62890625 11.43359375 C16.09890625 11.43359375 2.56890625 11.43359375 -11.37109375 11.43359375 C-10.37109375 3.43359375 -10.37109375 3.43359375 -9.26928711 1.46069336 C-6.29671498 -0.14774535 -3.29687748 -0.01394985 0 0 Z " fill="#F18755" transform="translate(59.37109375,37.56640625)"/>
<path d="M0 0 C13.2 0 26.4 0 40 0 C40 6 40 6 38.43945312 8.34619141 C35.14645981 10.57865105 32.92957554 10.48692851 28.96875 10.4609375 C28.29581909 10.46002106 27.62288818 10.45910461 26.92956543 10.4581604 C25.51075155 10.45213453 24.0919498 10.43641859 22.67333984 10.41162109 C20.5070078 10.37511808 18.34238876 10.3706019 16.17578125 10.37109375 C4.36224539 10.28701469 4.36224539 10.28701469 1 8 C0 6 0 6 0 0 Z " fill="#E77B6A" transform="translate(49,100)"/>
<path d="M0 0 C0.66 0 1.32 0 2 0 C2 4.29 2 8.58 2 13 C2.66 13 3.32 13 4 13 C4 8.71 4 4.42 4 0 C4.66 0 5.32 0 6 0 C6 4.29 6 8.58 6 13 C6.66 13 7.32 13 8 13 C8 8.71 8 4.42 8 0 C8.99 0 9.98 0 11 0 C11.05392397 2.77109307 11.09363455 5.54113818 11.125 8.3125 C11.14175781 9.09818359 11.15851563 9.88386719 11.17578125 10.69335938 C11.18222656 11.45068359 11.18867188 12.20800781 11.1953125 12.98828125 C11.20578613 13.68477783 11.21625977 14.38127441 11.22705078 15.09887695 C11 17 11 17 9 20 C8.34 20 7.68 20 7 20 C7.15702393 20.69907471 7.31404785 21.39814941 7.47583008 22.1184082 C8.44069427 27.42268957 8.4688802 32.80945304 8.6875 38.1875 C8.74744141 39.38826172 8.80738281 40.58902344 8.86914062 41.82617188 C8.91619141 42.97021484 8.96324219 44.11425781 9.01171875 45.29296875 C9.05772217 46.3399292 9.10372559 47.38688965 9.15112305 48.46557617 C9 51 9 51 7 53 C4.375 52.625 4.375 52.625 2 52 C1.9705809 48.52085157 1.95306208 45.04173583 1.9375 41.5625 C1.92912109 40.58861328 1.92074219 39.61472656 1.91210938 38.61132812 C1.89217922 32.65221031 2.22390482 26.90932317 3 21 C2.01 20.34 1.02 19.68 0 19 C-0.34057617 17.02880859 -0.34057617 17.02880859 -0.29296875 14.6484375 C-0.28330078 13.79765625 -0.27363281 12.946875 -0.26367188 12.0703125 C-0.23853516 11.18085938 -0.21339844 10.29140625 -0.1875 9.375 C-0.17396484 8.4778125 -0.16042969 7.580625 -0.14648438 6.65625 C-0.11106925 4.43690211 -0.06168461 2.21874812 0 0 Z " fill="#70AEF7" transform="translate(132,159)"/>
<path d="M0 0 C13.53 0 27.06 0 41 0 C41 15 41 15 40 17 C39.01 16.67 38.02 16.34 37 16 C36.505 14.515 36.505 14.515 36 13 C33.69 13 31.38 13 29 13 C29.33 12.01 29.66 11.02 30 10 C32.64 9.67 35.28 9.34 38 9 C38.66 7.35 39.32 5.7 40 4 C27.46 4 14.92 4 2 4 C2 18.52 2 33.04 2 48 C12.56 48 23.12 48 34 48 C34 48.33 34 48.66 34 49 C22.78 49 11.56 49 0 49 C0 32.83 0 16.66 0 0 Z " fill="#2795D5" transform="translate(48,50)"/>
<path d="M0 0 C0.66 0 1.32 0 2 0 C2.495 1.98 2.495 1.98 3 4 C3.66 4 4.32 4 5 4 C5.433125 4.94875 5.86625 5.8975 6.3125 6.875 C7.79302201 10.20041937 7.79302201 10.20041937 11 12 C11.26464844 13.88842773 11.26464844 13.88842773 11.109375 16.18359375 C11.05966553 17.02438477 11.00995605 17.86517578 10.95874023 18.73144531 C10.88985596 19.62444336 10.82097168 20.51744141 10.75 21.4375 C10.69207275 22.33952148 10.63414551 23.24154297 10.57446289 24.17089844 C10.15811703 30.45506574 9.67503805 36.73794486 9 43 C8.56042969 42.51917969 8.12085938 42.03835937 7.66796875 41.54296875 C5.54616701 39.58017791 3.81866616 39.38090083 1 39 C1 38.01 1 37.02 1 36 C-2.99926986 38.97088618 -5.92118304 42.12948725 -9 46 C-8.34 46.33 -7.68 46.66 -7 47 C-7 47.66 -7 48.32 -7 49 C-20.86 48.505 -20.86 48.505 -35 48 C-34.67 47.34 -34.34 46.68 -34 46 C-32.75863281 46.03480469 -31.51726562 46.06960937 -30.23828125 46.10546875 C-28.59636774 46.13361584 -26.95443954 46.16091501 -25.3125 46.1875 C-24.49587891 46.21263672 -23.67925781 46.23777344 -22.83789062 46.26367188 C-17.95245915 46.3230091 -15.075923 45.96926704 -11 43 C-10.34 43 -9.68 43 -9 43 C-9 42.34 -9 41.68 -9 41 C-7.78939166 39.91280319 -6.53009456 38.87945376 -5.25 37.875 C0.51835644 32.98465887 3.4942686 27.1153488 4.23828125 19.58984375 C4.44193865 12.31177152 2.88365816 6.65558602 0 0 Z " fill="#0E76D5" transform="translate(201,167)"/>
<path d="M0 0 C0.495 1.485 0.495 1.485 1 3 C0.34 3.66 -0.32 4.32 -1 5 C-1.33 5.845625 -1.66 6.69125 -2 7.5625 C-3 10 -3 10 -5 11 C-6.26145768 13.36186139 -6.26145768 13.36186139 -7 16 C-6.2236068 19.0745356 -6.2236068 19.0745356 -4 21 C-4.375 24.625 -4.375 24.625 -5 28 C-5.66 28 -6.32 28 -7 28 C-7.268125 28.804375 -7.53625 29.60875 -7.8125 30.4375 C-8.204375 31.283125 -8.59625 32.12875 -9 33 C-9.99 33.33 -10.98 33.66 -12 34 C-12.33 33.34 -12.66 32.68 -13 32 C-15.64 32 -18.28 32 -21 32 C-21 32.66 -21 33.32 -21 34 C-23.31 34 -25.62 34 -28 34 C-28 33.34 -28 32.68 -28 32 C-31.41656024 31.83322718 -31.41656024 31.83322718 -35 32 C-35.66 32.66 -36.32 33.32 -37 34 C-40.3125 35 -40.3125 35 -44 35 C-46.20187315 33.20892408 -47.38871369 31.39251604 -49 29 C-48.67 28.34 -48.34 27.68 -48 27 C-47.67 27.33 -47.34 27.66 -47 28 C-44.3337397 28.08855161 -41.69352886 28.11524673 -39.02734375 28.09765625 C-38.22970108 28.0962413 -37.43205841 28.09482635 -36.61024475 28.09336853 C-34.05262565 28.08775316 -31.49509282 28.07519812 -28.9375 28.0625 C-27.20768355 28.05748698 -25.47786574 28.05292373 -23.74804688 28.04882812 C-19.49863761 28.03862791 -15.24941584 28.01905568 -11 28 C-10.67 20.41 -10.34 12.82 -10 5 C-8.35 5 -6.7 5 -5 5 C-2.18668622 2.60416349 -2.18668622 2.60416349 0 0 Z " fill="#EC343F" transform="translate(99,188)"/>
<path d="M0 0 C0.33 0 0.66 0 1 0 C1 4.29 1 8.58 1 13 C5 11.5 5 11.5 6 9 C6.66 9.33 7.32 9.66 8 10 C7.505 10.86625 7.01 11.7325 6.5 12.625 C3.71104486 19.2037315 3.88287393 27.25690226 5.90234375 34.0234375 C6.59581498 35.70652426 7.33190962 37.37321606 8.125 39.01171875 C9 41 9 41 9 44 C8.071875 43.505 8.071875 43.505 7.125 43 C5.08981656 41.85806765 5.08981656 41.85806765 3 42 C3.02320313 41.38511719 3.04640625 40.77023438 3.0703125 40.13671875 C3.08835938 39.32847656 3.10640625 38.52023438 3.125 37.6875 C3.14820313 36.88699219 3.17140625 36.08648437 3.1953125 35.26171875 C3.15817322 32.71611424 3.15817322 32.71611424 1 30 C-0.60957209 31.60957209 -0.18431988 33.39619442 -0.24609375 35.62109375 C-0.27896484 36.55630859 -0.31183594 37.49152344 -0.34570312 38.45507812 C-0.40677734 40.43934031 -0.46408455 42.42372211 -0.51757812 44.40820312 C-0.55173828 45.34470703 -0.58589844 46.28121094 -0.62109375 47.24609375 C-0.6461499 48.10904053 -0.67120605 48.9719873 -0.69702148 49.86108398 C-1 52 -1 52 -3 54 C-6 54.3125 -6 54.3125 -9 54 C-13.29927218 47.55109172 -10.81256853 37.78694267 -10 30.375 C-9.90460938 29.46621094 -9.80921875 28.55742187 -9.7109375 27.62109375 C-9.47856232 25.41352957 -9.24153511 23.20657739 -9 21 C-9.99 21 -10.98 21 -12 21 C-12.33 20.01 -12.66 19.02 -13 18 C-8.125 19.75 -8.125 19.75 -7 22 C-7.21939982 23.85744313 -7.44572766 25.71432454 -7.70654297 27.56640625 C-8.26427632 32.1916026 -8.3762832 36.84763273 -8.5625 41.5 C-8.60568359 42.51320312 -8.64886719 43.52640625 -8.69335938 44.5703125 C-8.79849192 47.0467679 -8.90063837 49.52330749 -9 52 C-7.33388095 52.042721 -5.66617115 52.04063832 -4 52 C-3.505 51.505 -3.505 51.505 -3 51 C-3.02007819 48.74101404 -3.10932533 46.48259356 -3.2265625 44.2265625 C-3.28967443 42.8307567 -3.35215461 41.43492222 -3.4140625 40.0390625 C-3.51724635 37.83092812 -3.62508874 35.62335461 -3.74414062 33.41601562 C-3.85639662 31.29076226 -3.94916128 29.16536297 -4.0390625 27.0390625 C-4.13501709 25.12407959 -4.13501709 25.12407959 -4.23291016 23.17041016 C-4 20 -4 20 -2.52954102 18.31079102 C-2.02479248 17.87822998 -1.52004395 17.44566895 -1 17 C-0.50176904 15.08034352 -0.50176904 15.08034352 -0.48828125 12.98828125 C-0.45283203 12.23095703 -0.41738281 11.47363281 -0.38085938 10.69335938 C-0.35830078 9.90767578 -0.33574219 9.12199219 -0.3125 8.3125 C-0.27833984 7.51521484 -0.24417969 6.71792969 -0.20898438 5.89648438 C-0.12661896 3.93148096 -0.06162933 1.96576304 0 0 Z " fill="#1574CB" transform="translate(143,159)"/>
<path d="M0 0 C1.01015167 -0.00065712 1.01015167 -0.00065712 2.04071045 -0.00132751 C4.26482215 0.00076117 6.48817834 0.02409467 8.7121582 0.04760742 C10.25486336 0.05320313 11.79757386 0.05747335 13.34028625 0.06047058 C17.39941137 0.07192146 21.45821411 0.10139048 25.51721191 0.13458252 C29.65962361 0.16527831 33.80208742 0.17897485 37.94458008 0.1940918 C46.07168109 0.22626018 54.19852016 0.27745919 62.32543945 0.34057617 C62.32543945 1.00057617 62.32543945 1.66057617 62.32543945 2.34057617 C56.38543945 2.34057617 50.44543945 2.34057617 44.32543945 2.34057617 C44.32543945 6.96057617 44.32543945 11.58057617 44.32543945 16.34057617 C49.93543945 16.34057617 55.54543945 16.34057617 61.32543945 16.34057617 C61.32543945 17.00057617 61.32543945 17.66057617 61.32543945 18.34057617 C37.56543945 18.34057617 13.80543945 18.34057617 -10.67456055 18.34057617 C-10.67456055 18.01057617 -10.67456055 17.68057617 -10.67456055 17.34057617 C5.82543945 17.34057617 22.32543945 17.34057617 39.32543945 17.34057617 C39.32543945 15.69057617 39.32543945 14.04057617 39.32543945 12.34057617 C40.31543945 12.34057617 41.30543945 12.34057617 42.32543945 12.34057617 C41.99543945 9.04057617 41.66543945 5.74057617 41.32543945 2.34057617 C34.86588825 2.31583568 28.40636471 2.2976969 21.94677734 2.28564453 C19.74983235 2.28061942 17.5528907 2.27379829 15.35595703 2.26513672 C12.19603653 2.25299142 9.0361603 2.24732959 5.8762207 2.24291992 C4.40563957 2.23517799 4.40563957 2.23517799 2.90534973 2.22727966 C1.52448433 2.22716637 1.52448433 2.22716637 0.11572266 2.22705078 C-0.69035934 2.22483017 -1.49644135 2.22260956 -2.32695007 2.22032166 C-4.85542529 2.34984083 -7.20682203 2.78783792 -9.67456055 3.34057617 C-6.97863311 -0.34095179 -4.3593767 -0.02382173 0 0 Z " fill="#E96612" transform="translate(152.674560546875,45.659423828125)"/>
<path d="M0 0 C0.33 0 0.66 0 1 0 C3.30057397 34.9194263 1.70355119 70.04583514 1 105 C0.34 105 -0.32 105 -1 105 C-1.02322166 92.78624945 -1.04096506 80.57250421 -1.05181217 68.35873604 C-1.05701955 62.68674054 -1.06407808 57.01476021 -1.07543945 51.34277344 C-1.08634476 45.86386848 -1.09229299 40.38497806 -1.09487724 34.90606308 C-1.09671775 32.82101081 -1.10031171 30.73595928 -1.10573006 28.65091324 C-1.11304204 25.71924399 -1.11398668 22.787634 -1.11352539 19.85595703 C-1.11712067 19.00358963 -1.12071594 18.15122223 -1.12442017 17.27302551 C-1.11459811 11.46344382 -0.67303263 5.76951289 0 0 Z " fill="#EDC63C" transform="translate(228,22)"/>
<path d="M0 0 C3.36344489 2.48602449 4.80057749 3.91425523 5.5625 8.0625 C4.88350965 11.60833849 3.83835687 12.82949181 1 15 C0.34 15 -0.32 15 -1 15 C-1 15.66 -1 16.32 -1 17 C-0.2575 17.12375 0.485 17.2475 1.25 17.375 C3.80141485 17.95486701 5.7267573 18.73708739 8 20 C7.8125 22.3125 7.8125 22.3125 7 25 C4.5625 26.875 4.5625 26.875 2 28 C1.34 27.67 0.68 27.34 0 27 C0.99 26.01 1.98 25.02 3 24 C0.63310671 21.80780598 -0.51727269 21.0128098 -3.796875 20.92578125 C-4.77140625 21.05339844 -5.7459375 21.18101562 -6.75 21.3125 C-7.73484375 21.43238281 -8.7196875 21.55226562 -9.734375 21.67578125 C-10.48203125 21.78277344 -11.2296875 21.88976562 -12 22 C-11.6875 20.125 -11.6875 20.125 -11 18 C-8 16 -8 16 -5 16 C-4.731875 15.38125 -4.46375 14.7625 -4.1875 14.125 C-3 12 -3 12 0 10 C-0.33 8.35 -0.66 6.7 -1 5 C-2.65 5.33 -4.3 5.66 -6 6 C-6.33 6.99 -6.66 7.98 -7 9 C-7.99 9 -8.98 9 -10 9 C-9.40425532 3.63829787 -9.40425532 3.63829787 -7.8125 1.125 C-5.00893449 -0.61514411 -3.23330397 -0.51732864 0 0 Z " fill="#F5E4E2" transform="translate(72,146)"/>
<path d="M0 0 C0.350625 0.474375 0.70125 0.94875 1.0625 1.4375 C3.84163543 3.67873825 6.5144717 3.67117658 10 4 C10 5.98 10 7.96 10 10 C10.99 10.33 11.98 10.66 13 11 C11.10477522 15.4796222 8.22720108 19.67759936 4 22.1875 C2 22 2 22 -0.6875 20 C-3.39344347 16.48958685 -4 14.40913802 -4 10 C-2.625 8.5 -2.625 8.5 -1 7 C-0.26958147 3.38976901 -0.26958147 3.38976901 0 0 Z " fill="#FCAA11" transform="translate(140,61)"/>
<path d="M0 0 C1.98 0 3.96 0 6 0 C6.66 1.32 7.32 2.64 8 4 C8.78375 3.95875 9.5675 3.9175 10.375 3.875 C13 4 13 4 15 6 C15.26991906 8.68839385 15.08737357 11.29141936 15 14 C14.01 13.67 13.02 13.34 12 13 C12 11.02 12 9.04 12 7 C9.63158688 8.57894208 7.93254772 9.9754262 6 12 C6.33 12.33 6.66 12.66 7 13 C7.1875 16.4375 7.1875 16.4375 7 20 C5 22 5 22 2.5625 22.375 C0 22 0 22 -1.8125 20.5625 C-3.6196735 16.66280981 -3.18851908 13.2730991 -3 9 C1.455 8.505 1.455 8.505 6 8 C5.67 6.35 5.34 4.7 5 3 C3.453125 3.7425 3.453125 3.7425 1.875 4.5 C-1.52451578 5.97473902 -4.27021549 6.27291106 -8 6 C-7.67 5.34 -7.34 4.68 -7 4 C-5.02 4 -3.04 4 -1 4 C-0.67 2.68 -0.34 1.36 0 0 Z " fill="#DCD85A" transform="translate(78,62)"/>
<path d="M0 0 C0.66 0.33 1.32 0.66 2 1 C1.73958333 2.953125 1.47916667 4.90625 1.21875 6.859375 C0.93222643 9.30458395 0.93222643 9.30458395 1 13 C0.34 13.33 -0.32 13.66 -1 14 C-0.34 15.32 0.32 16.64 1 18 C0.505 18.495 0.505 18.495 0 19 C-1.04449911 22.13349732 -0.93423645 22.98968256 0 26 C-1.32 26.33 -2.64 26.66 -4 27 C-4 27.66 -4 28.32 -4 29 C-4.66 29 -5.32 29 -6 29 C-6 28.34 -6 27.68 -6 27 C-6.99 26.67 -7.98 26.34 -9 26 C-8.525625 25.62875 -8.05125 25.2575 -7.5625 24.875 C-5.4178599 22.62243117 -5.4178599 22.62243117 -5 17 C-18.2 17 -31.4 17 -45 17 C-45 16.67 -45 16.34 -45 16 C-32.13 15.67 -19.26 15.34 -6 15 C-6 14.34 -6 13.68 -6 13 C-8.475 12.505 -8.475 12.505 -11 12 C-11.495 10.515 -11.495 10.515 -12 9 C-14.01508358 8.26676204 -14.01508358 8.26676204 -16 8 C-14.35 8 -12.7 8 -11 8 C-10.505 8.99 -10.505 8.99 -10 10 C-7.47266765 10.65555119 -7.47266765 10.65555119 -5 11 C-4.89042969 10.37351562 -4.78085938 9.74703125 -4.66796875 9.1015625 C-4.43013672 7.87566406 -4.43013672 7.87566406 -4.1875 6.625 C-4.03667969 5.81289062 -3.88585937 5.00078125 -3.73046875 4.1640625 C-3 2 -3 2 0 0 Z " fill="#536FA2" transform="translate(94,83)"/>
<path d="M0 0 C0.99574036 -0.00021904 0.99574036 -0.00021904 2.01159668 -0.0004425 C4.19754344 0.00025207 6.38340413 0.00802308 8.56933594 0.01586914 C10.08819533 0.01773494 11.60705532 0.01915808 13.12591553 0.02015686 C17.11748932 0.02396929 21.10902656 0.03378869 25.10058594 0.04486084 C29.17610174 0.05510236 33.25162347 0.05966035 37.32714844 0.06469727 C45.31935269 0.07541212 53.31152726 0.09247323 61.30371094 0.11352539 C60.97371094 1.76352539 60.64371094 3.41352539 60.30371094 5.11352539 C54.36371094 5.11352539 48.42371094 5.11352539 42.30371094 5.11352539 C42.30371094 9.07352539 42.30371094 13.03352539 42.30371094 17.11352539 C47.58371094 17.11352539 52.86371094 17.11352539 58.30371094 17.11352539 C58.30371094 17.44352539 58.30371094 17.77352539 58.30371094 18.11352539 C52.69371094 18.11352539 47.08371094 18.11352539 41.30371094 18.11352539 C41.30371094 13.49352539 41.30371094 8.87352539 41.30371094 4.11352539 C47.24371094 4.11352539 53.18371094 4.11352539 59.30371094 4.11352539 C59.30371094 3.45352539 59.30371094 2.79352539 59.30371094 2.11352539 C24.15871094 2.60852539 24.15871094 2.60852539 -11.69628906 3.11352539 C-10.69628906 1.11352539 -10.69628906 1.11352539 -9.05230713 0.49562073 C-6.00738067 0.0017993 -3.0858624 -0.00571456 0 0 Z " fill="#FBB029" transform="translate(155.6962890625,43.886474609375)"/>
<path d="M0 0 C1.03725961 3.11177882 0.93467353 4.08734761 0.375 7.1875 C-0.23409191 12.11633584 0.55110472 15.68617678 3 20 C7.36548735 25.28453732 11.17508616 26.85634801 17.8125 27.625 C19.20768801 27.757008 20.60335892 27.88437394 22 28 C19.23776722 30.76223278 16.79293383 30.57856291 13 31 C13 31.99 13 32.98 13 34 C12.01 34 11.02 34 10 34 C10 34.66 10 35.32 10 36 C3.375 35.25 3.375 35.25 0 33 C0 32.34 0 31.68 0 31 C-0.99 30.67 -1.98 30.34 -3 30 C-2.6875 28.0625 -2.6875 28.0625 -2 26 C-1.01 25.67 -0.02 25.34 1 25 C1.33 24.34 1.66 23.68 2 23 C1.34 22.67 0.68 22.34 0 22 C-2.48763685 15.50450379 -3.1384678 8.55771187 -1 1.875 C-0.67 1.25625 -0.34 0.6375 0 0 Z " fill="#29C263" transform="translate(159,174)"/>
<path d="M0 0 C0.061875 0.94875 0.12375 1.8975 0.1875 2.875 C0.455625 3.90625 0.72375 4.9375 1 6 C3.46255685 7.45291273 3.46255685 7.45291273 6 8 C6 9.98 6 11.96 6 14 C5.37609375 14.23460938 4.7521875 14.46921875 4.109375 14.7109375 C1.39744059 16.36823075 1.11024003 17.6141599 0.25 20.625 C0.00765625 21.44226563 -0.2346875 22.25953125 -0.484375 23.1015625 C-0.65453125 23.72804688 -0.8246875 24.35453125 -1 25 C-2.65 25 -4.3 25 -6 25 C-6.33 24.34 -6.66 23.68 -7 23 C-6.01 23 -5.02 23 -4 23 C-3.67 20.69 -3.34 18.38 -3 16 C-4.32 15.34 -5.64 14.68 -7 14 C-6.67 13.67 -6.34 13.34 -6 13 C-5.69476038 8.34911285 -5.69476038 8.34911285 -7 4 C-3.375 0 -3.375 0 0 0 Z " fill="#DCD544" transform="translate(90,69)"/>
<path d="M0 0 C5.61 0 11.22 0 17 0 C17 0.33 17 0.66 17 1 C11.72 1 6.44 1 1 1 C1 2.65 1 4.3 1 6 C5.29 6 9.58 6 14 6 C14 8.31 14 10.62 14 13 C15.32 13.33 16.64 13.66 18 14 C18 14.66 18 15.32 18 16 C12.06 15.67 6.12 15.34 0 15 C0 10.05 0 5.1 0 0 Z " fill="#E9D52F" transform="translate(197,88)"/>
<path d="M0 0 C2.12352437 1.41568291 3.46969212 2.94305496 4.734375 5.15625 C2.44451898 4.01132199 0.24142387 2.85818653 -1.953125 1.53125 C-6.2366402 -0.24681291 -9.69393667 -0.6826625 -14.265625 0.15625 C-17.23499914 1.460975 -19.85685232 2.97483596 -22.265625 5.15625 C-22.595625 6.14625 -22.925625 7.13625 -23.265625 8.15625 C-23.925625 8.15625 -24.585625 8.15625 -25.265625 8.15625 C-25.29271944 10.23951131 -25.31206373 12.32287441 -25.328125 14.40625 C-25.33972656 15.56640625 -25.35132813 16.7265625 -25.36328125 17.921875 C-25.28344592 20.56602128 -25.05206278 22.65451091 -24.265625 25.15625 C-23.605625 25.15625 -22.945625 25.15625 -22.265625 25.15625 C-20.55782527 26.78074243 -18.89011743 28.44845027 -17.265625 30.15625 C-16.12860903 31.52157549 -16.12860903 31.52157549 -13.10546875 31.25390625 C-11.81769531 31.24230469 -10.52992188 31.23070312 -9.203125 31.21875 C-7.91277344 31.20972656 -6.62242187 31.20070312 -5.29296875 31.19140625 C-3.79443359 31.17400391 -3.79443359 31.17400391 -2.265625 31.15625 C-2.265625 30.49625 -2.265625 29.83625 -2.265625 29.15625 C-1.62625 28.888125 -0.986875 28.62 -0.328125 28.34375 C2.06569186 27.26957248 2.06569186 27.26957248 2.734375 24.15625 C3.724375 24.15625 4.714375 24.15625 5.734375 24.15625 C4.17232774 28.37377761 1.28303248 30.53024346 -2.265625 33.15625 C-6.72332472 35.08791988 -12.3432278 34.69273294 -16.953125 33.40625 C-22.17310578 30.58463877 -25.182795 27.77989101 -27.265625 22.15625 C-28.68316789 16.07815242 -28.77307979 11.37694869 -25.5703125 5.91015625 C-18.95832289 -2.97841662 -9.72221015 -5.27561791 0 0 Z " fill="#7DF57F" transform="translate(186.265625,167.84375)"/>
<path d="M0 0 C0.33 0 0.66 0 1 0 C1 4.95 1 9.9 1 15 C2.69769531 14.98259766 2.69769531 14.98259766 4.4296875 14.96484375 C5.91145669 14.95546546 7.39322765 14.9463653 8.875 14.9375 C9.62136719 14.92912109 10.36773437 14.92074219 11.13671875 14.91210938 C16.7734375 14.88671875 16.7734375 14.88671875 19 16 C18.505 17.485 18.505 17.485 18 19 C-6.09 19 -30.18 19 -55 19 C-55 18.67 -55 18.34 -55 18 C-36.52 18 -18.04 18 1 18 C0.505 17.01 0.505 17.01 0 16 C-0.07181821 13.28239892 -0.09299506 10.59140612 -0.0625 7.875 C-0.05798828 7.12089844 -0.05347656 6.36679688 -0.04882812 5.58984375 C-0.03703499 3.72652873 -0.01909942 1.86325445 0 0 Z " fill="#53A835" transform="translate(196,88)"/>
<path d="M0 0 C0.71873795 -0.00524185 1.43747589 -0.0104837 2.17799377 -0.0158844 C3.69685577 -0.02230231 5.21576748 -0.0209705 6.73461914 -0.01245117 C9.05510311 -0.00394767 11.37311911 -0.03268925 13.69335938 -0.06445312 C15.17057218 -0.06606549 16.64778933 -0.06548694 18.125 -0.0625 C18.81677841 -0.07373398 19.50855682 -0.08496796 20.22129822 -0.09654236 C23.42189521 -0.05040026 25.38971505 0.2792181 28.09790039 2.02709961 C29.62890625 4.43359375 29.62890625 4.43359375 29.62890625 11.43359375 C16.09890625 11.43359375 2.56890625 11.43359375 -11.37109375 11.43359375 C-10.37109375 3.43359375 -10.37109375 3.43359375 -9.26928711 1.46069336 C-6.29671498 -0.14774535 -3.29687748 -0.01394985 0 0 Z M-8.30883789 2.64160156 C-9.79602812 4.80324861 -9.79602812 4.80324861 -9.37109375 9.43359375 C2.83890625 9.43359375 15.04890625 9.43359375 27.62890625 9.43359375 C27.13390625 5.96859375 27.13390625 5.96859375 26.62890625 2.43359375 C22.22898669 0.23363397 16.28938204 1.20649449 11.39819336 1.19335938 C9.20322892 1.18364607 7.00919803 1.15261966 4.81445312 1.12109375 C3.42057848 1.11456427 2.02669714 1.10931358 0.6328125 1.10546875 C-0.63747803 1.09612305 -1.90776855 1.08677734 -3.21655273 1.07714844 C-6.30026316 1.19641459 -6.30026316 1.19641459 -8.30883789 2.64160156 Z " fill="#D1977E" transform="translate(59.37109375,37.56640625)"/>
<path d="M0 0 C0.495 1.485 0.495 1.485 1 3 C0.34 3.66 -0.32 4.32 -1 5 C-1.33 5.845625 -1.66 6.69125 -2 7.5625 C-3 10 -3 10 -5 11 C-7.38246038 14.52672451 -7.35959557 18.02148347 -7.5625 22.1875 C-7.90130152 28.90130152 -7.90130152 28.90130152 -9 30 C-11.8843382 30.08865208 -14.74462158 30.11521296 -17.62890625 30.09765625 C-18.92525246 30.09553383 -18.92525246 30.09553383 -20.24778748 30.09336853 C-23.01939292 30.08775239 -25.7909188 30.07519719 -28.5625 30.0625 C-30.4368478 30.05748708 -32.31119685 30.05292381 -34.18554688 30.04882812 C-38.79039544 30.03777772 -43.39518421 30.0205023 -48 30 C-48 29.01 -48 28.02 -48 27 C-47.67 27.33 -47.34 27.66 -47 28 C-44.3337397 28.08855161 -41.69352886 28.11524673 -39.02734375 28.09765625 C-38.22970108 28.0962413 -37.43205841 28.09482635 -36.61024475 28.09336853 C-34.05262565 28.08775316 -31.49509282 28.07519812 -28.9375 28.0625 C-27.20768355 28.05748698 -25.47786574 28.05292373 -23.74804688 28.04882812 C-19.49863761 28.03862791 -15.24941584 28.01905568 -11 28 C-10.67 20.41 -10.34 12.82 -10 5 C-8.35 5 -6.7 5 -5 5 C-2.18668622 2.60416349 -2.18668622 2.60416349 0 0 Z " fill="#BC483F" transform="translate(99,188)"/>
<path d="M0 0 C0.99 0.66 1.98 1.32 3 2 C3.46411133 4.58203125 3.46411133 4.58203125 3.58203125 7.8125 C3.62650391 8.97007812 3.67097656 10.12765625 3.71679688 11.3203125 C3.74837891 12.53460938 3.77996094 13.74890625 3.8125 15 C3.86341797 16.21429688 3.91433594 17.42859375 3.96679688 18.6796875 C4.18647735 25.36690999 4.18647735 25.36690999 4 28 C3.34 28.66 2.68 29.32 2 30 C0.35 29.67 -1.3 29.34 -3 29 C-3 25.37 -3 21.74 -3 18 C-2.34 18 -1.68 18 -1 18 C-1.01160156 16.78441406 -1.02320313 15.56882813 -1.03515625 14.31640625 C-1.04453278 12.73177236 -1.05363313 11.14713682 -1.0625 9.5625 C-1.07506836 8.35883789 -1.07506836 8.35883789 -1.08789062 7.13085938 C-1.0965143 5.08704779 -1.0522815 3.04316098 -1 1 C-0.67 0.67 -0.34 0.34 0 0 Z " fill="#75A4EF" transform="translate(137,182)"/>
<path d="M0 0 C1.32 0 2.64 0 4 0 C4 1.32 4 2.64 4 4 C4.66 4.33 5.32 4.66 6 5 C5 6 5 6 2.93359375 6.09765625 C2.10988281 6.08605469 1.28617188 6.07445313 0.4375 6.0625 C-0.38878906 6.05347656 -1.21507813 6.04445313 -2.06640625 6.03515625 C-2.70449219 6.02355469 -3.34257813 6.01195313 -4 6 C-4 7.32 -4 8.64 -4 10 C-4.66 10 -5.32 10 -6 10 C-5.67 12.31 -5.34 14.62 -5 17 C-5.66 17 -6.32 17 -7 17 C-7 17.66 -7 18.32 -7 19 C-8.65 19 -10.3 19 -12 19 C-12.33 17.35 -12.66 15.7 -13 14 C-12.01 13.34 -11.02 12.68 -10 12 C-9.42006301 9.80545319 -9.42006301 9.80545319 -9.3125 7.375 C-9.21388672 6.14910156 -9.21388672 6.14910156 -9.11328125 4.8984375 C-9.05720703 3.95871094 -9.05720703 3.95871094 -9 3 C-8.43410156 2.86722656 -7.86820312 2.73445313 -7.28515625 2.59765625 C-6.18494141 2.33275391 -6.18494141 2.33275391 -5.0625 2.0625 C-4.33160156 1.88847656 -3.60070312 1.71445313 -2.84765625 1.53515625 C-1.00030102 1.16112431 -1.00030102 1.16112431 0 0 Z " fill="#F5D221" transform="translate(79,65)"/>
<path d="M0 0 C0.33 0 0.66 0 1 0 C1.06058594 0.65226563 1.12117187 1.30453125 1.18359375 1.9765625 C1.63519991 6.68716217 2.14195039 11.34201638 3 16 C4.98 15.67 6.96 15.34 9 15 C9.33 15.99 9.66 16.98 10 18 C10.66 18 11.32 18 12 18 C12 18.66 12 19.32 12 20 C12.99 20.33 13.98 20.66 15 21 C14.67 21.99 14.34 22.98 14 24 C11.9375 24.6875 11.9375 24.6875 10 25 C9.66781808 28.00259517 9.66781808 28.00259517 11.5 29.6875 C11.995 30.120625 12.49 30.55375 13 31 C10 31 10 31 8.28125 29.56640625 C0.00504813 20.25567914 -0.47018776 12.24229601 0 0 Z " fill="#2AC07B" transform="translate(147,176)"/>
<path d="M0 0 C4.62 0 9.24 0 14 0 C14 2.97 14 5.94 14 9 C9.38 9 4.76 9 0 9 C0 6.03 0 3.06 0 0 Z " fill="#FED21F" transform="translate(197,72)"/>
<path d="M0 0 C13.2 0 26.4 0 40 0 C40 6 40 6 38.43945312 8.34619141 C35.14645981 10.57865105 32.92957554 10.48692851 28.96875 10.4609375 C28.29581909 10.46002106 27.62288818 10.45910461 26.92956543 10.4581604 C25.51075155 10.45213453 24.0919498 10.43641859 22.67333984 10.41162109 C20.5070078 10.37511808 18.34238876 10.3706019 16.17578125 10.37109375 C4.64878641 10.28905406 4.64878641 10.28905406 1 8 C1 7.34 1 6.68 1 6 C1.99 6.33 2.98 6.66 4 7 C6.43780377 7.15269181 8.85283901 7.25682697 11.29296875 7.31640625 C11.99899734 7.33718735 12.70502594 7.35796844 13.43244934 7.37937927 C15.68403551 7.44467491 17.93573662 7.50366647 20.1875 7.5625 C21.7155066 7.60570425 23.24350164 7.64931916 24.77148438 7.69335938 C28.51420562 7.80033574 32.2570423 7.90165922 36 8 C35.505 6.515 35.505 6.515 35 5 C35.99 4.67 36.98 4.34 38 4 C38.33 3.01 38.66 2.02 39 1 C26.13 1 13.26 1 0 1 C0 0.67 0 0.34 0 0 Z " fill="#C68891" transform="translate(49,100)"/>
<path d="M0 0 C0.66 0.33 1.32 0.66 2 1 C1.505 1.86625 1.01 2.7325 0.5 3.625 C-2.28895514 10.2037315 -2.11712607 18.25690226 -0.09765625 25.0234375 C0.59581498 26.70652426 1.33190962 28.37321606 2.125 30.01171875 C3 32 3 32 3 35 C2.38125 34.67 1.7625 34.34 1.125 34 C-0.91018344 32.85806765 -0.91018344 32.85806765 -3 33 C-2.97679687 32.38511719 -2.95359375 31.77023438 -2.9296875 31.13671875 C-2.91164062 30.32847656 -2.89359375 29.52023438 -2.875 28.6875 C-2.85179687 27.88699219 -2.82859375 27.08648437 -2.8046875 26.26171875 C-2.84182678 23.71611424 -2.84182678 23.71611424 -5 21 C-5.66 22.98 -6.32 24.96 -7 27 C-7.33 27 -7.66 27 -8 27 C-8.08117951 24.58265458 -8.14056926 22.16805051 -8.1875 19.75 C-8.21263672 19.06808594 -8.23777344 18.38617188 -8.26367188 17.68359375 C-8.326069 13.3989909 -7.91639878 11.15147374 -5 8 C-4.67 7.154375 -4.34 6.30875 -4 5.4375 C-2.98742892 2.96935799 -1.99633578 1.72410817 0 0 Z " fill="#0B7BD6" transform="translate(149,168)"/>
<path d="M0 0 C0.96912042 3.27078142 1 5.39035432 1 9 C-3.62 9 -8.24 9 -13 9 C-13 6.36 -13 3.72 -13 1 C-8.60563789 0.14256349 -4.47427924 -0.08948558 0 0 Z " fill="#FCD01A" transform="translate(211,52)"/>
<path d="M0 0 C2.97 0 5.94 0 9 0 C9 0.66 9 1.32 9 2 C9.99 1.67 10.98 1.34 12 1 C12.02693575 3.12493141 12.04636628 5.24995912 12.0625 7.375 C12.07410156 8.55835938 12.08570312 9.74171875 12.09765625 10.9609375 C12 14 12 14 11 16 C11.66 16 12.32 16 13 16 C13 16.66 13 17.32 13 18 C18.71735105 20.45029331 22.79029227 21.33266291 29 21 C29 22.65 29 24.3 29 26 C30.32 26.66 31.64 27.32 33 28 C32.67 28.66 32.34 29.32 32 30 C31.47792969 29.60167969 30.95585938 29.20335937 30.41796875 28.79296875 C25.28135607 25.09568712 20.74297257 23.10830786 14.59765625 21.65625 C11.18664981 20.79452206 8.18226747 19.48505815 5 18 C5 17.34 5 16.68 5 16 C5.639375 15.71125 6.27875 15.4225 6.9375 15.125 C9.15206079 14.17176549 9.15206079 14.17176549 10 12 C10.38681451 8.44130654 10.46190157 6.65732147 8.375 3.6875 C5.56041967 1.68766661 3.40680413 1.30970947 0 1 C0 0.67 0 0.34 0 0 Z " fill="#D8564C" transform="translate(66,145)"/>
<path d="M0 0 C0.71244873 -0.00043808 1.42489746 -0.00087616 2.15893555 -0.00132751 C4.5128931 0.00076187 6.86613764 0.02409903 9.2199707 0.04760742 C10.85235708 0.05320287 12.4847485 0.05747321 14.11714172 0.06047058 C18.41299353 0.07192347 22.70854091 0.1013943 27.00427246 0.13458252 C31.38797894 0.16527393 35.77173462 0.17897392 40.15551758 0.1940918 C48.75656872 0.22626373 57.35737246 0.27746524 65.95825195 0.34057617 C65.62825195 1.33057617 65.29825195 2.32057617 64.95825195 3.34057617 C59.34825195 3.34057617 53.73825195 3.34057617 47.95825195 3.34057617 C47.95825195 3.01057617 47.95825195 2.68057617 47.95825195 2.34057617 C40.34107167 2.31524072 32.72390224 2.29771542 25.10668945 2.28564453 C22.51488845 2.28061285 19.92309028 2.2737869 17.33129883 2.26513672 C13.6079844 2.25302027 9.88470748 2.24733622 6.16137695 2.24291992 C5.00083801 2.23775864 3.84029907 2.23259735 2.64459229 2.22727966 C1.5637738 2.22720413 0.48295532 2.2271286 -0.63061523 2.22705078 C-1.58103699 2.22483017 -2.53145874 2.22260956 -3.51068115 2.22032166 C-5.83948292 2.33096627 -7.81382081 2.6797548 -10.04174805 3.34057617 C-7.31753952 -0.46012242 -4.43264293 -0.022888 0 0 Z " fill="#56A234" transform="translate(149.041748046875,84.659423828125)"/>
<path d="M0 0 C0.98569473 -0.00043808 1.97138947 -0.00087616 2.98695374 -0.00132751 C6.24443379 0.00076221 9.50139894 0.02410237 12.75878906 0.04760742 C15.01751423 0.05320271 17.27624304 0.05747313 19.53497314 0.06047058 C25.47969618 0.07192457 31.4241993 0.10139676 37.36883545 0.13458252 C43.43498764 0.16527132 49.50117537 0.17897339 55.56738281 0.1940918 C67.46982318 0.22626573 79.37210033 0.27746897 91.27441406 0.34057617 C91.27441406 0.67057617 91.27441406 1.00057617 91.27441406 1.34057617 C90.03857574 1.34866302 88.80273743 1.35674988 87.52944946 1.36508179 C75.90422423 1.4424399 64.27911753 1.53015269 52.65404701 1.62810326 C46.67694054 1.67812967 40.69985229 1.72445901 34.72265625 1.76245117 C28.95840722 1.79922397 23.19430838 1.84556177 17.43018723 1.89863968 C15.22690836 1.91722632 13.02359725 1.93231834 10.82027054 1.94392014 C7.7431411 1.96070971 4.66635889 1.98972669 1.58935547 2.02172852 C0.67082291 2.0238887 -0.24770966 2.02604889 -1.19407654 2.02827454 C-2.02982712 2.03943802 -2.8655777 2.0506015 -3.72665405 2.06210327 C-4.81897874 2.07039941 -4.81897874 2.07039941 -5.93337059 2.07886314 C-7.9785886 2.19523715 -7.9785886 2.19523715 -9.72558594 4.34057617 C-11.85058594 3.96557617 -11.85058594 3.96557617 -13.72558594 3.34057617 C-9.850956 -0.77497594 -5.24921068 -0.06087574 0 0 Z " fill="#ACADDD" transform="translate(29.7255859375,17.659423828125)"/>
<path d="M0 0 C0.7734375 1.4540625 0.7734375 1.4540625 1.5625 2.9375 C3.65173571 6.2149026 3.65173571 6.2149026 6.69921875 6.62109375 C9.47494864 6.8521084 12.21513259 6.99039701 15 7 C13 9 13 9 9.125 9.3125 C6.26033786 9.2447898 5.07362374 9.04049306 2.5 7.625 C1 6 1 6 1 4 C0.01 4 -0.98 4 -2 4 C-2 3.34 -2 2.68 -2 2 C-2.75925781 2.27714844 -3.51851562 2.55429688 -4.30078125 2.83984375 C-5.29464844 3.20207031 -6.28851563 3.56429687 -7.3125 3.9375 C-8.29863281 4.29714844 -9.28476562 4.65679687 -10.30078125 5.02734375 C-12.1920563 5.70885965 -14.09284329 6.3642811 -16 7 C-16 7.99 -16 8.98 -16 10 C-16.66 10 -17.32 10 -18 10 C-18 10.66 -18 11.32 -18 12 C-18.66 12 -19.32 12 -20 12 C-19.51515724 16.64586892 -19.51515724 16.64586892 -18 21 C-19.9375 20.4375 -19.9375 20.4375 -22 19 C-23.375 15.9375 -23.375 15.9375 -23 12 C-17.02973741 4.43683122 -9.64010994 0 0 0 Z " fill="#6BA563" transform="translate(57,167)"/>
<path d="M0 0 C2.4375 0.8125 2.4375 0.8125 4.4375 2.8125 C4.6875 6.3125 4.6875 6.3125 4.4375 9.8125 C2.4375 11.8125 2.4375 11.8125 0 12.1875 C-2.5625 11.8125 -2.5625 11.8125 -4.375 10.125 C-5.78242268 7.38422952 -6.03023289 5.85276376 -5.5625 2.8125 C-3.86282344 0.12880016 -3.19877434 -0.23405666 0 0 Z " fill="#1F96C0" transform="translate(80.5625,72.1875)"/>
<path d="M0 0 C0.6953125 1.7890625 0.6953125 1.7890625 1 4 C-0.2578125 5.7109375 -0.2578125 5.7109375 -2.125 7.375 C-5.39259781 10.40685929 -8.20656219 13.52936514 -11 17 C-10.34 17.33 -9.68 17.66 -9 18 C-9 18.66 -9 19.32 -9 20 C-22.86 19.505 -22.86 19.505 -37 19 C-36.67 18.34 -36.34 17.68 -36 17 C-34.75863281 17.03480469 -33.51726562 17.06960937 -32.23828125 17.10546875 C-30.59636774 17.13361584 -28.95443954 17.16091501 -27.3125 17.1875 C-26.49587891 17.21263672 -25.67925781 17.23777344 -24.83789062 17.26367188 C-19.95245915 17.3230091 -17.075923 16.96926704 -13 14 C-12.34 14 -11.68 14 -11 14 C-11 13.34 -11 12.68 -11 12 C-9.35546875 10.44921875 -9.35546875 10.44921875 -7.1875 8.6875 C-4.06609608 6.04673704 -1.80988139 3.73288036 0 0 Z " fill="#0779BF" transform="translate(203,196)"/>
<path d="M0 0 C0.33 0 0.66 0 1 0 C2.09857724 6.1676029 2.11539104 12.18415123 2.0625 18.4375 C2.05798828 19.45521484 2.05347656 20.47292969 2.04882812 21.52148438 C2.03712437 24.01438509 2.02072848 26.50716074 2 29 C0.68 29 -0.64 29 -2 29 C-2.22432963 9.35869486 -2.22432963 9.35869486 -1 1 C-0.67 0.67 -0.34 0.34 0 0 Z " fill="#7BA3EC" transform="translate(214,181)"/>
<path d="M0 0 C10.23 0 20.46 0 31 0 C31.33 0.66 31.66 1.32 32 2 C23.42 2.33 14.84 2.66 6 3 C9.3 3.33 12.6 3.66 16 4 C16 4.33 16 4.66 16 5 C13.89722877 5.22197585 11.79267698 5.42713637 9.6875 5.625 C8.51574219 5.74101563 7.34398437 5.85703125 6.13671875 5.9765625 C3 6 3 6 0 4 C0 2.68 0 1.36 0 0 Z " fill="#EF7661" transform="translate(50,102)"/>
<path d="M0 0 C0.33 0.66 0.66 1.32 1 2 C1.845625 1.649375 2.69125 1.29875 3.5625 0.9375 C7.56349532 -0.15368054 9.99684136 -0.03785594 14 1 C16.4375 3.0625 16.4375 3.0625 18 5 C14.18365489 7.69389067 11.67039834 8.66719976 7 8 C1.40633245 5.04485488 1.40633245 5.04485488 0.125 1.75 C0.08375 1.1725 0.0425 0.595 0 0 Z " fill="#DA5250" transform="translate(59,166)"/>
<path d="M0 0 C2.875 2.125 2.875 2.125 5 5 C5.57991403 9.14224306 5.34549674 10.48175489 3 14 C2.34 14 1.68 14 1 14 C1.66 12.35 2.32 10.7 3 9 C2.34 9 1.68 9 1 9 C0.34 7.68 -0.32 6.36 -1 5 C-2.65 5.33 -4.3 5.66 -6 6 C-6.33 6.99 -6.66 7.98 -7 9 C-7.99 9 -8.98 9 -10 9 C-9.40425532 3.63829787 -9.40425532 3.63829787 -7.8125 1.125 C-5.00893449 -0.61514411 -3.23330397 -0.51732864 0 0 Z " fill="#F8D9D6" transform="translate(72,146)"/>
<path d="M0 0 C0.99 0.33 1.98 0.66 3 1 C3 1.66 3 2.32 3 3 C4.32 3 5.64 3 7 3 C6.67 5.64 6.34 8.28 6 11 C-8.52 11 -23.04 11 -38 11 C-38 10.67 -38 10.34 -38 10 C-24.8 10 -11.6 10 2 10 C1.2981424 3.59628479 1.2981424 3.59628479 0 0 Z " fill="#556F99" transform="translate(87,39)"/>
<path d="M0 0 C0.495 1.485 0.495 1.485 1 3 C-0.2375 2.67 -1.475 2.34 -2.75 2 C-11.66376808 0.08291016 -19.61361133 -0.19469203 -27.73046875 4.35546875 C-31.44610774 7.04786809 -34.26043095 10.34421746 -37 14 C-37.33 13.01 -37.66 12.02 -38 11 C-36.92578125 9.24609375 -36.92578125 9.24609375 -35.3125 7.4375 C-34.79300781 6.83808594 -34.27351562 6.23867187 -33.73828125 5.62109375 C-31.9291094 3.93388854 -30.20464603 3.08143689 -28 2 C-27.67 1.34 -27.34 0.68 -27 0 C-17.88264504 -3.23197265 -9.18279209 -2.10752605 0 0 Z " fill="#0A86BD" transform="translate(189,154)"/>
<path d="M0 0 C5.94 0 11.88 0 18 0 C15 4 15 4 12.9375 4.75 C8.62305337 5.11718695 4.32693504 5.07561634 0 5 C0 3.35 0 1.7 0 0 Z " fill="#F1B518" transform="translate(198,89)"/>
<path d="M0 0 C4.78715623 -0.07415168 9.57397827 -0.12860204 14.36157227 -0.16479492 C15.99021223 -0.17988243 17.61881156 -0.20035506 19.24731445 -0.22631836 C21.58815535 -0.26270449 23.92845919 -0.2797262 26.26953125 -0.29296875 C26.99775589 -0.30845261 27.72598053 -0.32393646 28.47627258 -0.33988953 C33.55384196 -0.34158031 33.55384196 -0.34158031 35.9831543 1.51831055 C36.31871338 2.00726807 36.65427246 2.49622559 37 3 C35.95021973 2.99476318 34.90043945 2.98952637 33.81884766 2.98413086 C29.93132375 2.96605761 26.04380356 2.95455946 22.15625 2.94506836 C20.47232438 2.94003347 18.78840314 2.93320519 17.10449219 2.92456055 C14.68683797 2.91245804 12.26924144 2.90676332 9.8515625 2.90234375 C9.0963028 2.89718246 8.34104309 2.89202118 7.56289673 2.88670349 C3.65351891 2.80679812 3.65351891 2.80679812 0 4 C0 2.68 0 1.36 0 0 Z " fill="#7C608C" transform="translate(50,36)"/>
<path d="M0 0 C0.66 0.33 1.32 0.66 2 1 C2.625 3.0625 2.625 3.0625 3 5 C6.38018531 6.04005702 9.4780279 6.08004482 13 6 C13.33 6.99 13.66 7.98 14 9 C9.7157464 10.1684328 6.35203283 9.63302296 2 9 C1.2575 9.20625 0.515 9.4125 -0.25 9.625 C-0.8275 9.74875 -1.405 9.8725 -2 10 C-3.75 8.5625 -3.75 8.5625 -5 7 C-4.34 6.01 -3.68 5.02 -3 4 C-3 4.66 -3 5.32 -3 6 C-2.01 6 -1.02 6 0 6 C0 4.02 0 2.04 0 0 Z M-2 2 C-1.67 2.66 -1.34 3.32 -1 4 C-1.66 3.67 -2.32 3.34 -3 3 C-2.67 2.67 -2.34 2.34 -2 2 Z " fill="#1F90C0" transform="translate(69,86)"/>
<path d="M0 0 C1.98 1.65 3.96 3.3 6 5 C5.8125 6.8125 5.8125 6.8125 5 9 C2.4375 10.75 2.4375 10.75 0 12 C0 11.01 0 10.02 0 9 C-0.99 9 -1.98 9 -3 9 C-3.36923077 3.46153846 -3.36923077 3.46153846 -1.5 1.125 C-1.005 0.75375 -0.51 0.3825 0 0 Z " fill="#2DC06F" transform="translate(99,176)"/>
<path d="M0 0 C0.33 0 0.66 0 1 0 C1 4.95 1 9.9 1 15 C6.28 15 11.56 15 17 15 C17 15.99 17 16.98 17 18 C11.72 18 6.44 18 1 18 C-0.59412284 14.81175432 -0.10174735 11.37103338 -0.0625 7.875 C-0.05798828 7.12089844 -0.05347656 6.36679688 -0.04882812 5.58984375 C-0.03703499 3.72652873 -0.01909942 1.86325445 0 0 Z " fill="#41B550" transform="translate(196,88)"/>
<path d="M0 0 C0.66 0.33 1.32 0.66 2 1 C1.73958333 2.953125 1.47916667 4.90625 1.21875 6.859375 C0.93222643 9.30458395 0.93222643 9.30458395 1 13 C-0.32 13.33 -1.64 13.66 -3 14 C-3 14.66 -3 15.32 -3 16 C-3.66 16 -4.32 16 -5 16 C-6.15471692 11.91068404 -5.83617042 9.64156126 -4.1875 5.75 C-3.83042969 4.87859375 -3.47335938 4.0071875 -3.10546875 3.109375 C-2 1 -2 1 0 0 Z " fill="#515F9F" transform="translate(94,83)"/>
<path d="M0 0 C1.67542976 0.28604898 3.34385343 0.61781233 5 1 C5.33 2.65 5.66 4.3 6 6 C4.02 7.32 2.04 8.64 0 10 C-1.32 8.68 -2.64 7.36 -4 6 C-3.34 5.67 -2.68 5.34 -2 5 C-1.6278958 3.67696283 -1.29369827 2.34262065 -1 1 C-0.67 0.67 -0.34 0.34 0 0 Z " fill="#EB5656" transform="translate(67,150)"/>
<path d="M0 0 C1.125 3.75 1.125 3.75 0 6 C-0.06146655 8.00949748 -0.05994036 10.02107695 -0.02734375 12.03125 C-0.01509766 13.23394531 -0.00285156 14.43664062 0.00976562 15.67578125 C0.04492266 18.22531726 0.08398543 20.77480241 0.12695312 23.32421875 C0.13791016 24.52691406 0.14886719 25.72960937 0.16015625 26.96875 C0.17699463 28.07669922 0.19383301 29.18464844 0.21118164 30.32617188 C0 33 0 33 -2 35 C-4.125 34.625 -4.125 34.625 -6 34 C-4.68 33.34 -3.36 32.68 -2 32 C-1.87711536 21.6094206 -2.16639406 11.36053092 -3 1 C-2.01 0.67 -1.02 0.34 0 0 Z " fill="#1374CA" transform="translate(219,178)"/>
<path d="M0 0 C0.33 0.99 0.66 1.98 1 3 C-0.5625 5.6875 -0.5625 5.6875 -3 8 C-4.98 8 -6.96 8 -9 8 C-9 14.6 -9 21.2 -9 28 C-9.33 28 -9.66 28 -10 28 C-10 20.41 -10 12.82 -10 5 C-8.35 5 -6.7 5 -5 5 C-2.18668622 2.60416349 -2.18668622 2.60416349 0 0 Z " fill="#975441" transform="translate(99,188)"/>
<path d="M0 0 C-2.97880885 0.99293628 -5.01601198 1.13406411 -8.125 1.125 C-9.01445312 1.12757813 -9.90390625 1.13015625 -10.8203125 1.1328125 C-13 1 -13 1 -14 0 C-16.01964199 -0.07244053 -18.04167124 -0.08377188 -20.0625 -0.0625 C-21.16722656 -0.05347656 -22.27195313 -0.04445312 -23.41015625 -0.03515625 C-24.26480469 -0.02355469 -25.11945313 -0.01195312 -26 0 C-19.61968692 -6.38031308 -7.39093392 -3.13554773 0 0 Z M-15 1 C-13 2 -13 2 -13 2 Z " fill="#2EC08B" transform="translate(190,157)"/>
<path d="M0 0 C0.99 0 1.98 0 3 0 C3.103125 0.928125 3.20625 1.85625 3.3125 2.8125 C3.6874679 5.99059542 3.6874679 5.99059542 5.625 7.5625 C6.07875 8.036875 6.5325 8.51125 7 9 C6.6875 11.6875 6.6875 11.6875 6 14 C5.67 13.01 5.34 12.02 5 11 C4.38125 10.87625 3.7625 10.7525 3.125 10.625 C1 10 1 10 -0.875 7.75 C-2 5 -2 5 -1.1875 2.1875 C-0.795625 1.465625 -0.40375 0.74375 0 0 Z " fill="#F5CF23" transform="translate(87,69)"/>
<path d="M0 0 C0.66 0 1.32 0 2 0 C2.33 1.32 2.66 2.64 3 4 C3.66 4 4.32 4 5 4 C6.20270964 6.40541929 6.20316663 8.10366591 6.31640625 10.7890625 C6.35830078 11.73007813 6.40019531 12.67109375 6.44335938 13.640625 C6.48267578 14.62546875 6.52199219 15.6103125 6.5625 16.625 C6.60568359 17.61757812 6.64886719 18.61015625 6.69335938 19.6328125 C6.79961069 22.08839838 6.90164964 24.54408703 7 27 C5.02 27.99 5.02 27.99 3 29 C3.165 28.071875 3.33 27.14375 3.5 26.1875 C4.80642681 16.49654294 3.90595876 9.01509232 0 0 Z " fill="#0578B5" transform="translate(201,167)"/>
<path d="M0 0 C0.33 0.66 0.66 1.32 1 2 C6.28 2 11.56 2 17 2 C16.67 2.99 16.34 3.98 16 5 C11.05 5 6.1 5 1 5 C0.67 3.35 0.34 1.7 0 0 Z " fill="#F8C71B" transform="translate(126,122)"/>
<path d="M0 0 C2 2 2 2 2 5 C2.66 5.33 3.32 5.66 4 6 C3.67 7.98 3.34 9.96 3 12 C3.99 12 4.98 12 6 12 C6 15.63 6 19.26 6 23 C5.67 23 5.34 23 5 23 C5 21.02 5 19.04 5 17 C3.68 16.34 2.36 15.68 1 15 C1.0825 13.906875 1.165 12.81375 1.25 11.6875 C1.41103961 7.96557142 1.41103961 7.96557142 -1 6.0625 C-1.66 5.711875 -2.32 5.36125 -3 5 C-2.01 4.67 -1.02 4.34 0 4 C0 2.68 0 1.36 0 0 Z " fill="#4F608C" transform="translate(91,60)"/>
<path d="M0 0 C2.97 0 5.94 0 9 0 C9 0.66 9 1.32 9 2 C9.99 1.67 10.98 1.34 12 1 C12.02693575 3.12493141 12.04636628 5.24995912 12.0625 7.375 C12.07410156 8.55835938 12.08570312 9.74171875 12.09765625 10.9609375 C12 14 12 14 11 16 C11.66 16.33 12.32 16.66 13 17 C10.39417629 17.93065133 9.35801776 18.14917407 6.75 17.0625 C5.88375 16.5365625 5.88375 16.5365625 5 16 C5.639375 15.71125 6.27875 15.4225 6.9375 15.125 C9.15206079 14.17176549 9.15206079 14.17176549 10 12 C10.38681451 8.44130654 10.46190157 6.65732147 8.375 3.6875 C5.56041967 1.68766661 3.40680413 1.30970947 0 1 C0 0.67 0 0.34 0 0 Z " fill="#D44848" transform="translate(66,145)"/>
<path d="M0 0 C7.5139627 0.2385385 12.22153395 2.13731764 18 7 C18.33 7.66 18.66 8.32 19 9 C16.03 8.505 16.03 8.505 13 8 C13 7.34 13 6.68 13 6 C11.02 6.33 9.04 6.66 7 7 C7 6.01 7 5.02 7 4 C6.34 3.67 5.68 3.34 5 3 C5 2.34 5 1.68 5 1 C3.35 1.33 1.7 1.66 0 2 C0 1.34 0 0.68 0 0 Z " fill="#5AAF68" transform="translate(80,167)"/>
<path d="M0 0 C0.33 0 0.66 0 1 0 C1 5.61 1 11.22 1 17 C-3.62 17 -8.24 17 -13 17 C-12.34 16.67 -11.68 16.34 -11 16 C-10.67 15.01 -10.34 14.02 -10 13 C-7 14 -7 14 -6 15 C-4.35 14.67 -2.7 14.34 -1 14 C-0.67 9.38 -0.34 4.76 0 0 Z " fill="#F49809" transform="translate(157,66)"/>
<path d="M0 0 C0.66 0.33 1.32 0.66 2 1 C3.28571429 7.42857143 3.28571429 7.42857143 2 10 C1.01 9.67 0.02 9.34 -1 9 C-1.33 8.01 -1.66 7.02 -2 6 C-4.31 6 -6.62 6 -9 6 C-8.67 5.01 -8.34 4.02 -8 3 C-5.36 2.67 -2.72 2.34 0 2 C0 1.34 0 0.68 0 0 Z " fill="#2D92B1" transform="translate(86,57)"/>
<path d="M0 0 C1.03725961 3.11177882 0.93467353 4.08734761 0.375 7.1875 C-0.23175795 12.09744919 0.52799249 15.71144152 3 20 C5.49958655 22.83459483 5.49958655 22.83459483 8 25 C8.33 25.66 8.66 26.32 9 27 C5.08304321 26.41971011 2.77966299 24.77966299 0 22 C-2.65387755 15.68124392 -3.09261011 8.41440661 -1 1.875 C-0.67 1.25625 -0.34 0.6375 0 0 Z " fill="#2EBC58" transform="translate(159,174)"/>
<path d="M0 0 C0.33 0 0.66 0 1 0 C1.1875 3.375 1.1875 3.375 1 7 C0.01 7.66 -0.98 8.32 -2 9 C-2.5 12 -2.5 12 -2 15 C-1.01 15.66 -0.02 16.32 1 17 C-1.4375 16.625 -1.4375 16.625 -4 16 C-5.26237731 13.47524538 -5.09856404 11.68799534 -5.0625 8.875 C-5.05347656 7.96492188 -5.04445312 7.05484375 -5.03515625 6.1171875 C-5.02355469 5.41851562 -5.01195312 4.71984375 -5 4 C-4.01 3.67 -3.02 3.34 -2 3 C-1.67 3.99 -1.34 4.98 -1 6 C-0.67 4.02 -0.34 2.04 0 0 Z " fill="#3391A1" transform="translate(68,69)"/>
<path d="M0 0 C3.5624827 -0.02913821 7.12493454 -0.04684529 10.6875 -0.0625 C12.19860352 -0.07506836 12.19860352 -0.07506836 13.74023438 -0.08789062 C14.71669922 -0.09111328 15.69316406 -0.09433594 16.69921875 -0.09765625 C18.04246216 -0.10551147 18.04246216 -0.10551147 19.4128418 -0.11352539 C22.03641759 0.00159802 24.44293053 0.41765715 27 1 C27 1.66 27 2.32 27 3 C13.14 2.505 13.14 2.505 -1 2 C-0.67 1.34 -0.34 0.68 0 0 Z " fill="#0678C7" transform="translate(167,213)"/>
<path d="M0 0 C0.99 0 1.98 0 3 0 C3 0.66 3 1.32 3 2 C2.34 2 1.68 2 1 2 C1.185625 2.9075 1.37125 3.815 1.5625 4.75 C2.36767612 10.17375579 1.57821839 15.58253845 1 21 C0.34 21 -0.32 21 -1 21 C-1.0270203 18.24993392 -1.04684883 15.50013454 -1.0625 12.75 C-1.07087891 11.97269531 -1.07925781 11.19539062 -1.08789062 10.39453125 C-1.09111328 9.64042969 -1.09433594 8.88632813 -1.09765625 8.109375 C-1.10289307 7.41811523 -1.10812988 6.72685547 -1.11352539 6.01464844 C-0.99437971 3.90026102 -0.57618237 2.03358485 0 0 Z " fill="#20CB6F" transform="translate(53,194)"/>
<path d="M0 0 C0.7734375 1.4540625 0.7734375 1.4540625 1.5625 2.9375 C3.65173571 6.2149026 3.65173571 6.2149026 6.69921875 6.62109375 C9.47494864 6.8521084 12.21513259 6.99039701 15 7 C13 9 13 9 9.125 9.3125 C6.26033786 9.2447898 5.07362374 9.04049306 2.5 7.625 C1 6 1 6 1 4 C0.01 4 -0.98 4 -2 4 C-2 3.34 -2 2.68 -2 2 C-3.98 2.33 -5.96 2.66 -8 3 C-6.23110084 -0.53779831 -3.70375662 0 0 0 Z " fill="#61AB60" transform="translate(57,167)"/>
<path d="M0 0 C0.33 0 0.66 0 1 0 C1.02578125 0.67804688 1.0515625 1.35609375 1.078125 2.0546875 C1.45690292 8.27008888 2.57389319 13.23671958 5.16015625 18.90625 C6 21 6 21 6 24 C5.38125 23.67 4.7625 23.34 4.125 23 C2.08981656 21.85806765 2.08981656 21.85806765 0 22 C0 14.74 0 7.48 0 0 Z " fill="#0881AB" transform="translate(146,179)"/>
<path d="M0 0 C4.67248931 2.82522609 7.65996398 5.67760044 11 10 C10.67 10.66 10.34 11.32 10 12 C8.14453125 9.70507812 8.14453125 9.70507812 6.2890625 7.41015625 C5.0333609 5.86733563 5.0333609 5.86733563 3 5 C2.67 5.99 2.34 6.98 2 8 C1.34 7.01 0.68 6.02 0 5 C-1.32 5 -2.64 5 -4 5 C-3.67 4.01 -3.34 3.02 -3 2 C-2.01 2 -1.02 2 0 2 C0 1.34 0 0.68 0 0 Z " fill="#2BBF85" transform="translate(191,158)"/>
<path d="M0 0 C0.99 0.33 1.98 0.66 3 1 C3.3125 3.8125 3.3125 3.8125 3 7 C0.61107499 8.88599343 -0.91851558 10 -4 10 C-4.33 8.02 -4.66 6.04 -5 4 C-4.34 3.67 -3.68 3.34 -3 3 C-2.01 3.33 -1.02 3.66 0 4 C0 2.68 0 1.36 0 0 Z " fill="#F8D035" transform="translate(93,76)"/>
<path d="M0 0 C1.98 0 3.96 0 6 0 C6 6.93 6 13.86 6 21 C5.67 21 5.34 21 5 21 C4.95101562 19.92878906 4.90203125 18.85757813 4.8515625 17.75390625 C4.77654706 16.35674361 4.7009987 14.9596095 4.625 13.5625 C4.5940625 12.85544922 4.563125 12.14839844 4.53125 11.41992188 C4.42719371 9.60760812 4.22080108 7.80182012 4 6 C3.34 5.67 2.68 5.34 2 5 C2 4.34 2 3.68 2 3 C1.34 3 0.68 3 0 3 C0 2.01 0 1.02 0 0 Z " fill="#B95441" transform="translate(44,194)"/>
<path d="M0 0 C0.33 0 0.66 0 1 0 C1 1.65 1 3.3 1 5 C1.66 5.33 2.32 5.66 3 6 C-0.61973402 7.31626692 -3.09567131 8 -7 8 C-6.6875 6.125 -6.6875 6.125 -6 4 C-3 2 -3 2 0 2 C0 1.34 0 0.68 0 0 Z " fill="#F6D6D1" transform="translate(67,160)"/>
<path d="M0 0 C0.66 0 1.32 0 2 0 C2 0.66 2 1.32 2 2 C4.31 2 6.62 2 9 2 C9.33 2.99 9.66 3.98 10 5 C5.38 5 0.76 5 -4 5 C-2.68 3.35 -1.36 1.7 0 0 Z " fill="#FCD526" transform="translate(202,56)"/>
<path d="M0 0 C0.66 0.33 1.32 0.66 2 1 C1.01 2.485 1.01 2.485 0 4 C-0.46831818 9.05783638 0.05180791 11.87253108 3 16 C3.33 16.66 3.66 17.32 4 18 C-1.2295082 15.6557377 -1.2295082 15.6557377 -3 13 C-3.52484062 7.57664697 -3.36359242 4.48478989 0 0 Z " fill="#CCD43B" transform="translate(135,88)"/>
<path d="M0 0 C2.31 0.33 4.62 0.66 7 1 C7.33 1.99 7.66 2.98 8 4 C4.25 7 4.25 7 2 7 C2 6.01 2 5.02 2 4 C1.34 4 0.68 4 0 4 C0 2.68 0 1.36 0 0 Z " fill="#78A3EC" transform="translate(133,173)"/>
<path d="M0 0 C0.66 0 1.32 0 2 0 C2.309375 1.11375 2.61875 2.2275 2.9375 3.375 C3.82326483 6.7945155 3.82326483 6.7945155 5 9 C3.68 9.33 2.36 9.66 1 10 C0.67 11.65 0.34 13.3 0 15 C-1 13 -2 11 -3 9 C-2.34 9 -1.68 9 -1 9 C-0.67 6.03 -0.34 3.06 0 0 Z " fill="#E4DB4C" transform="translate(73,75)"/>
<path d="M0 0 C0.99 0 1.98 0 3 0 C3 4.95 3 9.9 3 15 C2.01 15 1.02 15 0 15 C0 10.05 0 5.1 0 0 Z " fill="#3D6DBB" transform="translate(89,50)"/>
<path d="M0 0 C0.66 0.33 1.32 0.66 2 1 C2.125 4.375 2.125 4.375 2 8 C0 10 0 10 -2.5 10.3125 C-3.7375 10.1578125 -3.7375 10.1578125 -5 10 C-5.66 9.01 -6.32 8.02 -7 7 C-4.69 7 -2.38 7 0 7 C0 4.69 0 2.38 0 0 Z " fill="#388F95" transform="translate(83,74)"/>
<path d="M0 0 C6.0546875 -0.1953125 6.0546875 -0.1953125 8 0 C8.66 0.66 9.32 1.32 10 2 C12.31648799 3.03842565 14.64903024 4.0421975 17 5 C13.67669817 6.66165091 10.38356188 5.05698342 7 4 C4.61840685 3.07953435 2.3230628 2.06473712 0 1 C0 0.67 0 0.34 0 0 Z " fill="#CA5E4F" transform="translate(71,162)"/>
<path d="M0 0 C5.28 0 10.56 0 16 0 C15.01 0.495 15.01 0.495 14 1 C14 1.66 14 2.32 14 3 C11.69 3 9.38 3 7 3 C7 2.34 7 1.68 7 1 C4.69 1 2.38 1 0 1 C0 0.67 0 0.34 0 0 Z " fill="#F3323E" transform="translate(64,219)"/>
<path d="M0 0 C0.886875 0.185625 1.77375 0.37125 2.6875 0.5625 C5.91821398 1.17285221 5.91821398 1.17285221 8.75 0.4375 C9.4925 0.293125 10.235 0.14875 11 0 C11.66 0.66 12.32 1.32 13 2 C12.01 2 11.02 2 10 2 C10 2.66 10 3.32 10 4 C7.25 4.25 7.25 4.25 4 4 C1.625 2 1.625 2 0 0 Z " fill="#E94840" transform="translate(60,169)"/>
<path d="M0 0 C-0.66 1.98 -1.32 3.96 -2 6 C-2.99 6 -3.98 6 -5 6 C-5 5.01 -5 4.02 -5 3 C-5.66 3 -6.32 3 -7 3 C-6.67 2.01 -6.34 1.02 -6 0 C-3.42525708 -0.99667468 -2.51072708 -1.25536354 0 0 Z " fill="#34C161" transform="translate(143,88)"/>
<path d="M0 0 C0.99 0.66 1.98 1.32 3 2 C2.74438677 4.3431213 2.40729228 6.67843403 2 9 C1.01 9.495 1.01 9.495 0 10 C-1.125 5.25 -1.125 5.25 0 3 C-1.32 2.67 -2.64 2.34 -4 2 C-2.68 1.34 -1.36 0.68 0 0 Z " fill="#F5D01D" transform="translate(85,83)"/>
<path d="M0 0 C0.66 0.33 1.32 0.66 2 1 C-0.52956528 4.0916909 -3.22454612 4.90931332 -7 6 C-7 6.99 -7 7.98 -7 9 C-8.65 9.33 -10.3 9.66 -12 10 C-8.87562143 5.44361459 -5.02279976 2.2830908 0 0 Z " fill="#7F955F" transform="translate(48,168)"/>
<path d="M0 0 C0.66 0 1.32 0 2 0 C1.125 5.75 1.125 5.75 0 8 C-1.65 8 -3.3 8 -5 8 C-5.33 7.34 -5.66 6.68 -6 6 C-5.01 6 -4.02 6 -3 6 C-2.87625 5.38125 -2.7525 4.7625 -2.625 4.125 C-2 2 -2 2 0 0 Z " fill="#DED667" transform="translate(89,86)"/>
<path d="M0 0 C0.99 0.33 1.98 0.66 3 1 C2.690625 1.598125 2.38125 2.19625 2.0625 2.8125 C0.89790296 5.08956772 0.89790296 5.08956772 0 8 C-0.99 8 -1.98 8 -3 8 C-2.25 2.25 -2.25 2.25 0 0 Z " fill="#FAE6E1" transform="translate(65,147)"/>
<path d="M0 0 C0.99 0.33 1.98 0.66 3 1 C2.34 1.804375 1.68 2.60875 1 3.4375 C-1.72209596 7.43438034 -1.37338272 11.33271604 -1 16 C-1.66 15.67 -2.32 15.34 -3 15 C-3.55353075 4.44191344 -3.55353075 4.44191344 0 0 Z " fill="#FEBD2B" transform="translate(141,47)"/>
<path d="M0 0 C0.33 0 0.66 0 1 0 C2.61050328 10.15317287 2.61050328 10.15317287 0.0625 13.6875 C-0.618125 14.120625 -1.29875 14.55375 -2 15 C-2.04254356 13.00045254 -2.04080783 10.99958364 -2 9 C-1.67 8.67 -1.34 8.34 -1 8 C-0.76924918 6.65252916 -0.58846937 5.29622435 -0.4375 3.9375 C-0.293125 2.638125 -0.14875 1.33875 0 0 Z " fill="#0C77E0" transform="translate(144,181)"/>
<path d="M0 0 C-1.51671964 4.55015893 -5.16891053 6.50057264 -9 9 C-8.690625 8.401875 -8.38125 7.80375 -8.0625 7.1875 C-6.89790296 4.91043228 -6.89790296 4.91043228 -6 2 C-3 0 -3 0 0 0 Z " fill="#E92F3E" transform="translate(106,186)"/>
<path d="M0 0 C1.98 1.65 3.96 3.3 6 5 C5.67 6.32 5.34 7.64 5 9 C3.0625 7.875 3.0625 7.875 1 6 C0.25 2.8125 0.25 2.8125 0 0 Z " fill="#57AF68" transform="translate(99,176)"/>
<path d="M0 0 C2.125 0.375 2.125 0.375 4 1 C3.01 1 2.02 1 1 1 C1 2.65 1 4.3 1 6 C-2.28976808 7.09658936 -3.71303767 6.79953138 -7 6 C-6.21625 5.38125 -5.4325 4.7625 -4.625 4.125 C-2.03162353 2.10141339 -2.03162353 2.10141339 0 0 Z " fill="#3CBB66" transform="translate(81,168)"/>
<path d="M0 0 C2.31 0 4.62 0 7 0 C7 2.64 7 5.28 7 8 C6.67 7.34 6.34 6.68 6 6 C5.34 6 4.68 6 4 6 C3.896875 5.360625 3.79375 4.72125 3.6875 4.0625 C3.460625 3.381875 3.23375 2.70125 3 2 C2.01 1.67 1.02 1.34 0 1 C0 0.67 0 0.34 0 0 Z " fill="#147ED7" transform="translate(200,165)"/>
<path d="M0 0 C0.66 0 1.32 0 2 0 C2.226875 0.7425 2.45375 1.485 2.6875 2.25 C4.24407532 5.51139591 6.08518854 6.92894975 9 9 C6.8125 9.4375 6.8125 9.4375 4 9 C2.01558218 6.86004673 0.4976696 4.49824035 -1 2 C-0.67 1.34 -0.34 0.68 0 0 Z " fill="#DEAE72" transform="translate(57,165)"/>
<path d="M0 0 C2.97 0 5.94 0 9 0 C5.68987756 3.31012244 4.46840411 3.50351065 0 4 C0 2.68 0 1.36 0 0 Z " fill="#FBAD10" transform="translate(199,90)"/>
<path d="M0 0 C0.74609375 1.734375 0.74609375 1.734375 1 4 C-0.65234375 6.140625 -0.65234375 6.140625 -2.9375 8.25 C-3.68902344 8.95640625 -4.44054687 9.6628125 -5.21484375 10.390625 C-5.80394531 10.92171875 -6.39304688 11.4528125 -7 12 C-7.66 11.67 -8.32 11.34 -9 11 C-8.51789063 10.45730469 -8.03578125 9.91460937 -7.5390625 9.35546875 C-6.90742188 8.64003906 -6.27578125 7.92460937 -5.625 7.1875 C-4.68527344 6.12595703 -4.68527344 6.12595703 -3.7265625 5.04296875 C-1.859401 2.91196181 -1.859401 2.91196181 0 0 Z " fill="#067EA7" transform="translate(203,196)"/>
<path d="M0 0 C2 2 2 2 2.125 5.625 C2.08375 6.73875 2.0425 7.8525 2 9 C1.01 9.495 1.01 9.495 0 10 C-1.49106457 7.01787087 -1.11941467 4.28390342 -1 1 C-0.67 0.67 -0.34 0.34 0 0 Z " fill="#24C65F" transform="translate(149,178)"/>
<path d="M0 0 C2.64 0 5.28 0 8 0 C8.33 0.66 8.66 1.32 9 2 C6 4 6 4 2 4 C2 3.01 2 2.02 2 1 C1.34 0.67 0.68 0.34 0 0 Z " fill="#2AC669" transform="translate(168,156)"/>
<path d="M0 0 C0.33 0 0.66 0 1 0 C1.33 3.96 1.66 7.92 2 12 C0 11 0 11 -1 8 C-1.125 4.375 -1.125 4.375 -1 1 C-0.67 0.67 -0.34 0.34 0 0 Z " fill="#40B74D" transform="translate(135,91)"/>
<path d="M0 0 C0.66 0 1.32 0 2 0 C1.8125 2.3125 1.8125 2.3125 1 5 C-1.4375 6.875 -1.4375 6.875 -4 8 C-4.66 7.67 -5.32 7.34 -6 7 C-5.566875 6.5875 -5.13375 6.175 -4.6875 5.75 C-2.92450726 4.00719127 -2.92450726 4.00719127 -1.4375 1.8125 C-0.7259375 0.9153125 -0.7259375 0.9153125 0 0 Z " fill="#CDC08F" transform="translate(78,166)"/>
<path d="M0 0 C1.98 0.66 3.96 1.32 6 2 C5.67 2.66 5.34 3.32 5 4 C3.33333333 4.33333333 1.66666667 4.66666667 0 5 C-0.33 5.66 -0.66 6.32 -1 7 C-0.67 4.69 -0.34 2.38 0 0 Z " fill="#F4D21B" transform="translate(74,83)"/>
<path d="M0 0 C1.61648437 0.04060547 1.61648437 0.04060547 3.265625 0.08203125 C4.08546875 0.11683594 4.9053125 0.15164062 5.75 0.1875 C5.75 0.5175 5.75 0.8475 5.75 1.1875 C4.70199219 1.26097656 4.70199219 1.26097656 3.6328125 1.3359375 C2.72273438 1.41070313 1.81265625 1.48546875 0.875 1.5625 C-0.02992187 1.63210937 -0.93484375 1.70171875 -1.8671875 1.7734375 C-4.42941903 1.98318132 -4.42941903 1.98318132 -6.25 4.1875 C-8.375 3.8125 -8.375 3.8125 -10.25 3.1875 C-6.86416198 0.05642164 -4.53890538 -0.14800778 0 0 Z " fill="#AFB2D3" transform="translate(26.25,17.8125)"/>
<path d="M0 0 C0 0.99 0 1.98 0 3 C-0.99 3.495 -0.99 3.495 -2 4 C-3.13350534 6.01669827 -3.13350534 6.01669827 -4 8 C-4.33 8 -4.66 8 -5 8 C-5 5.69 -5 3.38 -5 1 C-3.35 0.67 -1.7 0.34 0 0 Z " fill="#EA2D3C" transform="translate(96,195)"/>
<path d="M0 0 C0.66 0.33 1.32 0.66 2 1 C0.49760034 4.61941735 -0.82145293 7.7321794 -3 11 C-3.75 7.75 -3.75 7.75 -4 4 C-2.0625 1.5625 -2.0625 1.5625 0 0 Z " fill="#087DC9" transform="translate(149,168)"/>
<path d="M0 0 C1.65 0 3.3 0 5 0 C5 2.64 5 5.28 5 8 C4.01 7.67 3.02 7.34 2 7 C2 5.02 2 3.04 2 1 C1.34 0.67 0.68 0.34 0 0 Z " fill="#E2CD55" transform="translate(88,68)"/>
<path d="M0 0 C2.5 2.3125 2.5 2.3125 5 5 C5 5.99 5 6.98 5 8 C4.38125 7.67 3.7625 7.34 3.125 7 C1.08981656 5.85806765 1.08981656 5.85806765 -1 6 C-0.67 4.02 -0.34 2.04 0 0 Z " fill="#077AC7" transform="translate(147,195)"/>
<path d="M0 0 C0.66 0 1.32 0 2 0 C1.67 1.65 1.34 3.3 1 5 C1.66 5 2.32 5 3 5 C3 5.66 3 6.32 3 7 C1.68 7 0.36 7 -1 7 C-1.625 4.625 -1.625 4.625 -2 2 C-1.34 1.34 -0.68 0.68 0 0 Z " fill="#EA895E" transform="translate(53,39)"/>
<path d="M0 0 C0 3.5747073 -0.55352838 4.46916729 -3 7 C-5.6875 7.75 -5.6875 7.75 -8 8 C-5.33333333 5.33333333 -2.66666667 2.66666667 0 0 Z " fill="#2EBB55" transform="translate(191,194)"/>
<path d="M0 0 C0.99 0.66 1.98 1.32 3 2 C-0.83325617 4.70582788 -3.32538149 5.32613618 -8 5 C-6.68 4.67 -5.36 4.34 -4 4 C-4 3.34 -4 2.68 -4 2 C-2.68 1.34 -1.36 0.68 0 0 Z " fill="#D24C47" transform="translate(74,169)"/>
<path d="M0 0 C2.64 0.33 5.28 0.66 8 1 C6.60804085 3.7839183 4.84424221 3.97898997 2 5 C2 4.34 2 3.68 2 3 C1.01 3 0.02 3 -1 3 C-0.67 2.01 -0.34 1.02 0 0 Z " fill="#E35049" transform="translate(40,167)"/>
<path d="M0 0 C1.65 0.33 3.3 0.66 5 1 C5.33 2.32 5.66 3.64 6 5 C5.67 4.34 5.34 3.68 5 3 C3.02 3 1.04 3 -1 3 C-0.67 2.01 -0.34 1.02 0 0 Z " fill="#CE494A" transform="translate(67,150)"/>
<path d="M0 0 C0.99 0.33 1.98 0.66 3 1 C3 2.98 3 4.96 3 7 C1.68 7.33 0.36 7.66 -1 8 C-0.67 5.36 -0.34 2.72 0 0 Z " fill="#E8D46C" transform="translate(93,76)"/>
<path d="M0 0 C0.99 0 1.98 0 3 0 C2 2 1 4 0 6 C-1.32 5.67 -2.64 5.34 -4 5 C-2.1875 2.5 -2.1875 2.5 0 0 Z " fill="#FEB71B" transform="translate(214,62)"/>
<path d="M0 0 C2.475 0.495 2.475 0.495 5 1 C5 2.65 5 4.3 5 6 C4.01 5.67 3.02 5.34 2 5 C2 4.34 2 3.68 2 3 C1.34 3 0.68 3 0 3 C0 2.01 0 1.02 0 0 Z " fill="#D03C3E" transform="translate(44,194)"/>
<path d="M0 0 C0.66 0.33 1.32 0.66 2 1 C1.67 1.66 1.34 2.32 1 3 C1.66 3.33 2.32 3.66 3 4 C0.39417629 4.93065133 -0.64198224 5.14917407 -3.25 4.0625 C-3.8275 3.711875 -4.405 3.36125 -5 3 C-2.625 1.4375 -2.625 1.4375 0 0 Z " fill="#E34642" transform="translate(76,158)"/>
<path d="M0 0 C0.66 0 1.32 0 2 0 C2.33 2.64 2.66 5.28 3 8 C2.01 8 1.02 8 0 8 C0 5.36 0 2.72 0 0 Z " fill="#715B9B" transform="translate(47,100)"/>
<path d="M0 0 C2.31 0 4.62 0 7 0 C6.67 0.66 6.34 1.32 6 2 C3.67843403 2.40729228 1.3431213 2.74438677 -1 3 C-0.67 2.01 -0.34 1.02 0 0 Z " fill="#B86C4B" transform="translate(50,165)"/>
<path d="M0 0 C0.350625 0.474375 0.70125 0.94875 1.0625 1.4375 C3.84163543 3.67873825 6.5144717 3.67117658 10 4 C10 4.33 10 4.66 10 5 C6.7 5 3.4 5 0 5 C0 3.35 0 1.7 0 0 Z " fill="#FEAF20" transform="translate(140,61)"/>
</svg>
