<?xml version="1.0" encoding="UTF-8"?>
<svg version="1.1" xmlns="http://www.w3.org/2000/svg" width="304" height="251">
<path d="M0 0 C0.74788552 -0.00367669 1.49577104 -0.00735338 2.26631975 -0.01114148 C4.77354143 -0.02215893 7.28072163 -0.02601878 9.78796387 -0.02983093 C11.58499788 -0.03609679 13.38203059 -0.0427437 15.17906189 -0.04974365 C21.07928569 -0.07076274 26.97950971 -0.08114045 32.87976074 -0.09111023 C34.91036493 -0.09515786 36.94096897 -0.09927478 38.97157288 -0.10346031 C48.50659354 -0.12250312 58.04160649 -0.13673901 67.57664251 -0.14507228 C78.59131163 -0.1548575 89.60578047 -0.18121428 100.62037897 -0.22157317 C109.13085685 -0.2516898 117.64127715 -0.26653671 126.15180731 -0.26985329 C131.23696118 -0.27220786 136.32190086 -0.28122175 141.40699768 -0.30631447 C146.18736648 -0.32952393 150.96737893 -0.3338573 155.74778938 -0.32355309 C157.5038121 -0.32305596 159.25985196 -0.32942827 161.01582146 -0.34310913 C163.40998632 -0.3607216 165.80285726 -0.35377575 168.19702148 -0.34057617 C168.89468518 -0.35154542 169.59234887 -0.36251466 170.31115389 -0.37381631 C173.61839828 -0.32967801 175.37017717 -0.01831564 178.07672882 1.94328022 C179.59851074 4.14717102 179.59851074 4.14717102 179.34851074 7.89717102 C178.97726074 9.50592102 178.97726074 9.50592102 178.59851074 11.14717102 C174.79807628 12.88451249 173.00136497 13.14717102 168.59851074 13.14717102 C168.26851074 25.35717102 167.93851074 37.56717102 167.59851074 50.14717102 C170.23851074 50.14717102 172.87851074 50.14717102 175.59851074 50.14717102 C177.72351074 52.33467102 177.72351074 52.33467102 178.59851074 55.14717102 C178.09851074 57.89717102 178.09851074 57.89717102 176.59851074 60.14717102 C173.97351074 60.95967102 173.97351074 60.95967102 171.59851074 61.14717102 C171.68101074 62.21967102 171.76351074 63.29217102 171.84851074 64.39717102 C171.59851074 68.14717102 171.59851074 68.14717102 169.97351074 70.52217102 C167.59851074 72.14717102 167.59851074 72.14717102 161.59851074 73.14717102 C161.59851074 83.70717102 161.59851074 94.26717102 161.59851074 105.14717102 C163.90851074 105.80717102 166.21851074 106.46717102 168.59851074 107.14717102 C169.34851074 110.39717102 169.34851074 110.39717102 169.59851074 114.14717102 C168.30747431 115.52150013 166.97283985 116.85613459 165.59851074 118.14717102 C165.55770291 120.14675466 165.55596718 122.14762356 165.59851074 124.14717102 C164.53601074 126.02217102 164.53601074 126.02217102 162.59851074 127.14717102 C160.28851074 127.14717102 157.97851074 127.14717102 155.59851074 127.14717102 C155.59851074 138.69717102 155.59851074 150.24717102 155.59851074 162.14717102 C157.57851074 162.14717102 159.55851074 162.14717102 161.59851074 162.14717102 C164.47351074 163.83467102 164.47351074 163.83467102 166.59851074 166.14717102 C167.14752925 168.96089089 167.11128154 170.33984029 165.5696106 172.76712036 C162.48372989 174.9276764 159.20133327 174.63305592 155.56091309 174.66548157 C154.71520374 174.68402758 153.8694944 174.70257359 152.9981575 174.72168159 C150.10196626 174.77939652 147.20602285 174.81356408 144.30944824 174.84638977 C142.19594861 174.87975588 140.08245387 174.91343257 137.96896362 174.9473877 C108.70206747 175.36716048 79.42596096 175.20202733 50.15770268 175.03015912 C49.30881876 175.02518662 48.45993483 175.02021412 47.58532715 175.01509094 C46.73499617 175.01010617 45.8846652 175.0051214 45.00856662 174.99998558 C38.01188311 174.96057525 31.01523328 174.94106668 24.01846278 174.9250744 C17.17228778 174.90838129 10.32628672 174.87653425 3.48022878 174.83322829 C-0.56707123 174.80795198 -4.61415788 174.78882882 -8.66154099 174.78585243 C-12.43310182 174.78268982 -16.20409247 174.76060928 -19.97547531 174.72429657 C-21.99838758 174.70949781 -24.02141321 174.71407915 -26.04437256 174.71942139 C-35.94744092 174.59509599 -44.43078938 172.83271488 -51.86633301 165.92451477 C-58.60718863 158.12021628 -60.09867099 150.18111992 -59.40148926 140.14717102 C-58.18920835 132.07417951 -53.4147156 126.43614189 -47.40148926 121.14717102 C-42.17710912 117.8675686 -36.37755373 116.45103963 -30.40148926 115.14717102 C-30.98156738 114.80685852 -31.56164551 114.46654602 -32.15930176 114.11592102 C-39.90790463 109.30820703 -44.97890228 104.09546526 -47.40148926 95.14717102 C-48.3800886 85.87622984 -48.10934495 77.78542074 -42.40148926 70.14717102 C-36.25699207 63.08985496 -28.51215503 59.47007411 -19.27648926 58.39717102 C-17.99773926 58.31467102 -16.71898926 58.23217102 -15.40148926 58.14717102 C-16.06535645 57.61349915 -16.72922363 57.07982727 -17.41320801 56.52998352 C-24.54153284 50.51513424 -30.64163019 43.52154095 -31.63977051 33.83467102 C-31.89125585 24.72825457 -30.01390271 16.96136607 -24.21398926 9.77217102 C-17.29682607 2.51213121 -9.78303159 -0.00258523 0 0 Z " fill="#FD602E" transform="translate(81.4014892578125,58.85282897949219)"/>
<path d="M0 0 C1.98820612 -0.00050923 3.97641245 -0.00276773 5.96461487 -0.00663757 C11.34434604 -0.01204207 16.72373091 0.00731191 22.10339999 0.03146338 C27.73453608 0.05279311 33.36567136 0.0521658 38.99684143 0.05415344 C48.44456936 0.06059342 57.89216745 0.08181755 67.33984375 0.11328125 C79.47873738 0.15365348 91.61754666 0.17098186 103.75649929 0.18059063 C114.187263 0.18888028 124.61800875 0.20611575 135.04875684 0.22562814 C138.4062011 0.23169952 141.76364604 0.2368393 145.12109184 0.2419796 C150.38487544 0.25074268 155.64861696 0.26503201 160.9123745 0.2836895 C162.84821868 0.28982558 164.78406904 0.29426816 166.71992111 0.29693222 C169.35278548 0.30089678 171.98555376 0.31099805 174.61839294 0.32279968 C175.39239974 0.32261532 176.16640653 0.32243096 176.96386808 0.32224101 C182.23856502 0.35573271 182.23856502 0.35573271 184.46704102 1.4699707 C184.82493575 6.83839176 184.82493575 6.83839176 183.40454102 9.3449707 C181.46704102 10.4699707 181.46704102 10.4699707 174.46704102 10.4699707 C174.46704102 22.0199707 174.46704102 33.5699707 174.46704102 45.4699707 C176.44704102 45.4699707 178.42704102 45.4699707 180.46704102 45.4699707 C183.34204102 47.1574707 183.34204102 47.1574707 185.46704102 49.4699707 C186.01605953 52.28369057 185.97981181 53.66263997 184.43814087 56.08992004 C181.35226017 58.25047609 178.06986354 57.9558556 174.42944336 57.98828125 C173.58373402 58.00682726 172.73802467 58.02537327 171.86668777 58.04448128 C168.97049653 58.10219621 166.07455312 58.13636377 163.17797852 58.16918945 C161.06447889 58.20255556 158.95098414 58.23623225 156.8374939 58.27018738 C127.57059774 58.68996017 98.29449124 58.52482701 69.02623296 58.3529588 C68.17734903 58.3479863 67.3284651 58.3430138 66.45385742 58.33789062 C65.60352645 58.33290585 64.75319547 58.32792108 63.87709689 58.32278526 C56.88041339 58.28337494 49.88376356 58.26386636 42.88699305 58.24787408 C36.04081806 58.23118098 29.19481699 58.19933393 22.34875906 58.15602797 C18.30145904 58.13075167 14.25437239 58.11162851 10.20698929 58.10865211 C6.43542845 58.1054895 2.66443781 58.08340896 -1.10694504 58.04709625 C-3.12985731 58.03229749 -5.15288294 58.03687883 -7.17584229 58.04222107 C-17.07891064 57.91789567 -25.56225911 56.15551456 -32.99780273 49.24731445 C-39.73865836 41.44301596 -41.23014072 33.5039196 -40.53295898 23.4699707 C-39.34146727 15.53542148 -34.6346246 9.50254106 -28.53295898 4.4699707 C-20.15451462 -1.36500859 -9.7131007 -0.06904249 0 0 Z " fill="#05AC92" transform="translate(62.532958984375,175.530029296875)"/>
<path d="M0 0 C4.46309569 1.33387853 8.69331622 1.48925037 13.32714844 1.65673828 C14.20628906 1.69541016 15.08542969 1.73408203 15.99121094 1.77392578 C18.14453636 1.86754863 20.29831258 1.95070287 22.45214844 2.03173828 C22.4624559 2.5932811 22.47276337 3.15482391 22.48338318 3.73338318 C22.59122529 9.55667294 22.70584051 15.37980092 22.82446289 21.20288086 C22.86788351 23.37862781 22.90955314 25.55441042 22.94946289 27.73022461 C23.00699346 30.85036996 23.07073666 33.97033461 23.13574219 37.09033203 C23.15245468 38.06949081 23.16916718 39.0486496 23.18638611 40.05747986 C23.21630394 41.40876732 23.21630394 41.40876732 23.24682617 42.78735352 C23.27014259 43.98315285 23.27014259 43.98315285 23.29393005 45.20310974 C23.25615509 47.05025211 23.25615509 47.05025211 24.45214844 48.03173828 C29.79432782 48.94104541 32.27809115 47.7788402 36.70214844 44.65673828 C38.29197561 43.45696187 39.8761173 42.24958053 41.45214844 41.03173828 C44.45214844 39.03173828 44.45214844 39.03173828 46.78808594 39.22314453 C49.81450746 40.14172115 52.3224118 41.41732742 55.07714844 42.96923828 C56.01816406 43.49388672 56.95917969 44.01853516 57.92871094 44.55908203 C59.80704431 45.6552611 61.64260742 46.8253776 63.45214844 48.03173828 C65.10764375 48.41673719 66.77439174 48.75966963 68.45214844 49.03173828 C68.45214844 48.37173828 68.45214844 47.71173828 68.45214844 47.03173828 C69.11214844 47.03173828 69.77214844 47.03173828 70.45214844 47.03173828 C70.45214844 32.18173828 70.45214844 17.33173828 70.45214844 2.03173828 C107.41214844 2.03173828 144.37214844 2.03173828 182.45214844 2.03173828 C182.45214844 9.03173828 182.45214844 9.03173828 180.82714844 11.40673828 C178.45214844 13.03173828 178.45214844 13.03173828 172.45214844 14.03173828 C172.45214844 24.59173828 172.45214844 35.15173828 172.45214844 46.03173828 C174.76214844 46.69173828 177.07214844 47.35173828 179.45214844 48.03173828 C180.70214844 54.65673828 180.70214844 54.65673828 178.45214844 58.03173828 C174.69798493 59.60802669 170.4591788 59.14994093 166.45428467 59.11402893 C165.6423236 59.1107998 164.83036253 59.10757068 163.99379659 59.1042437 C161.26990516 59.09216862 158.54611452 59.07279571 155.82226562 59.0534668 C153.87096374 59.04332401 151.91965947 59.03363034 149.96835327 59.02435303 C144.66707359 58.99787205 139.36584919 58.96509247 134.06461239 58.93120313 C128.52594364 58.89686013 122.98724526 58.86828053 117.44854736 58.83909607 C106.95844522 58.78294264 96.46838017 58.72158734 85.97831845 58.65837473 C74.03651576 58.58666641 62.09468336 58.5207395 50.15284491 58.45530427 C25.58590753 58.32056002 1.01901654 58.17853578 -23.54785156 58.03173828 C-22.22785156 57.37173828 -20.90785156 56.71173828 -19.54785156 56.03173828 C-20.12792969 55.69142578 -20.70800781 55.35111328 -21.30566406 55.00048828 C-29.05426693 50.19277429 -34.12526459 44.98003252 -36.54785156 36.03173828 C-37.52645091 26.7607971 -37.25570726 18.669988 -31.54785156 11.03173828 C-24.47093298 2.90348146 -15.69227191 -0.11054606 -5.18847656 -1.08544922 C-2.54785156 -0.96826172 -2.54785156 -0.96826172 0 0 Z " fill="#FDBC16" transform="translate(70.5478515625,117.96826171875)"/>
<path d="M0 0 C15.84 0 31.68 0 48 0 C48 14.85 48 29.7 48 45 C47.34 45 46.68 45 46 45 C46 45.66 46 46.32 46 47 C38.03916679 46.65387682 32.46068498 42.30712332 26 38 C22.07550129 38.31319289 19.55850859 39.70029207 16.375 41.9375 C15.61960937 42.46214844 14.86421875 42.98679688 14.0859375 43.52734375 C13.39757812 44.01332031 12.70921875 44.49929687 12 45 C8.32653229 47.44897847 6.33643601 47.31537716 2 47 C0 45 0 45 -0.24050903 43.05111694 C-0.23606781 42.256138 -0.23162659 41.46115906 -0.22705078 40.64208984 C-0.22680908 39.7287085 -0.22656738 38.81532715 -0.22631836 37.87426758 C-0.21608643 36.91286865 -0.20585449 35.95146973 -0.1953125 34.9609375 C-0.19329834 34.07833252 -0.19128418 33.19572754 -0.18920898 32.28637695 C-0.17872778 28.98253193 -0.15080528 25.67876087 -0.125 22.375 C-0.08375 14.99125 -0.0425 7.6075 0 0 Z " fill="#FD8C1E" transform="translate(93,120)"/>
<path d="M0 0 C15.51 0 31.02 0 47 0 C47 11.55 47 23.1 47 35 C48.98 35 50.96 35 53 35 C53 35.33 53 35.66 53 36 C35.51 36 18.02 36 0 36 C0 24.12 0 12.24 0 0 Z " fill="#F7D42A" transform="translate(190,186)"/>
<path d="M0 0 C14.85 0 29.7 0 45 0 C44.67 12.54 44.34 25.08 44 38 C29.48 38 14.96 38 0 38 C0 25.46 0 12.92 0 0 Z " fill="#FCB224" transform="translate(205,71)"/>
<path d="M0 0 C0.33 0 0.66 0 1 0 C1.48404255 6.29255319 1.48404255 6.29255319 -0.625 9.375 C-3 11 -3 11 -9 12 C-9 22.56 -9 33.12 -9 44 C-6.69 44.66 -4.38 45.32 -2 46 C-2.495 46.99 -2.495 46.99 -3 48 C-5.64 47.67 -8.28 47.34 -11 47 C-11 46.34 -11 45.68 -11 45 C-25.52 45 -40.04 45 -55 45 C-55 37.74 -55 30.48 -55 23 C-40.48 23 -25.96 23 -11 23 C-11.33 18.38 -11.66 13.76 -12 9 C-8.7 9 -5.4 9 -2 9 C-2.04125 8.071875 -2.0825 7.14375 -2.125 6.1875 C-2 3 -2 3 0 0 Z " fill="#FDD222" transform="translate(252,120)"/>
<path d="M0 0 C26.04221817 -0.0233312 52.08443479 -0.04098027 78.1266613 -0.05181217 C90.2177452 -0.05697466 102.30882261 -0.06401646 114.39990234 -0.07543945 C124.93501226 -0.08538773 135.47011749 -0.09185377 146.00523198 -0.09408849 C151.58661233 -0.09539535 157.16797925 -0.09847967 162.74935532 -0.10573006 C167.99740722 -0.11249253 173.2454401 -0.11461649 178.49349594 -0.11310768 C180.42450056 -0.11338391 182.35550579 -0.11538769 184.28650665 -0.11920547 C186.91326737 -0.12414624 189.53995529 -0.12299684 192.16671753 -0.12025452 C193.32526349 -0.12462378 193.32526349 -0.12462378 194.50721443 -0.12908131 C199.77175758 -0.11412121 199.77175758 -0.11412121 202 1 C202.36538062 6.48070929 202.36538062 6.48070929 200.81938171 8.67793274 C198.34923918 10.47288019 196.74121123 10.36182665 193.70239258 10.34057617 C192.62149857 10.34034958 191.54060455 10.34012299 190.42695618 10.33988953 C188.67840584 10.31666374 188.67840584 10.31666374 186.89453125 10.29296875 C185.70018967 10.28872391 184.50584808 10.28447906 183.27531433 10.28010559 C179.45414856 10.26328959 175.63350684 10.22563093 171.8125 10.1875 C169.22461698 10.17245699 166.63672571 10.15876792 164.04882812 10.14648438 C157.69885357 10.11592627 151.35001457 10.05720734 145 10 C145 21.88 145 33.76 145 46 C144.67 46 144.34 46 144 46 C144 33.46 144 20.92 144 8 C142.68 8 141.36 8 140 8 C140 7.01 140 6.02 140 5 C138.02 4.505 138.02 4.505 136 4 C136 3.34 136 2.68 136 2 C91.12 1.67 46.24 1.34 0 1 C0 0.67 0 0.34 0 0 Z " fill="#159E7A" transform="translate(45,176)"/>
<path d="M0 0 C13.86 0 27.72 0 42 0 C42 5.28 42 10.56 42 16 C41 17 41 17 37.12280273 17.11352539 C35.39305833 17.11336621 33.66330919 17.10766849 31.93359375 17.09765625 C31.02497086 17.0962413 30.11634796 17.09482635 29.18019104 17.09336853 C26.26592779 17.08775193 23.35174019 17.07519665 20.4375 17.0625 C18.46679798 17.05748714 16.49609476 17.05292386 14.52539062 17.04882812 C9.68356441 17.03777711 4.84179505 17.02050138 0 17 C0 11.39 0 5.78 0 0 Z " fill="#FCCF21" transform="translate(206,91)"/>
<path d="M0 0 C15.18 0 30.36 0 46 0 C46 4.29 46 8.58 46 13 C30.82 13 15.64 13 0 13 C0 8.71 0 4.42 0 0 Z " fill="#F5B41E" transform="translate(190,186)"/>
<path d="M0 0 C0.33 0 0.66 0 1 0 C0.67 2.31 0.34 4.62 0 7 C-4.36170888 9.16122435 -8.35250928 9.26380872 -13.11811829 9.20254517 C-13.93093378 9.20017046 -14.74374927 9.19779576 -15.58119553 9.1953491 C-18.30207394 9.1849405 -21.02262587 9.16006642 -23.7434082 9.13525391 C-25.69485537 9.1248268 -27.64630747 9.11529176 -29.59776306 9.10658264 C-34.8949026 9.08041089 -40.19188632 9.04174412 -45.48892999 9.00085878 C-51.02490188 8.96024599 -56.56093372 8.93108995 -62.0969696 8.90072632 C-72.57999092 8.84148504 -83.06291735 8.77191824 -93.54584903 8.69865549 C-105.48039536 8.61574946 -117.41500175 8.54433337 -129.34962714 8.47388959 C-153.89983976 8.32872487 -178.44994145 8.16910759 -203 8 C-201.68 7.34 -200.36 6.68 -199 6 C-202.465 4.02 -202.465 4.02 -206 2 C-204.68 1.67 -203.36 1.34 -202 1 C-202 1.66 -202 2.32 -202 3 C-200.35 3.33 -198.7 3.66 -197 4 C-197 4.66 -197 5.32 -197 6 C-196.24043157 5.99484627 -195.48086313 5.98969254 -194.69827747 5.98438263 C-176.0254379 5.85777278 -157.35258934 5.73257164 -138.67973042 5.60884857 C-129.64886841 5.54897935 -120.61800977 5.48867124 -111.5871582 5.42724609 C-103.69556135 5.37357103 -95.80395898 5.32080465 -87.9123494 5.26903296 C-83.75228981 5.24171234 -79.59223381 5.21400272 -75.43218422 5.18519592 C-65.42150308 5.11610623 -55.41082636 5.05583119 -45.40000582 5.01090622 C-43.75077058 5.00341169 -42.1015368 4.99559421 -40.45230436 4.98750687 C-35.25097704 4.96217983 -30.0496811 4.94251089 -24.84830511 4.93061161 C-23.19956265 4.92612375 -21.55082385 4.91994195 -19.90209448 4.91198635 C-17.62649968 4.90142381 -15.35097909 4.89721322 -13.07536316 4.89465332 C-11.77838595 4.89080879 -10.48140875 4.88696426 -9.1451292 4.88300323 C-6 5 -6 5 -3 6 C-3 5.34 -3 4.68 -3 4 C-2.34 4 -1.68 4 -1 4 C-0.67 2.68 -0.34 1.36 0 0 Z " fill="#C5C642" transform="translate(250,168)"/>
<path d="M0 0 C1.79792343 -0.00542747 3.59584241 -0.01255363 5.39375305 -0.02124023 C10.25082463 -0.03939432 15.1075544 -0.032441 19.96463156 -0.01972389 C25.05432112 -0.00956446 30.14398233 -0.01899686 35.2336731 -0.02526855 C43.77253454 -0.03253242 52.31125729 -0.02298622 60.85009766 -0.00390625 C70.72396248 0.0179019 80.59749741 0.01077748 90.47135437 -0.01121187 C98.9565027 -0.02935195 107.44155166 -0.03193228 115.92671311 -0.0214572 C120.99162149 -0.01521998 126.05637462 -0.01439378 131.12127304 -0.02760315 C135.87715089 -0.03914221 140.63260182 -0.03117167 145.38843346 -0.00802612 C147.13476667 -0.00273041 148.88113573 -0.00426752 150.62745476 -0.01307678 C153.0082175 -0.02398119 155.38760532 -0.01033262 157.76828003 0.00964355 C158.461851 0.00072067 159.15542198 -0.00820222 159.87001026 -0.0173955 C163.16606922 0.03638736 164.90951975 0.35794756 167.60508919 2.31494904 C169.12939453 4.51757812 169.12939453 4.51757812 168.87939453 8.26757812 C168.50814453 9.87632813 168.50814453 9.87632813 168.12939453 11.51757812 C163.80205062 13.7468159 160.84539271 13.44228365 156.12939453 12.51757812 C156.12939453 12.18757813 156.12939453 11.85757813 156.12939453 11.51757812 C158.76939453 11.51757812 161.40939453 11.51757812 164.12939453 11.51757812 C164.45939453 10.52757813 164.78939453 9.53757812 165.12939453 8.51757812 C165.78939453 8.51757812 166.44939453 8.51757812 167.12939453 8.51757812 C166.79939453 6.53757812 166.46939453 4.55757812 166.12939453 2.51757812 C142.38999675 2.60147107 118.650667 2.69660194 94.91136837 2.80510521 C83.88876164 2.85522342 72.86616233 2.90166649 61.84350586 2.93945312 C52.23597843 2.9723979 42.62850862 3.01224296 33.02104479 3.06036818 C27.93415202 3.08560837 22.84729734 3.10739704 17.76035881 3.12092209 C12.97104237 3.13376486 8.18185675 3.15584331 3.39261246 3.18496132 C1.63626712 3.19401974 -0.12009927 3.19972328 -1.87646675 3.20179176 C-4.27827108 3.20512657 -6.67970724 3.22063673 -9.08143616 3.23910522 C-10.11891663 3.23620312 -10.11891663 3.23620312 -11.1773563 3.23324239 C-15.70573111 3.28514079 -19.61193199 3.97257256 -23.87060547 5.51757812 C-25.2563747 7.14090779 -26.59701815 8.80482277 -27.87060547 10.51757812 C-29.2039388 10.85091146 -30.53727214 11.18424479 -31.87060547 11.51757812 C-33.23305343 13.16053008 -34.56925422 14.8258215 -35.87060547 16.51757812 C-36.53060547 16.51757812 -37.19060547 16.51757812 -37.87060547 16.51757812 C-36.52828738 10.98051603 -32.47197131 7.5422995 -27.87060547 4.51757812 C-19.0287433 -0.47706058 -9.82500972 -0.04993989 0 0 Z " fill="#E45E32" transform="translate(91.87060546875,58.482421875)"/>
<path d="M0 0 C0.33 0 0.66 0 1 0 C1 12.21 1 24.42 1 37 C6.57841797 36.91298828 6.57841797 36.91298828 12.26953125 36.82421875 C15.86366645 36.7852469 19.45777829 36.7548743 23.05200195 36.7253418 C25.55373638 36.70016691 28.05539705 36.66602463 30.55688477 36.62280273 C34.14878513 36.56228509 37.7397149 36.53381946 41.33203125 36.51171875 C42.45398392 36.48591232 43.57593658 36.4601059 44.73188782 36.43351746 C45.77274033 36.4331398 46.81359283 36.43276215 47.88598633 36.43237305 C49.2616552 36.41571846 49.2616552 36.41571846 50.66511536 36.39872742 C53 37 53 37 54.86650085 39.36360168 C56 42 56 42 55.25 44.75 C54 47 54 47 53 48 C50.64366053 48.10427735 48.31638051 48.14333315 45.95927429 48.14044189 C44.84129093 48.14489858 44.84129093 48.14489858 43.70072204 48.1494453 C41.18417791 48.15816976 38.66768114 48.15964369 36.15112305 48.16113281 C34.35453183 48.16575837 32.55794161 48.17078267 30.76135254 48.17617798 C25.86667156 48.18933001 20.97200431 48.19575248 16.07730842 48.20018864 C13.02206024 48.20311509 9.96681587 48.20721909 6.9115696 48.21169281 C-2.63948179 48.22537565 -12.19052456 48.23503823 -21.74158508 48.2388947 C-32.78171799 48.24337635 -43.82172715 48.26092593 -54.86182243 48.2898953 C-63.38497941 48.31148676 -71.90810151 48.32159764 -80.43128556 48.32293582 C-85.52650239 48.32398575 -90.62160302 48.32993325 -95.71679115 48.34775543 C-100.50938894 48.36419215 -105.30178263 48.3664131 -110.0943985 48.35761642 C-111.85524986 48.35684366 -113.616112 48.36122014 -115.37693596 48.37107468 C-117.77764384 48.38372415 -120.17762124 48.37795599 -122.57832336 48.36749268 C-123.62788844 48.37957728 -123.62788844 48.37957728 -124.69865686 48.39190602 C-128.74996663 48.35050228 -131.04839745 47.83801982 -134 45 C-132.70853058 45.16265854 -131.41706116 45.32531708 -130.0864563 45.49290466 C-122.27879391 46.2668752 -114.45308089 46.13135989 -106.61669922 46.11352539 C-104.87140403 46.11324291 -103.12610872 46.11340244 -101.3808136 46.1139679 C-96.6687356 46.11425351 -91.95668332 46.10839505 -87.24461126 46.10139394 C-82.31054663 46.09512099 -77.37648134 46.09455349 -72.44241333 46.09336853 C-63.11063332 46.09026681 -53.7788651 46.08206909 -44.44709027 46.07201904 C-33.81828348 46.06082185 -23.18947611 46.05533838 -12.56066489 46.05032361 C9.29289664 46.03988547 31.14644757 46.02230854 53 46 C53 45.01 53 44.02 53 43 C52.01 43 51.02 43 50 43 C50 42.01 50 41.02 50 40 C43.46033827 39.05409679 37.17853256 38.99958774 30.59765625 39.26171875 C29.74843597 39.29411652 28.8992157 39.32651428 28.02426147 39.3598938 C24.46200377 39.49993433 20.90043611 39.64685413 17.33959961 39.81958008 C14.71767358 39.94353084 12.0957806 40.04206433 9.47265625 40.13671875 C8.66643326 40.18237473 7.86021027 40.2280307 7.02955627 40.27507019 C1.51537128 40.44861179 1.51537128 40.44861179 -1.09204102 38.17895508 C-2 36 -2 36 -1 33 C-0.8470353 30.48945095 -0.74304822 28.00111475 -0.68359375 25.48828125 C-0.6524221 24.39594429 -0.6524221 24.39594429 -0.62062073 23.28153992 C-0.55531254 20.95862125 -0.49632763 18.63559094 -0.4375 16.3125 C-0.39429695 14.73631665 -0.35068208 13.16014452 -0.30664062 11.58398438 C-0.1996504 7.72277025 -0.09833039 3.86144397 0 0 Z " fill="#ED6119" transform="translate(204,72)"/>
<path d="M0 0 C7.77784995 -0.07593214 15.55560468 -0.12855012 23.33374023 -0.16479492 C25.98091199 -0.1799012 28.62805864 -0.2003873 31.27514648 -0.22631836 C35.07542101 -0.26261991 38.87536526 -0.27970803 42.67578125 -0.29296875 C44.45714226 -0.31619453 44.45714226 -0.31619453 46.27449036 -0.33988953 C47.37540512 -0.34011612 48.47631989 -0.34034271 49.6105957 -0.34057617 C50.58100296 -0.34723801 51.55141022 -0.35389984 52.55122375 -0.36076355 C55 0 55 0 56.81340027 1.36503601 C58.50817192 3.70018791 58.4224124 5.18391735 58 8 C56.98193359 9.62330627 56.98193359 9.62330627 55 11 C52.23444306 11.34467702 49.68689863 11.49975395 46.9140625 11.52709961 C45.63968071 11.55592696 45.63968071 11.55592696 44.33955383 11.58533669 C41.43475284 11.64491484 38.53020481 11.68064614 35.625 11.71484375 C33.50984453 11.7491917 31.39469161 11.78369711 29.27954102 11.81834412 C-1.26775733 12.25841848 -31.82635023 11.88779545 -62.37383366 11.62664735 C-70.97440116 11.55338525 -79.57502549 11.48825234 -88.17566109 11.42356598 C-105.78384752 11.29096262 -123.39194386 11.1488897 -141 11 C-141 10.67 -141 10.34 -141 10 C-122.02088476 9.82737356 -103.04171638 9.66109229 -84.0625 9.5 C-83.36253387 9.49405146 -82.66256774 9.48810292 -81.94139051 9.48197412 C-45.8985843 9.17602736 -9.85694232 8.89699494 26.1875 8.9375 C27.33894564 8.93878403 27.33894564 8.93878403 28.5136528 8.94009399 C37.34246197 8.95073483 46.17123519 8.96943433 55 9 C55 6.69 55 4.38 55 2 C36.85 1.67 18.7 1.34 0 1 C0 0.67 0 0.34 0 0 Z " fill="#148970" transform="translate(190,222)"/>
<path d="M0 0 C36.63 0 73.26 0 111 0 C110.67 1.32 110.34 2.64 110 4 C110 3.01 110 2.02 110 1 C74.69 1 39.38 1 3 1 C3 14.53 3 28.06 3 42 C0 47 0 47 -1 48 C-7.56079032 48.82009879 -11.53268157 46.47131329 -17 43 C-16.34 42.34 -15.68 41.68 -15 41 C-14.22076172 41.52400391 -14.22076172 41.52400391 -13.42578125 42.05859375 C-8.12275686 45.54055504 -8.12275686 45.54055504 -2 47 C-2 46.34 -2 45.68 -2 45 C-1.34 45 -0.68 45 0 45 C0 30.15 0 15.3 0 0 Z " fill="#FEB426" transform="translate(141,120)"/>
<path d="M0 0 C23.79111461 -0.09337625 47.58220183 -0.16394631 71.37346268 -0.20724869 C82.41977305 -0.22788774 93.46596967 -0.25603402 104.51220703 -0.30175781 C114.13834385 -0.34158443 123.76439831 -0.36742304 133.39061522 -0.37635398 C138.48925581 -0.3815758 143.58766072 -0.39387688 148.68622589 -0.42292023 C153.48294029 -0.45002334 158.27932142 -0.45845534 163.07610512 -0.45243073 C164.83858106 -0.45353325 166.60106787 -0.4615175 168.36347771 -0.4768219 C170.76659542 -0.49667048 173.16844838 -0.49195871 175.57159424 -0.48101807 C176.27198641 -0.49266943 176.97237858 -0.5043208 177.69399476 -0.51632524 C181.00792792 -0.47543314 182.76690333 -0.16878462 185.47990036 1.79568863 C187 4 187 4 186.75 7.75 C186.37875 9.35875 186.37875 9.35875 186 11 C181.67265609 13.22923777 178.71599818 12.92470553 174 12 C174 11.67 174 11.34 174 11 C176.64 11 179.28 11 182 11 C182.33 10.01 182.66 9.02 183 8 C183.66 8 184.32 8 185 8 C184.67 6.02 184.34 4.04 184 2 C123.28 1.67 62.56 1.34 0 1 C0 0.67 0 0.34 0 0 Z " fill="#B46247" transform="translate(74,59)"/>
<path d="M0 0 C0.33 0 0.66 0 1 0 C1 12.21 1 24.42 1 37 C6.57841797 36.91298828 6.57841797 36.91298828 12.26953125 36.82421875 C15.86366645 36.7852469 19.45777829 36.7548743 23.05200195 36.7253418 C25.55373638 36.70016691 28.05539705 36.66602463 30.55688477 36.62280273 C34.14878513 36.56228509 37.7397149 36.53381946 41.33203125 36.51171875 C42.45398392 36.48591232 43.57593658 36.4601059 44.73188782 36.43351746 C45.77274033 36.4331398 46.81359283 36.43276215 47.88598633 36.43237305 C49.2616552 36.41571846 49.2616552 36.41571846 50.66511536 36.39872742 C53 37 53 37 54.86650085 39.36360168 C56 42 56 42 55.25 44.75 C54 47 54 47 53 48 C51.33382885 48.04063832 49.66611905 48.042721 48 48 C48 47.34 48 46.68 48 46 C49.65 46 51.3 46 53 46 C53 45.01 53 44.02 53 43 C52.01 43 51.02 43 50 43 C50 42.01 50 41.02 50 40 C43.46033827 39.05409679 37.17853256 38.99958774 30.59765625 39.26171875 C29.74843597 39.29411652 28.8992157 39.32651428 28.02426147 39.3598938 C24.46200377 39.49993433 20.90043611 39.64685413 17.33959961 39.81958008 C14.71767358 39.94353084 12.0957806 40.04206433 9.47265625 40.13671875 C8.66643326 40.18237473 7.86021027 40.2280307 7.02955627 40.27507019 C1.51537128 40.44861179 1.51537128 40.44861179 -1.09204102 38.17895508 C-2 36 -2 36 -1 33 C-0.8470353 30.48945095 -0.74304822 28.00111475 -0.68359375 25.48828125 C-0.66281265 24.76005661 -0.64203156 24.03183197 -0.62062073 23.28153992 C-0.55531254 20.95862125 -0.49632763 18.63559094 -0.4375 16.3125 C-0.39429695 14.73631665 -0.35068208 13.16014452 -0.30664062 11.58398438 C-0.1996504 7.72277025 -0.09833039 3.86144397 0 0 Z " fill="#E46118" transform="translate(204,72)"/>
<path d="M0 0 C4.46309569 1.33387853 8.69331622 1.48925037 13.32714844 1.65673828 C14.20628906 1.69541016 15.08542969 1.73408203 15.99121094 1.77392578 C18.14453636 1.86754863 20.29831258 1.95070287 22.45214844 2.03173828 C22.4624559 2.58883987 22.47276337 3.14594147 22.48338318 3.71992493 C22.59144864 9.5110752 22.7060467 15.3020699 22.82446289 21.09301758 C22.86781157 23.25509388 22.90948669 25.41720441 22.94946289 27.5793457 C23.00716688 30.6846753 23.07086116 33.78983264 23.13574219 36.89501953 C23.15245468 37.86385574 23.16916718 38.83269196 23.18638611 39.83088684 C23.21630394 41.18194771 23.21630394 41.18194771 23.24682617 42.56030273 C23.27014259 43.74944023 23.27014259 43.74944023 23.29393005 44.96260071 C23.3829607 47.22913602 23.3829607 47.22913602 24.45214844 50.03173828 C23.13214844 49.37173828 21.81214844 48.71173828 20.45214844 48.03173828 C20.12214844 33.51173828 19.79214844 18.99173828 19.45214844 4.03173828 C0.78937132 2.24387169 0.78937132 2.24387169 -17.64550781 4.69189453 C-19.88958869 5.09278783 -21.39488258 4.71742773 -23.54785156 4.03173828 C-16.44923925 0.72110564 -7.76478167 -2.95085513 0 0 Z " fill="#FEB324" transform="translate(70.5478515625,117.96826171875)"/>
<path d="M0 0 C2.91536857 0.42873067 4.88435877 0.9268646 7.39700317 2.51594543 C12.73551701 4.71484991 17.8021476 4.43930311 23.52294922 4.43237305 C24.78203598 4.4425647 26.04112274 4.45275635 27.33836365 4.46325684 C30.77800448 4.49076569 34.21747999 4.50010293 37.65721655 4.50611091 C41.25674293 4.51551061 44.85614661 4.54171524 48.45559692 4.56611633 C55.26586321 4.60974127 62.07610563 4.63831276 68.88646901 4.66143972 C76.64227499 4.68851293 84.39795727 4.73242309 92.15367484 4.77772844 C108.10238626 4.87051729 124.05112098 4.9422243 140 5 C140 5.33 140 5.66 140 6 C123.61420063 6.22449081 107.22830595 6.42534272 90.84189034 6.59840012 C83.23262724 6.67930716 75.62359726 6.76781773 68.01464844 6.87451172 C61.37924255 6.96753491 54.74384759 7.04600312 48.10807025 7.10732102 C44.59753335 7.14025985 41.08741103 7.18026292 37.57718277 7.2377243 C33.64938518 7.30174752 29.72167618 7.33326041 25.79345703 7.36230469 C24.641866 7.38603653 23.49027496 7.40976837 22.30378723 7.43421936 C14.75364961 7.45455707 7.02808172 6.71264323 1.22575569 1.3646965 C0.82125631 0.91434666 0.41675694 0.46399681 0 0 Z " fill="#11A78B" transform="translate(32,226)"/>
<path d="M0 0 C0.33 0 0.66 0 1 0 C1.48404255 6.29255319 1.48404255 6.29255319 -0.625 9.375 C-3 11 -3 11 -9 12 C-9 22.56 -9 33.12 -9 44 C-6.69 44.66 -4.38 45.32 -2 46 C-2.33 46.66 -2.66 47.32 -3 48 C-6.96 47.505 -6.96 47.505 -11 47 C-11.33 34.46 -11.66 21.92 -12 9 C-8.7 9 -5.4 9 -2 9 C-2.04125 8.071875 -2.0825 7.14375 -2.125 6.1875 C-2 3 -2 3 0 0 Z " fill="#F2D97A" transform="translate(252,120)"/>
<path d="M0 0 C0.33 0 0.66 0 1 0 C1.02505615 1.22106445 1.0501123 2.44212891 1.07592773 3.70019531 C1.17013579 8.23269045 1.27032384 12.76503714 1.37231445 17.29736328 C1.4156126 19.25859096 1.45729131 21.2198551 1.49731445 23.18115234 C1.55514099 26.00108828 1.61879984 28.82084161 1.68359375 31.640625 C1.70030624 32.51680481 1.71701874 33.39298462 1.73423767 34.29571533 C1.75418289 35.11626404 1.77412811 35.93681274 1.79467773 36.78222656 C1.81022202 37.50170471 1.8257663 38.22118286 1.84178162 38.96246338 C2.0053942 41.06946646 2.42999531 42.96835737 3 45 C5.97 44.505 5.97 44.505 9 44 C9.33 43.01 9.66 42.02 10 41 C11.32 41.33 12.64 41.66 14 42 C11.01974864 44.88994071 9.51083317 45.94805086 5.3125 46.375 C2 46 2 46 0 44 C-0.24050903 42.08908081 -0.24050903 42.08908081 -0.22705078 39.73388672 C-0.22689972 38.85312469 -0.22674866 37.97236267 -0.22659302 37.06491089 C-0.21627045 36.11278717 -0.20594788 35.16066345 -0.1953125 34.1796875 C-0.1924826 33.20589142 -0.18965271 32.23209534 -0.18673706 31.22879028 C-0.17551913 28.11073651 -0.1504117 24.99296732 -0.125 21.875 C-0.11497228 19.76432706 -0.10584607 17.65364962 -0.09765625 15.54296875 C-0.07557458 10.36188165 -0.04208129 5.18096115 0 0 Z " fill="#F28D12" transform="translate(93,121)"/>
<path d="M0 0 C0.33 0 0.66 0 1 0 C0.67 2.31 0.34 4.62 0 7 C-1.65 7.66 -3.3 8.32 -5 9 C-5.66 8.34 -6.32 7.68 -7 7 C-9.72000357 6.75443629 -12.34574257 6.62643514 -15.0703125 6.5859375 C-15.86654022 6.56657135 -16.66276794 6.5472052 -17.48312378 6.5272522 C-20.03030634 6.46739526 -22.57753395 6.42104721 -25.125 6.375 C-26.8502803 6.33682579 -28.57554143 6.29777439 -30.30078125 6.2578125 C-34.53369876 6.16168891 -38.76670549 6.07768092 -43 6 C-43 5.67 -43 5.34 -43 5 C-37.78556667 4.97529065 -32.57116739 4.95713556 -27.35668945 4.94506836 C-25.58259487 4.940038 -23.80850444 4.93321301 -22.03442383 4.92456055 C-19.48517839 4.91243826 -16.93598774 4.90675874 -14.38671875 4.90234375 C-13.19594978 4.89460182 -13.19594978 4.89460182 -11.98112488 4.88670349 C-8.72343714 4.88637123 -6.11318479 4.96227174 -3 6 C-3 5.34 -3 4.68 -3 4 C-2.34 4 -1.68 4 -1 4 C-0.67 2.68 -0.34 1.36 0 0 Z " fill="#EEBD17" transform="translate(250,168)"/>
<path d="M0 0 C3.05115745 -0.28784504 5.95827494 -0.4299258 9 0 C11.1875 2.1875 11.1875 2.1875 12 5 C11.33719617 7.43028072 10.7989028 9.2010972 9 11 C7.33382885 11.04063832 5.66611905 11.042721 4 11 C4 10.34 4 9.68 4 9 C5.65 9 7.3 9 9 9 C9 8.01 9 7.02 9 6 C8.01 6 7.02 6 6 6 C6 5.01 6 4.02 6 3 C3.03 2.505 3.03 2.505 0 2 C0 1.34 0 0.68 0 0 Z " fill="#DB6443" transform="translate(248,109)"/>
<path d="M0 0 C0.33 0 0.66 0 1 0 C1.33 2.64 1.66 5.28 2 8 C1.67 8 1.34 8 1 8 C0.04380267 11.99795892 -0.1039592 15.70803922 -0.0625 19.8125 C-0.04896484 21.55466797 -0.04896484 21.55466797 -0.03515625 23.33203125 C-0.02355469 24.21246094 -0.01195312 25.09289062 0 26 C-3.6452842 20.5320737 -3.50902328 15.38824213 -3 9 C-2.23281338 5.89111004 -1.22621116 2.95604477 0 0 Z " fill="#DF7959" transform="translate(53,75)"/>
<path d="M0 0 C0 2 0 2 -2.1875 4.5 C-5 7 -5 7 -7.5625 8 C-10.73154971 9.30012296 -11.95336093 11.31819708 -14 14 C-14.66 14 -15.32 14 -16 14 C-14.64527694 8.41176736 -10.41886827 5.30998246 -6 2 C-2.46601942 0 -2.46601942 0 0 0 Z " fill="#E36646" transform="translate(70,61)"/>
<path d="M0 0 C3.50313117 1.88131118 5.58486527 4.02236527 8.375 6.8125 C11.54201423 8.14813611 11.54201423 8.14813611 14.375 8.8125 C14.375 9.1425 14.375 9.4725 14.375 9.8125 C6.41416679 9.46637682 0.83568498 5.11962332 -5.625 0.8125 C-9.26439932 1.12980524 -9.26439932 1.12980524 -12.625 1.8125 C-12.625 1.1525 -12.625 0.4925 -12.625 -0.1875 C-8.43535489 -2.28232256 -4.29689322 -1.40760295 0 0 Z " fill="#F49215" transform="translate(124.625,157.1875)"/>
<path d="M0 0 C0.66 0.99 1.32 1.98 2 3 C0.84242187 3.13277344 -0.31515625 3.26554687 -1.5078125 3.40234375 C-3.04688408 3.58065082 -4.58594607 3.75904062 -6.125 3.9375 C-7.26582031 4.06801758 -7.26582031 4.06801758 -8.4296875 4.20117188 C-12.64329577 4.6915487 -16.821195 5.25902978 -21 6 C-14.80208666 0.75561179 -7.78480315 0.52637459 0 0 Z " fill="#ECC04E" transform="translate(68,117)"/>
<path d="M0 0 C1.4724326 4.60984667 0.92649275 9.22823202 0.7421875 14.00390625 C1.03604423 17.4188776 1.55127765 17.83166571 4 20 C4.66957496 22.67318858 4.77362708 25.23825037 5 28 C1.45838096 24.93059683 0.19000024 22.51142312 -1 18 C-1.23046875 14.23828125 -1.23046875 14.23828125 -1.1875 10.3125 C-1.17783203 8.35763672 -1.17783203 8.35763672 -1.16796875 6.36328125 C-1 3 -1 3 0 0 Z " fill="#E7C353" transform="translate(35,136)"/>
<path d="M0 0 C2.875 0.3125 2.875 0.3125 6 1 C8.56687367 4.8503105 7.83288724 6.58569763 7 11 C2.67265609 13.22923777 -0.28400182 12.92470553 -5 12 C-5 11.67 -5 11.34 -5 11 C-2.36 11 0.28 11 3 11 C3.33 10.01 3.66 9.02 4 8 C4.66 8 5.32 8 6 8 C5.67 6.02 5.34 4.04 5 2 C3.35 1.67 1.7 1.34 0 1 C0 0.67 0 0.34 0 0 Z " fill="#D37159" transform="translate(253,59)"/>
<path d="M0 0 C0.33 0 0.66 0 1 0 C1.48404255 6.29255319 1.48404255 6.29255319 -0.625 9.375 C-3.44291127 11.30304455 -5.64808485 11.56279368 -9 12 C-9.66 12.66 -10.32 13.32 -11 14 C-11.33 12.35 -11.66 10.7 -12 9 C-8.7 9 -5.4 9 -2 9 C-2.04125 8.071875 -2.0825 7.14375 -2.125 6.1875 C-2 3 -2 3 0 0 Z " fill="#ECBF4E" transform="translate(252,120)"/>
<path d="M0 0 C1.98 0 3.96 0 6 0 C6.1875 2.875 6.1875 2.875 6 6 C3 8 3 8 -0.1875 7.625 C-1.115625 7.41875 -2.04375 7.2125 -3 7 C-2.67 6.34 -2.34 5.68 -2 5 C-0.02 5.495 -0.02 5.495 2 6 C2 4.35 2 2.7 2 1 C1.34 0.67 0.68 0.34 0 0 Z " fill="#1FA087" transform="translate(241,177)"/>
<path d="M0 0 C4.75 0.75 4.75 0.75 7 3 C7.3125 5.4375 7.3125 5.4375 7 8 C5.5 9.8125 5.5 9.8125 4 11 C2.68 10.34 1.36 9.68 0 9 C1.32 9 2.64 9 4 9 C4 6.69 4 4.38 4 2 C2.68 1.34 1.36 0.68 0 0 Z " fill="#279A84" transform="translate(241,222)"/>
<path d="M0 0 C4.5402233 1.34979612 5.72936172 2.95234045 8 7 C10.47149132 9.15258921 13.03377791 10.62282546 16 12 C15.01 12.495 15.01 12.495 14 13 C8.40059685 10.36498675 3.91078169 6.82607102 0 2 C0 1.34 0 0.68 0 0 Z " fill="#D66741" transform="translate(55,105)"/>
<path d="M0 0 C2.9885072 0.43948635 5.12636374 1.06739399 7.8125 2.5 C11.68208739 4.3209823 14.7577668 4.63429024 19 5 C18.34 5.66 17.68 6.32 17 7 C10.22975984 6.88122386 5.67032596 4.55707948 0 1 C0 0.67 0 0.34 0 0 Z " fill="#2E9E8A" transform="translate(32,226)"/>
<path d="M0 0 C1.32 0.33 2.64 0.66 4 1 C3.67 2.32 3.34 3.64 3 5 C2.34 5 1.68 5 1 5 C1.33 5.99 1.66 6.98 2 8 C-0.86724686 7.42655063 -1.8614515 7.1385485 -4 5 C-3.01 5 -2.02 5 -1 5 C-0.67 3.35 -0.34 1.7 0 0 Z " fill="#F1BA1A" transform="translate(246,167)"/>
<path d="M0 0 C0.66 0 1.32 0 2 0 C2.33 1.65 2.66 3.3 3 5 C3.66 5 4.32 5 5 5 C5 5.66 5 6.32 5 7 C5.66 7 6.32 7 7 7 C7.66 8.32 8.32 9.64 9 11 C8.01 11 7.02 11 6 11 C4.39453125 9.1015625 4.39453125 9.1015625 2.8125 6.625 C2.01779297 5.40683594 2.01779297 5.40683594 1.20703125 4.1640625 C0 2 0 2 0 0 Z " fill="#35A48F" transform="translate(24,214)"/>
<path d="M0 0 C5.42039575 -0.40652968 9.07015675 0.96006486 14 3 C14 3.33 14 3.66 14 4 C11.03 4 8.06 4 5 4 C5 3.34 5 2.68 5 2 C3.35 1.67 1.7 1.34 0 1 C0 0.67 0 0.34 0 0 Z " fill="#F0C11A" transform="translate(48,170)"/>
<path d="M0 0 C0.33 0 0.66 0 1 0 C1.33 2.64 1.66 5.28 2 8 C1.67 8 1.34 8 1 8 C0.67 9.65 0.34 11.3 0 13 C-1.93443317 10.15524534 -1.99127818 8.89882691 -1.6875 5.375 C-1 2 -1 2 0 0 Z " fill="#E06C45" transform="translate(53,75)"/>
<path d="M0 0 C3.63 0 7.26 0 11 0 C9.68 0.33 8.36 0.66 7 1 C6.67 1.66 6.34 2.32 6 3 C4.02 3 2.04 3 0 3 C0 2.01 0 1.02 0 0 Z " fill="#2BA893" transform="translate(197,231)"/>
<path d="M0 0 C0.66 0 1.32 0 2 0 C2 2.31 2 4.62 2 7 C0.125 6.6875 0.125 6.6875 -2 6 C-2.66 5.01 -3.32 4.02 -4 3 C-3.01 2.67 -2.02 2.34 -1 2 C-0.67 1.34 -0.34 0.68 0 0 Z " fill="#F4C034" transform="translate(44,162)"/>
<path d="M0 0 C0.99 0.33 1.98 0.66 3 1 C3.33 3.64 3.66 6.28 4 9 C0.06153846 5.67692308 0.06153846 5.67692308 -0.25 2.25 C-0.1675 1.5075 -0.085 0.765 0 0 Z " fill="#EDBF3E" transform="translate(36,155)"/>
<path d="M0 0 C0.33 0 0.66 0 1 0 C0.67 2.31 0.34 4.62 0 7 C-1.65 7.66 -3.3 8.32 -5 9 C-5.33 8.34 -5.66 7.68 -6 7 C-5.01 6.67 -4.02 6.34 -3 6 C-3 5.34 -3 4.68 -3 4 C-2.34 4 -1.68 4 -1 4 C-0.67 2.68 -0.34 1.36 0 0 Z " fill="#EBCA6A" transform="translate(250,168)"/>
<path d="M0 0 C0.33 0 0.66 0 1 0 C1.36923077 6.52307692 1.36923077 6.52307692 -0.5 8.9375 C-0.995 9.288125 -1.49 9.63875 -2 10 C-2.25 3.375 -2.25 3.375 0 0 Z " fill="#F1C962" transform="translate(252,120)"/>
<path d="M0 0 C1.32 0.66 2.64 1.32 4 2 C3.0409375 2.2784375 3.0409375 2.2784375 2.0625 2.5625 C-0.42126213 3.94246056 -0.42126213 3.94246056 -0.75 7.625 C-0.8325 8.73875 -0.915 9.8525 -1 11 C-1.33 11 -1.66 11 -2 11 C-2.25 3.375 -2.25 3.375 0 0 Z " fill="#F26325" transform="translate(205,68)"/>
<path d="M0 0 C0.33 0.99 0.66 1.98 1 3 C-0.8125 5.6875 -0.8125 5.6875 -3 8 C-3.66 8 -4.32 8 -5 8 C-3.8141763 4.62496331 -2.72426311 2.35277269 0 0 Z " fill="#DF7651" transform="translate(59,67)"/>
</svg>
