<?xml version="1.0" encoding="UTF-8"?>
<svg version="1.1" xmlns="http://www.w3.org/2000/svg" width="286" height="244">
<path d="M0 0 C10.97052851 10.28457206 18.87904883 21.8670974 23.8203125 36.1640625 C24.2121875 37.20949219 24.6040625 38.25492188 25.0078125 39.33203125 C30.40706142 55.92347325 29.93683676 75.86001587 23.8203125 92.1640625 C23.45808594 93.20175781 23.09585938 94.23945313 22.72265625 95.30859375 C14.61683789 116.7134497 -1.85943016 131.87499687 -22.1953125 141.4375 C-41.85870653 150.23930053 -66.88899444 151.90426222 -87.1796875 144.1640625 C-109.5493342 135.06547085 -126.82146203 119.03490986 -136.71533203 96.7722168 C-145.39007928 76.02315919 -145.6768907 52.22530352 -137.4296875 31.2890625 C-132.43645378 19.38462318 -125.13868135 10.2504958 -116.1796875 1.1640625 C-115.44878906 0.42027344 -114.71789062 -0.32351562 -113.96484375 -1.08984375 C-82.38912128 -31.13676029 -31.39658284 -28.41530495 0 0 Z " fill="#2FC86C" transform="translate(204.1796875,61.8359375)"/>
<path d="M0 0 C13.92767472 9.06607679 21.49594023 21.6299587 25.37182617 37.67529297 C28.2718899 52.7133718 25.59810891 67.58258199 17.54760742 80.63232422 C8.78794662 93.21250505 -3.17493887 102.37997887 -18.46459961 105.36621094 C-22.75731304 105.97945571 -27.04714453 106.07684447 -31.37817383 106.11279297 C-32.24095947 106.12294434 -33.10374512 106.1330957 -33.99267578 106.14355469 C-48.44453151 105.94764409 -61.1988294 99.42186526 -71.62817383 89.67529297 C-83.31574893 77.16897356 -88.20520796 62.90815315 -88.11791992 45.78930664 C-87.63645452 33.5444304 -83.00748379 22.36545156 -75.62817383 12.67529297 C-75.02102539 11.87478516 -74.41387695 11.07427734 -73.78833008 10.24951172 C-55.89340725 -11.52447413 -23.17477054 -14.32643382 0 0 Z " fill="#97E94B" transform="translate(177.628173828125,76.32470703125)"/>
<path d="M0 0 C9.01092804 4.50546402 12.6723712 11.79332217 16.01953125 20.9140625 C19.22786709 31.01201197 19.78668278 43.3090668 15 53 C11.79916766 57.6234245 8.18895765 61.62790507 3 64 C2.34 64 1.68 64 1 64 C1.13132324 65.13663086 1.26264648 66.27326172 1.39794922 67.44433594 C2.73707923 79.369023 3.58320742 91.26440186 4.125 103.25 C4.16569611 104.13821442 4.20639221 105.02642883 4.24832153 105.94155884 C4.48578158 111.18788826 4.70584514 116.43469019 4.90960693 121.68243408 C4.96687523 123.15072207 5.02564866 124.61895277 5.08648682 126.08709717 C5.24663342 129.95370313 5.36162191 133.81836592 5.4375 137.6875 C5.47182129 138.5753418 5.50614258 139.46318359 5.54150391 140.37792969 C5.5702402 144.49132509 5.28228732 147.20397016 2.75390625 150.5390625 C-0.90395572 153.80779021 -0.90395572 153.80779021 -4.5 153.6875 C-8.11692901 153.4463714 -8.9837969 153.01248989 -12 150.6875 C-20.16393548 139.7172117 -14.23173601 114.44213344 -13.5 101.6875 C-13.28405217 97.89681839 -13.06938035 94.10608075 -12.85803223 90.31513977 C-12.72727807 87.972036 -12.59389853 85.62907666 -12.45739746 83.28630066 C-12.28399733 80.19145422 -12.13722574 77.09663578 -12 74 C-11.94392578 73.04106842 -11.88785156 72.08213684 -11.83007812 71.09414673 C-11.7965625 70.20303192 -11.76304687 69.31191711 -11.72851562 68.39379883 C-11.69165649 67.61506912 -11.65479736 66.83633942 -11.61682129 66.03401184 C-11.82813697 63.84628625 -11.82813697 63.84628625 -13.72302246 62.31059265 C-15.09605036 61.39458306 -16.48707009 60.50523057 -17.890625 59.63671875 C-22.39776141 56.13951476 -24.2414863 50.2755411 -26 45 C-27.36261849 30.29499717 -25.55603663 17.72144394 -16 6 C-11.06516761 1.11194327 -7.04250641 -0.923175 0 0 Z " fill="#8AC3D5" transform="translate(262,55)"/>
<path d="M0 0 C0.804375 0.144375 1.60875 0.28875 2.4375 0.4375 C4.92110441 4.16290662 4.6690867 6.06812973 4.6328125 10.51171875 C4.6299826 11.1955513 4.62715271 11.87938385 4.62423706 12.5839386 C4.61305684 14.76447165 4.58795691 16.94459145 4.5625 19.125 C4.55246738 20.60481177 4.54334202 22.08462999 4.53515625 23.56445312 C4.51312481 27.188936 4.47861002 30.81317766 4.4375 34.4375 C6.9125 33.9425 6.9125 33.9425 9.4375 33.4375 C9.467229 32.0445874 9.467229 32.0445874 9.49755859 30.62353516 C9.57558613 27.1829948 9.66227462 23.74290109 9.75488281 20.30273438 C9.79319998 18.81291111 9.82804808 17.32299446 9.859375 15.83300781 C9.90496729 13.69301952 9.96296874 11.55367564 10.0234375 9.4140625 C10.0548584 8.12580566 10.0862793 6.83754883 10.11865234 5.51025391 C10.4375 2.4375 10.4375 2.4375 12.4375 0.4375 C14.9375 0.125 14.9375 0.125 17.4375 0.4375 C19.92110441 4.16290662 19.6690867 6.06812973 19.6328125 10.51171875 C19.6299826 11.1955513 19.62715271 11.87938385 19.62423706 12.5839386 C19.61305684 14.76447165 19.58795691 16.94459145 19.5625 19.125 C19.55246738 20.60481177 19.54334202 22.08462999 19.53515625 23.56445312 C19.51312481 27.188936 19.47861002 30.81317766 19.4375 34.4375 C21.9125 33.9425 21.9125 33.9425 24.4375 33.4375 C24.45731934 32.5088916 24.47713867 31.5802832 24.49755859 30.62353516 C24.57558613 27.1829948 24.66227462 23.74290109 24.75488281 20.30273438 C24.79319998 18.81291111 24.82804808 17.32299446 24.859375 15.83300781 C24.90496729 13.69301952 24.96296874 11.55367564 25.0234375 9.4140625 C25.0548584 8.12580566 25.0862793 6.83754883 25.11865234 5.51025391 C25.4375 2.4375 25.4375 2.4375 27.4375 0.4375 C29.9375 0.1875 29.9375 0.1875 32.4375 0.4375 C34.89941922 2.89941922 34.70076083 3.61511351 34.74389648 7.00390625 C34.75988388 7.95249512 34.77587128 8.90108398 34.79234314 9.87841797 C34.79770584 10.90854004 34.80306854 11.93866211 34.80859375 13 C34.82213646 14.59158936 34.82213646 14.59158936 34.83595276 16.21533203 C34.85048794 18.46823292 34.85935006 20.72117633 34.86303711 22.97412109 C34.87485753 26.39625205 34.92394796 29.81653529 34.97460938 33.23828125 C34.98408236 35.42967873 34.9913132 37.62108726 34.99609375 39.8125 C35.01562607 40.82642822 35.03515839 41.84035645 35.05528259 42.88500977 C35.01104447 49.97307918 33.55197212 55.57346682 29.4375 61.4375 C27.47483826 63.0756073 27.47483826 63.0756073 25.625 64.33203125 C23.27944477 66.15670531 22.53441453 66.94160096 21.95703125 69.89599609 C21.93582035 73.00816505 22.14519392 76.02646358 22.4375 79.125 C22.59347518 81.47389034 22.74839082 83.82285124 22.90234375 86.171875 C22.99370605 87.37650391 23.08506836 88.58113281 23.17919922 89.82226562 C23.90697931 100.00843543 24.13277809 110.23146184 24.4375 120.4375 C24.4782666 121.66436523 24.5190332 122.89123047 24.56103516 124.15527344 C24.67346469 127.85348753 24.74815291 131.55066847 24.8125 135.25 C24.85060791 136.38300537 24.88871582 137.51601074 24.92797852 138.68334961 C25.01792584 147.44688367 25.01792584 147.44688367 22.1015625 151.1328125 C19.02318136 153.79592815 17.49789935 154.52209165 13.4375 154.4375 C9.74358997 152.8053072 7.56945427 150.84862683 5.4375 147.4375 C2.53334942 138.72504826 4.60125265 127.66160763 5.09375 118.60546875 C5.1936322 116.6914904 5.1936322 116.6914904 5.29553223 114.73884583 C5.47092972 111.38290445 5.64878102 108.02711476 5.82818604 104.67138672 C6.08126956 99.93359528 6.33152085 95.19565883 6.57946777 90.45759583 C6.71111494 87.94438331 6.84457523 85.43126493 6.98010254 82.91825867 C8.3112392 73.20574043 8.3112392 73.20574043 5.828125 64.50390625 C5.12171875 64.00761719 4.4153125 63.51132813 3.6875 63 C-1.13155583 59.15328464 -3.89360998 55.44678626 -4.92504883 49.2644043 C-5.66866003 40.99700274 -5.78267103 32.74189208 -5.80273438 24.4465332 C-5.81257861 21.98030554 -5.8437627 19.51486618 -5.875 17.04882812 C-5.88151942 15.47135904 -5.88677403 13.89388411 -5.890625 12.31640625 C-5.9029718 11.58410294 -5.9153186 10.85179962 -5.92803955 10.0973053 C-5.91422046 6.94337679 -5.73974224 4.75867998 -4.20214844 1.97241211 C-2.5625 0.4375 -2.5625 0.4375 0 0 Z " fill="#83BACD" transform="translate(21.5625,54.5625)"/>
<path d="M0 0 C10.97052851 10.28457206 18.87904883 21.8670974 23.8203125 36.1640625 C24.2121875 37.20949219 24.6040625 38.25492188 25.0078125 39.33203125 C30.45281866 56.06408144 29.79566979 75.67731026 23.8203125 92.1640625 C23.15226382 94.1636013 22.48518195 96.16346433 21.8203125 98.1640625 C21.1603125 98.1640625 20.5003125 98.1640625 19.8203125 98.1640625 C20.4739778 94.11133765 21.72385703 90.39365553 23.1015625 86.54296875 C27.69202492 71.34953608 27.13145664 49.75371362 20.8203125 35.1640625 C20.36140625 34.04386719 19.9025 32.92367187 19.4296875 31.76953125 C10.32062719 10.79472132 -5.65005049 -5.63676697 -26.953125 -14.171875 C-29.43129933 -15.02647425 -29.43129933 -15.02647425 -33.1796875 -14.8359375 C-33.1796875 -15.4959375 -33.1796875 -16.1559375 -33.1796875 -16.8359375 C-57.69240926 -21.57989272 -81.60040576 -20.00386782 -103.1796875 -6.8359375 C-105.95358678 -4.76369296 -108.59994974 -2.6351338 -111.19140625 -0.33984375 C-113.1796875 1.1640625 -113.1796875 1.1640625 -116.1796875 1.1640625 C-84.38040941 -30.46696545 -32.7133152 -29.60700634 0 0 Z " fill="#299D5C" transform="translate(204.1796875,61.8359375)"/>
<path d="M0 0 C0 3 0 3 -1.390625 4.5703125 C-2.31101562 5.33988281 -2.31101562 5.33988281 -3.25 6.125 C-3.85328125 6.64320312 -4.4565625 7.16140625 -5.078125 7.6953125 C-7.08941404 9.06069977 -8.65262215 9.47747979 -11 10 C-10.86867676 11.13663086 -10.73735352 12.27326172 -10.60205078 13.44433594 C-9.26292077 25.369023 -8.41679258 37.26440186 -7.875 49.25 C-7.83430389 50.13821442 -7.79360779 51.02642883 -7.75167847 51.94155884 C-7.51421842 57.18788826 -7.29415486 62.43469019 -7.09039307 67.68243408 C-7.03312477 69.15072207 -6.97435134 70.61895277 -6.91351318 72.08709717 C-6.75336658 75.95370313 -6.63837809 79.81836592 -6.5625 83.6875 C-6.52817871 84.5753418 -6.49385742 85.46318359 -6.45849609 86.37792969 C-6.42981675 90.48317357 -6.72275763 93.21628041 -9.2265625 96.55859375 C-12 99 -12 99 -14.45703125 99.5859375 C-15.23433594 99.51632813 -16.01164062 99.44671875 -16.8125 99.375 C-17.99779297 99.29378906 -17.99779297 99.29378906 -19.20703125 99.2109375 C-19.79871094 99.14132813 -20.39039063 99.07171875 -21 99 C-21.33 98.34 -21.66 97.68 -22 97 C-20.7625 97.061875 -19.525 97.12375 -18.25 97.1875 C-15.36821352 97.1875 -14.15555852 97.08376228 -11.5625 95.6875 C-7.51760021 91.31900823 -8.85952417 84.53371785 -9 79 C-9.23434039 73.07925191 -9.58923797 67.16490697 -9.9375 61.25 C-10.02569202 59.70574635 -10.11358393 58.16147553 -10.20117188 56.6171875 C-10.54378271 50.61981121 -10.88909971 44.62288345 -11.28735352 38.62890625 C-11.75409998 31.57858337 -12.15000263 24.56752005 -12.0625 17.5 C-12.05798828 16.76136719 -12.05347656 16.02273437 -12.04882812 15.26171875 C-12.03743887 13.50777396 -12.01953571 11.75387297 -12 10 C-12.66 10 -13.32 10 -14 10 C-14.33 10.66 -14.66 11.32 -15 12 C-15.99 11.34 -16.98 10.68 -18 10 C-18.33 10.66 -18.66 11.32 -19 12 C-19.33 11.67 -19.66 11.34 -20 11 C-21.39084641 20.66840802 -22.28453003 30.23439108 -22.65795898 39.99511719 C-22.85915031 45.05100909 -23.30438719 49.98698867 -24 55 C-24.33 55 -24.66 55 -25 55 C-25.02846497 52.37489751 -25.04909001 49.75020344 -25.0625 47.125 C-25.06725342 46.29742187 -25.07200684 45.46984375 -25.0769043 44.6171875 C-25.07927946 39.41843529 -24.93814337 34.24692069 -24.671875 29.0546875 C-24.61378662 27.88534668 -24.55569824 26.71600586 -24.49584961 25.51123047 C-24.374598 23.18920573 -24.24020803 20.86782603 -24.09204102 18.54736328 C-24.03717529 17.4798584 -23.98230957 16.41235352 -23.92578125 15.3125 C-23.86817627 14.35988281 -23.81057129 13.40726563 -23.7512207 12.42578125 C-23.7823663 9.92101293 -23.7823663 9.92101293 -25.50463867 8.16796875 C-25.99810791 7.78253906 -26.49157715 7.39710937 -27 7 C-25.68 7 -24.36 7 -23 7 C-22.67 6.34 -22.34 5.68 -22 5 C-22.66 4.67 -23.32 4.34 -24 4 C-23.01 3.67 -22.02 3.34 -21 3 C-21 4.32 -21 5.64 -21 7 C-20.34 6.67 -19.68 6.34 -19 6 C-18.67 5.01 -18.34 4.02 -18 3 C-17.01 3.33 -16.02 3.66 -15 4 C-15 5.32 -15 6.64 -15 8 C-14.34 8.33 -13.68 8.66 -13 9 C-12.67 7.68 -12.34 6.36 -12 5 C-11.29875 5.0825 -10.5975 5.165 -9.875 5.25 C-5.82649294 4.89795591 -2.86601603 2.86601603 0 0 Z " fill="#75A2B3" transform="translate(274,109)"/>
<path d="M0 0 C0.21710487 4.78657309 0.41395012 9.57338856 0.59204102 14.36157227 C0.65547997 15.99037954 0.72445596 17.61898094 0.79907227 19.24731445 C0.90535765 21.5877328 0.99172142 23.9281687 1.07421875 26.26953125 C1.11157639 26.99775589 1.14893402 27.72598053 1.18742371 28.47627258 C1.34012254 33.60822166 1.34012254 33.60822166 -0.50463867 35.7331543 C-1.24484253 36.36024292 -1.24484253 36.36024292 -2 37 C-2 38.32 -2 39.64 -2 41 C-2.66 41 -3.32 41 -4 41 C-4 41.66 -4 42.32 -4 43 C-4.66 43 -5.32 43 -6 43 C-6 28.81 -6 14.62 -6 0 C-3.50907189 -1.24546405 -2.58919267 -0.7767578 0 0 Z " fill="#8AC3D7" transform="translate(24,57)"/>
<path d="M0 0 C9.01092804 4.50546402 12.6723712 11.79332217 16.01953125 20.9140625 C19.24784805 31.07490025 19.65841563 43.19168452 15 53 C14.01 53.495 14.01 53.495 13 54 C12.505 50.04 12.505 50.04 12 46 C12.99 46.33 13.98 46.66 15 47 C15.11795981 43.54196269 15.18782752 40.08445443 15.25 36.625 C15.28351563 35.65949219 15.31703125 34.69398437 15.3515625 33.69921875 C15.47899414 24.2055618 12.49454296 14.23084289 6 7 C4.0612844 6.26011266 4.0612844 6.26011266 2 6 C0.9275 5.814375 -0.145 5.62875 -1.25 5.4375 C-2.61125 5.2209375 -2.61125 5.2209375 -4 5 C-4 5.66 -4 6.32 -4 7 C-4.99 7 -5.98 7 -7 7 C-6.34 5.68 -5.68 4.36 -5 3 C-6.32 3.33 -7.64 3.66 -9 4 C-9.33 5.65 -9.66 7.3 -10 9 C-10.721875 9.103125 -11.44375 9.20625 -12.1875 9.3125 C-15.24491993 10.05986932 -17.38329635 11.28045189 -20 13 C-18.63924722 7.3868948 -14.37378806 4.38968575 -10 1 C-6.77977884 -0.61011058 -3.49234085 -0.45779749 0 0 Z " fill="#7DB1C1" transform="translate(262,55)"/>
<path d="M0 0 C1.375 0.91666667 2.75 1.83333333 4.125 2.75 C4.95515625 3.29914063 5.7853125 3.84828125 6.640625 4.4140625 C8.41567026 5.60722206 10.15503747 6.85372335 11.875 8.125 C25.60022385 16.36013431 42.85298889 17.23833461 58.19042969 13.56713867 C61.15076911 12.7759665 64.07868934 11.92556377 67 11 C66 13 66 13 63.3046875 14.03515625 C48.70574184 18.40818895 33.2380832 20.73073024 19 14 C15.01794043 12.28359501 11.03457621 10.58937851 7 9 C7 8.34 7 7.68 7 7 C6.34 7 5.68 7 5 7 C4.67 7.66 4.34 8.32 4 9 C2.68 8.34 1.36 7.68 0 7 C0.66 6.67 1.32 6.34 2 6 C1.34 4.02 0.68 2.04 0 0 Z " fill="#3AC455" transform="translate(106,166)"/>
<path d="M0 0 C7.22997992 5.16777851 11.22405398 13.837152 12.75390625 22.52734375 C13.64505764 31.48129342 13.9478435 40.68779741 10 49 C9.01 49.495 9.01 49.495 8 50 C7.67 47.36 7.34 44.72 7 42 C7.99 42.33 8.98 42.66 10 43 C10.11795981 39.54196269 10.18782752 36.08445443 10.25 32.625 C10.28351563 31.65949219 10.31703125 30.69398437 10.3515625 29.69921875 C10.48213238 19.97176271 7.43491174 12.67592175 2.05078125 4.69140625 C1 3 1 3 0 0 Z " fill="#749FB1" transform="translate(267,59)"/>
<path d="M0 0 C0.87309814 0.00273926 1.74619629 0.00547852 2.64575195 0.00830078 C9.36344575 0.11642017 15.98952606 0.672687 22.25 3.3125 C22.745 4.3025 22.745 4.3025 23.25 5.3125 C17.92448276 4.49318966 17.92448276 4.49318966 15.33984375 3.80078125 C2.00243148 0.28568755 -11.29107628 2.04054523 -23.71875 7.60546875 C-24.3890625 7.83878906 -25.059375 8.07210937 -25.75 8.3125 C-26.41 7.9825 -27.07 7.6525 -27.75 7.3125 C-26.25565577 6.51020863 -24.75413528 5.72128133 -23.25 4.9375 C-22.4146875 4.49664062 -21.579375 4.05578125 -20.71875 3.6015625 C-13.82075186 0.6063791 -7.42612263 -0.04706848 0 0 Z " fill="#8BEF60" transform="translate(145.75,67.6875)"/>
<path d="M0 0 C0.66 0.33 1.32 0.66 2 1 C1.67 2.0725 1.34 3.145 1 4.25 C-1.01793479 12.39380827 -1.05672806 22.08945651 2 30 C3.97827485 32.39909163 3.97827485 32.39909163 6 34 C6 34.66 6 35.32 6 36 C6.66 36.33 7.32 36.66 8 37 C8.625 39.0625 8.625 39.0625 9 41 C5.70857763 39.62740684 4.20580047 38.29739691 2.375 35.25 C1.97023437 34.59515625 1.56546875 33.9403125 1.1484375 33.265625 C-1.8870503 27.27724771 -2.31144942 22.0853297 -2.25 15.5 C-2.25773438 14.67113281 -2.26546875 13.84226562 -2.2734375 12.98828125 C-2.25841117 8.26249925 -1.8165653 4.44049296 0 0 Z " fill="#6A9DAA" transform="translate(238,75)"/>
<path d="M0 0 C1.03318359 -0.00773437 2.06636719 -0.01546875 3.13085938 -0.0234375 C18.82882937 0.01632937 18.82882937 0.01632937 23.0625 4.25 C17.0625 3.25 17.0625 3.25 14.4609375 2.73046875 C3.41829892 1.16926812 -8.51662935 1.05298923 -18.9375 5.25 C-20.30779188 5.66183636 -21.68257904 6.05917847 -23.0625 6.4375 C-24.01125 6.705625 -24.96 6.97375 -25.9375 7.25 C-24.49800008 4.37100017 -22.80102171 3.71222385 -19.9375 2.25 C-13.23193472 0.14689089 -6.99729612 -0.05218617 0 0 Z " fill="#39C252" transform="translate(144.9375,66.75)"/>
<path d="M0 0 C0 3 0 3 -1.28515625 4.5703125 C-5.54386227 8.2955103 -8.32087644 9.76819904 -14 10 C-13.34 8.35 -12.68 6.7 -12 5 C-11.29875 5.0825 -10.5975 5.165 -9.875 5.25 C-5.82649294 4.89795591 -2.86601603 2.86601603 0 0 Z " fill="#7CBACB" transform="translate(274,109)"/>
<path d="M0 0 C0.66 0.33 1.32 0.66 2 1 C1.31164062 1.76183594 1.31164062 1.76183594 0.609375 2.5390625 C-2.94679662 6.52854915 -6.16708282 10.46733251 -9 15 C-10.33332095 12.3333581 -9.67102033 10.83319697 -9 8 C-8.01 8 -7.02 8 -6 8 C-5.938125 7.236875 -5.87625 6.47375 -5.8125 5.6875 C-5 3 -5 3 -2.5625 1.125 C-1.716875 0.75375 -0.87125 0.3825 0 0 Z " fill="#35C358" transform="translate(107,81)"/>
<path d="M0 0 C6.22987798 0.50512524 11.45474233 3.32604123 17 6 C12.55342414 7.47244069 10.19900211 5.87455451 6 4 C4.68 4 3.36 4 2 4 C2 3.34 2 2.68 2 2 C1.34 2 0.68 2 0 2 C0 1.34 0 0.68 0 0 Z " fill="#2FA062" transform="translate(169,43)"/>
<path d="M0 0 C1.31896465 0.92838287 2.62998689 1.86805732 3.9375 2.8125 C4.66839844 3.33457031 5.39929688 3.85664063 6.15234375 4.39453125 C8 6 8 6 9 9 C8.34 9 7.68 9 7 9 C7 8.34 7 7.68 7 7 C6.34 7 5.68 7 5 7 C4.67 7.66 4.34 8.32 4 9 C2.68 8.34 1.36 7.68 0 7 C0.66 6.67 1.32 6.34 2 6 C1.34 4.02 0.68 2.04 0 0 Z " fill="#34C65F" transform="translate(106,166)"/>
<path d="M0 0 C0.33 0.66 0.66 1.32 1 2 C-0.6974182 6.7349034 -2.64883798 10.18660874 -6 14 C-5.57202798 8.29370646 -3.15654048 4.58921384 0 0 Z " fill="#8DF05E" transform="translate(100,92)"/>
<path d="M0 0 C2 1.375 2 1.375 4 3 C4 3.66 4 4.32 4 5 C4.66 5.33 5.32 5.66 6 6 C6.625 8.0625 6.625 8.0625 7 10 C3.64501065 8.61172854 1.84949545 7.14414226 0 4 C0 2.68 0 1.36 0 0 Z " fill="#76A8B8" transform="translate(240,106)"/>
<path d="M0 0 C4.51707932 0.5314211 7.38687577 2.29015683 11 5 C11.33 5.66 11.66 6.32 12 7 C7.69235185 5.43358249 3.93828536 3.31663844 0 1 C0 0.67 0 0.34 0 0 Z " fill="#3CC352" transform="translate(168,71)"/>
<path d="M0 0 C0.33 0 0.66 0 1 0 C1.04898437 0.69867188 1.09796875 1.39734375 1.1484375 2.1171875 C1.22320313 3.02726563 1.29796875 3.93734375 1.375 4.875 C1.44460937 5.77992188 1.51421875 6.68484375 1.5859375 7.6171875 C1.79568132 10.17941903 1.79568132 10.17941903 4 12 C2.02 12.99 2.02 12.99 0 14 C0 9.38 0 4.76 0 0 Z " fill="#83BBCE" transform="translate(28,176)"/>
<path d="M0 0 C0.66 0.33 1.32 0.66 2 1 C-0.97 4.96 -0.97 4.96 -4 9 C-4.33 7.68 -4.66 6.36 -5 5 C-4.01 4.67 -3.02 4.34 -2 4 C-0.79117904 1.99983534 -0.79117904 1.99983534 0 0 Z " fill="#8EEE5D" transform="translate(194,155)"/>
<path d="M0 0 C0.33 0 0.66 0 1 0 C1 1.65 1 3.3 1 5 C1.66 5 2.32 5 3 5 C2.67 6.32 2.34 7.64 2 9 C0.68 8.67 -0.64 8.34 -2 8 C-1.34 8 -0.68 8 0 8 C0 5.36 0 2.72 0 0 Z " fill="#7BBBCA" transform="translate(250,156)"/>
<path d="M0 0 C0 3 0 3 -1.875 5.1875 C-4 7 -4 7 -6 7 C-5.75 5.125 -5.75 5.125 -5 3 C-3 1.8125 -3 1.8125 -1 1 C-0.67 0.67 -0.34 0.34 0 0 Z " fill="#76A3B4" transform="translate(274,109)"/>
<path d="M0 0 C0.66 0 1.32 0 2 0 C2.33 2.31 2.66 4.62 3 7 C2.01 7.495 2.01 7.495 1 8 C0.67 5.36 0.34 2.72 0 0 Z " fill="#7EB3C6" transform="translate(274,101)"/>
</svg>
