<?xml version="1.0" encoding="UTF-8"?>
<svg version="1.1" xmlns="http://www.w3.org/2000/svg" width="245" height="246">
<path d="M0 0 C4.80610648 3.43440656 7.97445137 7.70446593 9.8203125 13.30078125 C10.77025077 20.59100515 9.95213083 27.12707595 5.8203125 33.30078125 C2.80755746 36.49156273 -0.53965372 38.87409206 -4.1796875 41.30078125 C-1.74312065 42.44863501 0.69450531 43.59413527 3.1328125 44.73828125 C3.82310547 45.06376953 4.51339844 45.38925781 5.22460938 45.72460938 C11.35111952 48.62661784 11.35111952 48.62661784 17.9453125 49.11328125 C23.39956251 49.08710085 27.03439181 50.84240184 31.8203125 53.30078125 C33.08847196 53.90393443 34.35813318 54.50393555 35.62890625 55.1015625 C52.65833019 63.20784927 65.37383179 75.65881286 78.62817383 88.8684082 C80.40463203 90.63497934 82.19149102 92.39061041 83.97851562 94.14648438 C85.11523544 95.27668826 86.2513273 96.40752416 87.38671875 97.5390625 C87.91890518 98.05890213 88.45109161 98.57874176 88.99940491 99.11433411 C93.68294496 103.82666592 93.68294496 103.82666592 93.8203125 107.30078125 C91.76881437 110.60101737 89.13067027 112.92451813 86.1953125 115.40625 C83.14992859 118.0487669 80.32639619 120.79926493 77.56640625 123.73828125 C76.85677734 124.48722656 76.14714844 125.23617187 75.41601562 126.0078125 C73.95972655 127.55503727 72.51723514 129.11534969 71.08789062 130.6875 C65.83203603 136.16812726 65.83203603 136.16812726 62.73486328 136.57421875 C60.79296875 136.30078125 60.79296875 136.30078125 57.8203125 135.30078125 C57.8203125 134.64078125 57.8203125 133.98078125 57.8203125 133.30078125 C57.1603125 133.30078125 56.5003125 133.30078125 55.8203125 133.30078125 C55.8203125 132.64078125 55.8203125 131.98078125 55.8203125 131.30078125 C55.2221875 131.03265625 54.6240625 130.76453125 54.0078125 130.48828125 C51.83714367 129.30991817 50.51214038 128.07017144 48.8203125 126.30078125 C48.80818222 127.73445038 48.80818222 127.73445038 48.79580688 129.19708252 C48.7183388 138.20223529 48.6305978 147.20723709 48.53278542 156.21219254 C48.482829 160.84178925 48.43649887 165.47136322 48.3984375 170.10107422 C48.36157647 174.56858657 48.31521423 179.03590832 48.26224899 183.50325775 C48.2437094 185.20806283 48.22859982 186.91290876 48.21696854 188.61777496 C48.2000986 191.00482216 48.17106207 193.39143328 48.13916016 195.77832031 C48.13591988 196.83675896 48.13591988 196.83675896 48.13261414 197.9165802 C48.07137849 201.50064684 47.99955836 204.36898812 45.8203125 207.30078125 C42.86318737 209.09869791 40.65894368 209.55037134 37.22142029 209.54801941 C35.84396133 209.55431114 35.84396133 209.55431114 34.43867493 209.56072998 C33.43853867 209.55511047 32.4384024 209.54949097 31.40795898 209.54370117 C30.34905457 209.54559952 29.29015015 209.54749786 28.19915771 209.54945374 C24.69649875 209.5531606 21.19404681 209.54245882 17.69140625 209.53125 C15.26050338 209.53005809 12.82960005 209.52960506 10.3986969 209.52986145 C5.30361041 209.52829676 0.2085942 209.52000771 -4.88647461 209.5065918 C-11.42601442 209.48959302 -17.96547704 209.48577774 -24.50503635 209.48653698 C-29.52435547 209.48626541 -34.54365763 209.48078646 -39.56297112 209.47353554 C-41.97478037 209.47034774 -44.38659154 209.4683812 -46.79840279 209.46764183 C-50.16454487 209.46547997 -53.53060415 209.45673923 -56.89672852 209.44604492 C-58.39996925 209.4467247 -58.39996925 209.4467247 -59.93357849 209.44741821 C-60.84906464 209.44315323 -61.76455078 209.43888824 -62.70777893 209.43449402 C-63.90154317 209.43198025 -63.90154317 209.43198025 -65.11942387 209.4294157 C-67.1796875 209.30078125 -67.1796875 209.30078125 -70.1796875 208.30078125 C-72.63741324 204.61419264 -72.48618844 201.79204599 -72.49853516 197.5246582 C-72.50858078 196.73418091 -72.5186264 195.94370361 -72.52897644 195.12927246 C-72.55987281 192.51587655 -72.57686139 189.90258339 -72.59375 187.2890625 C-72.61245647 185.47730115 -72.63202949 183.66554855 -72.6524353 181.85380554 C-72.70381761 177.08467771 -72.74341065 172.31552162 -72.78057861 167.54626465 C-72.82058007 162.67986016 -72.87168999 157.81357387 -72.921875 152.94726562 C-73.01870647 143.39852046 -73.10308813 133.84970864 -73.1796875 124.30078125 C-74.17548828 125.36619141 -74.17548828 125.36619141 -75.19140625 126.453125 C-76.07441406 127.37222656 -76.95742187 128.29132813 -77.8671875 129.23828125 C-78.73730469 130.15480469 -79.60742188 131.07132813 -80.50390625 132.015625 C-83.24501462 134.35657156 -84.61983953 135.13791981 -88.1796875 135.30078125 C-90.20703125 134.04296875 -90.20703125 134.04296875 -92.1171875 132.17578125 C-92.80296875 131.52609375 -93.48875 130.87640625 -94.1953125 130.20703125 C-95.17757812 129.2634375 -95.17757812 129.2634375 -96.1796875 128.30078125 C-97.23303675 127.41478655 -98.29454535 126.53831824 -99.3671875 125.67578125 C-106.81886276 119.38325548 -106.81886276 119.38325548 -108.1796875 115.30078125 C-108.8396875 115.30078125 -109.4996875 115.30078125 -110.1796875 115.30078125 C-111.55042536 113.66473929 -112.88024006 111.99400064 -114.1796875 110.30078125 C-114.7778125 109.82640625 -115.3759375 109.35203125 -115.9921875 108.86328125 C-117.1796875 107.30078125 -117.1796875 107.30078125 -117.17114258 104.6574707 C-115.77027348 99.91466123 -112.99099567 97.43134054 -109.50390625 94.03125 C-108.82350784 93.35081131 -108.14310944 92.67037262 -107.4420929 91.96931458 C-105.99785782 90.53043595 -104.54750739 89.09767312 -103.09155273 87.6706543 C-100.89931849 85.51980566 -98.72870833 83.34891108 -96.56054688 81.17382812 C-86.88692465 71.54249451 -77.18244801 62.00275089 -64.4921875 56.48828125 C-63.85917725 56.21040771 -63.22616699 55.93253418 -62.57397461 55.64624023 C-60.77836616 54.85872488 -58.97914179 54.07946887 -57.1796875 53.30078125 C-56.29796875 52.86507812 -55.41625 52.429375 -54.5078125 51.98046875 C-53.76015625 51.61179688 -53.0125 51.243125 -52.2421875 50.86328125 C-51.63503906 50.55519531 -51.02789062 50.24710938 -50.40234375 49.9296875 C-48.1796875 49.30078125 -48.1796875 49.30078125 -44.57421875 49.484375 C-39.04512873 49.59661149 -34.67778426 47.18366117 -29.8046875 44.80078125 C-28.02743228 43.95410602 -26.24885032 43.11020831 -24.46875 42.26953125 C-23.69225098 41.89248047 -22.91575195 41.51542969 -22.11572266 41.12695312 C-20.1796875 40.30078125 -20.1796875 40.30078125 -18.1796875 40.30078125 C-18.0971875 39.55828125 -18.0146875 38.81578125 -17.9296875 38.05078125 C-16.59477038 33.15608514 -13.21984759 31.28022319 -9.0546875 28.80078125 C-8.37148437 28.41921875 -7.68828125 28.03765625 -6.984375 27.64453125 C-4.84805659 26.05385261 -4.12125219 24.77357741 -3.1796875 22.30078125 C-2.85333376 18.3845364 -2.9443206 15.59500616 -5.1796875 12.30078125 C-9.21129504 9.61304289 -12.44418367 9.51570654 -17.1796875 10.30078125 C-21.07677755 12.98544329 -22.42213411 15.76789013 -24.0546875 20.05078125 C-25.01171875 22.39453125 -25.01171875 22.39453125 -26.1796875 24.30078125 C-29.7421875 25.55078125 -29.7421875 25.55078125 -33.1796875 25.30078125 C-35.1171875 24.36328125 -35.1171875 24.36328125 -36.1796875 22.30078125 C-36.9264436 16.00669413 -35.86850921 11.48171062 -32.1796875 6.30078125 C-23.23423178 -3.59463437 -12.06903886 -6.71859451 0 0 Z M-24.7421875 56.67578125 C-26.07540039 57.29453125 -26.07540039 57.29453125 -27.43554688 57.92578125 C-28.70301758 58.52519531 -28.70301758 58.52519531 -29.99609375 59.13671875 C-30.77412354 59.5032959 -31.55215332 59.86987305 -32.35375977 60.24755859 C-34.34539647 61.17276179 -34.34539647 61.17276179 -35.1796875 63.30078125 C-34.5196875 63.30078125 -33.8596875 63.30078125 -33.1796875 63.30078125 C-32.8496875 64.29078125 -32.5196875 65.28078125 -32.1796875 66.30078125 C-29.96424094 67.7315655 -29.96424094 67.7315655 -27.3046875 68.92578125 C-26.42039062 69.35117188 -25.53609375 69.7765625 -24.625 70.21484375 C-18.04853614 73.13538201 -10.43797812 73.55468024 -3.5 71.51171875 C-1.31193548 70.54661285 0.74707033 69.49041709 2.8203125 68.30078125 C3.8309375 67.78515625 4.8415625 67.26953125 5.8828125 66.73828125 C6.5221875 66.26390625 7.1615625 65.78953125 7.8203125 65.30078125 C7.8203125 64.31078125 7.8203125 63.32078125 7.8203125 62.30078125 C4.36497936 60.62784118 0.90557257 58.96350362 -2.5546875 57.30078125 C-3.53953125 56.82382813 -4.524375 56.346875 -5.5390625 55.85546875 C-6.48007813 55.40429688 -7.42109375 54.953125 -8.390625 54.48828125 C-9.69459229 53.85986328 -9.69459229 53.85986328 -11.02490234 53.21875 C-15.94791271 51.12147842 -20.25143444 54.54324593 -24.7421875 56.67578125 Z " fill="#2CC86F" transform="translate(133.1796875,23.69921875)"/>
<path d="M0 0 C4.80610648 3.43440656 7.97445137 7.70446593 9.8203125 13.30078125 C10.77025077 20.59100515 9.95213083 27.12707595 5.8203125 33.30078125 C2.80755746 36.49156273 -0.53965372 38.87409206 -4.1796875 41.30078125 C-1.74312065 42.44863501 0.69450531 43.59413527 3.1328125 44.73828125 C3.82310547 45.06376953 4.51339844 45.38925781 5.22460938 45.72460938 C10.88266606 48.37596927 14.52337376 49.39094111 20.6640625 49.04296875 C23.34361323 49.36334982 24.14634096 50.25123917 25.8203125 52.30078125 C24.8303125 52.30078125 23.8403125 52.30078125 22.8203125 52.30078125 C22.7378125 53.29078125 22.6553125 54.28078125 22.5703125 55.30078125 C21.35450574 63.65945272 16.25372836 70.77609434 9.6953125 75.92578125 C0.09821442 82.26232678 -10.88739474 84.22359331 -22.1796875 82.30078125 C-31.95613102 79.48945761 -40.74283199 73.3807222 -45.76953125 64.48828125 C-47.85271516 60.14879565 -49.1796875 57.16790127 -49.1796875 52.30078125 C-50.1696875 51.97078125 -51.1596875 51.64078125 -52.1796875 51.30078125 C-49.4095873 49.45404778 -48.06968095 49.30764135 -44.671875 49.51953125 C-39.10190143 49.59045406 -34.71725746 47.20296303 -29.8046875 44.80078125 C-28.02743228 43.95410602 -26.24885032 43.11020831 -24.46875 42.26953125 C-23.30400146 41.70395508 -23.30400146 41.70395508 -22.11572266 41.12695312 C-20.1796875 40.30078125 -20.1796875 40.30078125 -18.1796875 40.30078125 C-18.0971875 39.55828125 -18.0146875 38.81578125 -17.9296875 38.05078125 C-16.59477038 33.15608514 -13.21984759 31.28022319 -9.0546875 28.80078125 C-8.37148437 28.41921875 -7.68828125 28.03765625 -6.984375 27.64453125 C-4.84805659 26.05385261 -4.12125219 24.77357741 -3.1796875 22.30078125 C-2.85333376 18.3845364 -2.9443206 15.59500616 -5.1796875 12.30078125 C-9.21129504 9.61304289 -12.44418367 9.51570654 -17.1796875 10.30078125 C-21.07677755 12.98544329 -22.42213411 15.76789013 -24.0546875 20.05078125 C-25.01171875 22.39453125 -25.01171875 22.39453125 -26.1796875 24.30078125 C-29.7421875 25.55078125 -29.7421875 25.55078125 -33.1796875 25.30078125 C-35.1171875 24.36328125 -35.1171875 24.36328125 -36.1796875 22.30078125 C-36.9264436 16.00669413 -35.86850921 11.48171062 -32.1796875 6.30078125 C-23.23423178 -3.59463437 -12.06903886 -6.71859451 0 0 Z M-24.7421875 56.67578125 C-26.07540039 57.29453125 -26.07540039 57.29453125 -27.43554688 57.92578125 C-28.70301758 58.52519531 -28.70301758 58.52519531 -29.99609375 59.13671875 C-30.77412354 59.5032959 -31.55215332 59.86987305 -32.35375977 60.24755859 C-34.34539647 61.17276179 -34.34539647 61.17276179 -35.1796875 63.30078125 C-34.5196875 63.30078125 -33.8596875 63.30078125 -33.1796875 63.30078125 C-32.8496875 64.29078125 -32.5196875 65.28078125 -32.1796875 66.30078125 C-29.96424094 67.7315655 -29.96424094 67.7315655 -27.3046875 68.92578125 C-26.42039062 69.35117188 -25.53609375 69.7765625 -24.625 70.21484375 C-18.04853614 73.13538201 -10.43797812 73.55468024 -3.5 71.51171875 C-1.31193548 70.54661285 0.74707033 69.49041709 2.8203125 68.30078125 C3.8309375 67.78515625 4.8415625 67.26953125 5.8828125 66.73828125 C6.5221875 66.26390625 7.1615625 65.78953125 7.8203125 65.30078125 C7.8203125 64.31078125 7.8203125 63.32078125 7.8203125 62.30078125 C4.36497936 60.62784118 0.90557257 58.96350362 -2.5546875 57.30078125 C-3.53953125 56.82382813 -4.524375 56.346875 -5.5390625 55.85546875 C-6.48007813 55.40429688 -7.42109375 54.953125 -8.390625 54.48828125 C-9.69459229 53.85986328 -9.69459229 53.85986328 -11.02490234 53.21875 C-15.94791271 51.12147842 -20.25143444 54.54324593 -24.7421875 56.67578125 Z " fill="#F15047" transform="translate(133.1796875,23.69921875)"/>
<path d="M0 0 C1.86127406 1.86127406 1.46118139 4.49929136 1.71875 6.9921875 C1.9662595 9.20138785 1.9662595 9.20138785 3 12 C4.6635479 12.67441131 6.33066942 13.3400321 8 14 C8.556875 14.61875 9.11375 15.2375 9.6875 15.875 C15.92345342 21.60533558 23.6702605 22.64982123 31.87890625 22.3984375 C36.4530494 21.81450433 39.98478163 20.16654491 44 18 C45.485 17.4740625 45.485 17.4740625 47 16.9375 C47.66 16.628125 48.32 16.31875 49 16 C49.33 15.01 49.66 14.02 50 13 C50.99 13 51.98 13 53 13 C55.24828052 8.50343896 55.16682272 4.92127034 55 0 C56.43655854 -0.08131463 57.8744483 -0.13933559 59.3125 -0.1875 C60.51326172 -0.23970703 60.51326172 -0.23970703 61.73828125 -0.29296875 C64.47851584 0.06198392 65.29171079 0.89366282 67 3 C66.01 3 65.02 3 64 3 C63.9175 3.99 63.835 4.98 63.75 6 C62.53419324 14.35867147 57.43341586 21.47531309 50.875 26.625 C41.27790192 32.96154553 30.29229276 34.92281206 19 33 C9.22355648 30.18867636 0.43685551 24.07994095 -4.58984375 15.1875 C-6.67302766 10.8480144 -8 7.86712002 -8 3 C-8.99 2.67 -9.98 2.34 -11 2 C-7.36736489 -0.32488647 -4.23314767 -0.23961213 0 0 Z " fill="#EED130" transform="translate(92,73)"/>
<path d="M0 0 C0 0.99 0 1.98 0 3 C-0.33 3.33 -0.66 3.66 -1 4 C0.32 4.66 1.64 5.32 3 6 C3 7.65 3 9.3 3 11 C3.99 11.33 4.98 11.66 6 12 C4.68 14.31 3.36 16.62 2 19 C-1.96 18.67 -5.92 18.34 -10 18 C-10.66 18.99 -11.32 19.98 -12 21 C-14.0234375 22.1328125 -14.0234375 22.1328125 -16.375 23.125 C-17.14585938 23.45757812 -17.91671875 23.79015625 -18.7109375 24.1328125 C-20.79877027 24.92376621 -22.83440979 25.47459309 -25 26 C-26.3479743 26.63654342 -27.68596724 27.29605388 -29 28 C-31.13586678 24.79619983 -31.23132175 23.98060033 -31.125 20.3125 C-31.10695313 19.50425781 -31.08890625 18.69601563 -31.0703125 17.86328125 C-31.04710938 17.24839844 -31.02390625 16.63351563 -31 16 C-28.42249905 14.79816525 -25.83928838 13.61343114 -23.25 12.4375 C-22.52039063 12.09525391 -21.79078125 11.75300781 -21.0390625 11.40039062 C-20.33007812 11.08134766 -19.62109375 10.76230469 -18.890625 10.43359375 C-17.91657715 9.98584595 -17.91657715 9.98584595 -16.92285156 9.52905273 C-14.58794603 8.88662761 -13.2904138 9.3213043 -11 10 C-8.81296615 9.62092718 -8.81296615 9.62092718 -7 9 C-6.67 6.36 -6.34 3.72 -6 1 C-4.02 0.67 -2.04 0.34 0 0 Z " fill="#F84C40" transform="translate(124,57)"/>
<path d="M0 0 C1.24546405 2.49092811 0.7767578 3.41080733 0 6 C-0.66 6 -1.32 6 -2 6 C-2 6.66 -2 7.32 -2 8 C-1.34 8 -0.68 8 0 8 C-0.66 9.32 -1.32 10.64 -2 12 C-2.66 12 -3.32 12 -4 12 C-4 12.66 -4 13.32 -4 14 C-7.28976808 15.09658936 -8.71303767 14.79953138 -12 14 C-12.2475 14.61875 -12.495 15.2375 -12.75 15.875 C-14.20628639 18.35068687 -15.37812506 18.95125002 -18 20 C-18 20.66 -18 21.32 -18 22 C-20.97 21.34 -23.94 20.68 -27 20 C-27 20.66 -27 21.32 -27 22 C-30.375 22.125 -30.375 22.125 -34 22 C-34.66 21.34 -35.32 20.68 -36 20 C-36.763125 20 -37.52625 20 -38.3125 20 C-41.32551081 20 -43.28239021 19.24233591 -46 18 C-46 17.01 -46 16.02 -46 15 C-47.98 14.01 -49.96 13.02 -52 12 C-51.67 11.34 -51.34 10.68 -51 10 C-50.10474609 10.54140625 -50.10474609 10.54140625 -49.19140625 11.09375 C-39.77577324 16.13034418 -30.11191652 16.46726433 -19.78125 14.3359375 C-11.74214821 11.73903664 -4.86385404 6.930992 0 0 Z " fill="#23C069" transform="translate(151,90)"/>
<path d="M0 0 C3.95827235 -0.05785647 7.9164367 -0.09354717 11.875 -0.125 C13.00292969 -0.14175781 14.13085938 -0.15851563 15.29296875 -0.17578125 C16.36933594 -0.18222656 17.44570312 -0.18867187 18.5546875 -0.1953125 C19.54968262 -0.20578613 20.54467773 -0.21625977 21.56982422 -0.22705078 C24 0 24 0 26 2 C25.75 4.0625 25.75 4.0625 25 6 C22.36002351 7.31998825 20.35922683 7.12956032 17.40625 7.1328125 C15.73755859 7.13474609 15.73755859 7.13474609 14.03515625 7.13671875 C12.86855469 7.13285156 11.70195313 7.12898438 10.5 7.125 C9.33339844 7.12886719 8.16679688 7.13273437 6.96484375 7.13671875 C5.85238281 7.13542969 4.73992187 7.13414063 3.59375 7.1328125 C2.56958984 7.13168457 1.54542969 7.13055664 0.49023438 7.12939453 C-2 7 -2 7 -4 6 C-4 5.01 -4 4.02 -4 3 C-3.01 2.67 -2.02 2.34 -1 2 C-0.67 1.34 -0.34 0.68 0 0 Z " fill="#FACC16" transform="translate(108,97)"/>
<path d="M0 0 C1.32 0 2.64 0 4 0 C4.05418326 2.08304538 4.09287551 4.16649768 4.125 6.25 C4.14820313 7.41015625 4.17140625 8.5703125 4.1953125 9.765625 C4.0090524 12.85009231 3.71677703 14.47567977 2 17 C-0.0625 18.125 -0.0625 18.125 -2 19 C-2.33 19.66 -2.66 20.32 -3 21 C-4.65 21 -6.3 21 -8 21 C-8.33 19.35 -8.66 17.7 -9 16 C-8.01 15.67 -7.02 15.34 -6 15 C-6.99 15 -7.98 15 -9 15 C-8.67 14.01 -8.34 13.02 -8 12 C-7.34 11.67 -6.68 11.34 -6 11 C-6 8.03 -6 5.06 -6 2 C-4.68 2.66 -3.36 3.32 -2 4 C-2 4.66 -2 5.32 -2 6 C-1.34 6 -0.68 6 0 6 C0 4.02 0 2.04 0 0 Z " fill="#F7483F" transform="translate(138,38)"/>
<path d="M0 0 C0.32332002 4.63425362 -0.1355568 7.28683289 -3 11 C-3.99 11.33 -4.98 11.66 -6 12 C-7.98 9.69 -9.96 7.38 -12 5 C-12.99 5.33 -13.98 5.66 -15 6 C-14.67 4.68 -14.34 3.36 -14 2 C-13.401875 1.855625 -12.80375 1.71125 -12.1875 1.5625 C-10.43849596 1.1127561 -8.71322977 0.57107659 -7 0 C-3.86650268 -1.04449911 -3.01031744 -0.93423645 0 0 Z " fill="#FB493F" transform="translate(148,75)"/>
<path d="M0 0 C-0.66 1.32 -1.32 2.64 -2 4 C-2.99 3.67 -3.98 3.34 -5 3 C-5 4.32 -5 5.64 -5 7 C-3.35 7 -1.7 7 0 7 C0.33 8.65 0.66 10.3 1 12 C-0.65 11.67 -2.3 11.34 -4 11 C-3.34 12.98 -2.68 14.96 -2 17 C-1.01 16.67 -0.02 16.34 1 16 C1 16.99 1 17.98 1 19 C1.99 19.33 2.98 19.66 4 20 C3.67 21.32 3.34 22.64 3 24 C-2.89533512 17.92250565 -8 11.78713637 -8 3 C-8.99 2.67 -9.98 2.34 -11 2 C-7.36576791 -0.32590854 -4.22911669 -0.16265833 0 0 Z " fill="#F6C81A" transform="translate(92,73)"/>
<path d="M0 0 C2.1875 0.3125 2.1875 0.3125 4 1 C4.1875 3.875 4.1875 3.875 4 7 C1.28605338 8.80929775 0.01212543 9.26978778 -3 10 C-4.3479743 10.63654342 -5.68596724 11.29605388 -7 12 C-9.67927341 7.98108988 -9.15601248 5.75838077 -9 1 C-8.38125 1.33 -7.7625 1.66 -7.125 2 C-5.08981656 3.14193235 -5.08981656 3.14193235 -3 3 C-2.54625 2.484375 -2.0925 1.96875 -1.625 1.4375 C-1.08875 0.963125 -0.5525 0.48875 0 0 Z " fill="#FC4A42" transform="translate(102,73)"/>
<path d="M0 0 C0.91058531 3.07322544 1.08886184 5.80097361 1 9 C-2.90633137 10.30211046 -5.19538173 9.47812346 -9.1875 8.5625 C-10.45980469 8.27503906 -11.73210937 7.98757812 -13.04296875 7.69140625 C-14.50669922 7.34916016 -14.50669922 7.34916016 -16 7 C-13.26815602 4.82821515 -10.62841867 3.22168743 -7.4375 1.8125 C-6.29087891 1.29623047 -6.29087891 1.29623047 -5.12109375 0.76953125 C-3 0 -3 0 0 0 Z " fill="#39C376" transform="translate(79,77)"/>
<path d="M0 0 C1.32 0.33 2.64 0.66 4 1 C4 28.39 4 55.78 4 84 C3.67 84 3.34 84 3 84 C2.67 57.27 2.34 30.54 2 3 C1.01 3.495 1.01 3.495 0 4 C0 2.68 0 1.36 0 0 Z " fill="#5AB481" transform="translate(58,145)"/>
<path d="M0 0 C0.62261719 0.3609375 1.24523437 0.721875 1.88671875 1.09375 C12.01469737 6.17892755 21.91293687 5.50636531 33 5 C28.23066179 9.76933821 20.44373925 9.47301166 14.0859375 10.046875 C10.887057 9.99828441 8.85844078 9.38140261 6 8 C6 7.01 6 6.02 6 5 C4.02 4.01 2.04 3.02 0 2 C0 1.34 0 0.68 0 0 Z " fill="#38B349" transform="translate(99,100)"/>
<path d="M0 0 C1.32 0 2.64 0 4 0 C4.05418326 2.08304538 4.09287551 4.16649768 4.125 6.25 C4.14820313 7.41015625 4.17140625 8.5703125 4.1953125 9.765625 C4.0103949 12.82786046 3.60823023 14.44202751 2 17 C1.67 17 1.34 17 1 17 C0.62875 15.6078125 0.62875 15.6078125 0.25 14.1875 C-0.69207634 10.92548863 -0.69207634 10.92548863 -3.125 9.5 C-3.74375 9.005 -4.3625 8.51 -5 8 C-5.25 4.8125 -5.25 4.8125 -5 2 C-4.54625 2.474375 -4.0925 2.94875 -3.625 3.4375 C-2.06741796 5.09027808 -2.06741796 5.09027808 0 6 C0 4.02 0 2.04 0 0 Z " fill="#EE473E" transform="translate(138,38)"/>
<path d="M0 0 C1.98 0 3.96 0 6 0 C6.61269147 7.2297593 6.61269147 7.2297593 3.8125 10.75 C2.884375 11.4925 1.95625 12.235 1 13 C0.071875 13.763125 -0.85625 14.52625 -1.8125 15.3125 C-2.534375 15.869375 -3.25625 16.42625 -4 17 C-3.79503906 16.35933594 -3.59007812 15.71867187 -3.37890625 15.05859375 C-1.81172636 10.02712149 -0.56957826 5.24011997 0 0 Z " fill="#FBC915" transform="translate(148,74)"/>
<path d="M0 0 C1.00289062 0.10183594 2.00578125 0.20367187 3.0390625 0.30859375 C3.80992188 0.39238281 4.58078125 0.47617188 5.375 0.5625 C5.375 1.2225 5.375 1.8825 5.375 2.5625 C6.695 3.2225 8.015 3.8825 9.375 4.5625 C8.385 5.0575 8.385 5.0575 7.375 5.5625 C6.02391435 5.03373528 4.69152378 4.45670838 3.37109375 3.85546875 C-0.62911301 2.44782539 -2.7051681 2.54174607 -6.58984375 4.23828125 C-8.26289534 5.08731215 -9.92062703 5.96714083 -11.5625 6.875 C-13.23702781 7.74850084 -14.91275094 8.61971529 -16.58984375 9.48828125 C-17.3180835 9.88442627 -18.04632324 10.28057129 -18.79663086 10.6887207 C-20.625 11.5625 -20.625 11.5625 -22.625 11.5625 C-22 9.125 -22 9.125 -20.625 6.5625 C-17.9375 5.9375 -17.9375 5.9375 -14.625 5.5625 C-12.22312333 4.68165144 -9.95224627 3.63303328 -7.625 2.5625 C-7.625 1.9025 -7.625 1.2425 -7.625 0.5625 C-4.89657939 -0.80171031 -3.01546682 -0.31557211 0 0 Z " fill="#DB645C" transform="translate(119.625,74.4375)"/>
<path d="M0 0 C0.66 0 1.32 0 2 0 C2.36351563 1.08667969 2.36351563 1.08667969 2.734375 2.1953125 C5.75433699 10.9067413 9.92316961 17.15343776 16 24 C12.625 23.3125 12.625 23.3125 9 22 C7.75 19.5 7.75 19.5 7 17 C6.01 16.34 5.02 15.68 4 15 C2.8125 12.875 2.8125 12.875 2 11 C1.34 11 0.68 11 0 11 C0 7.37 0 3.74 0 0 Z " fill="#36B24C" transform="translate(82,76)"/>
<path d="M0 0 C1.24546405 2.49092811 0.7767578 3.41080733 0 6 C-0.66 6 -1.32 6 -2 6 C-2 6.66 -2 7.32 -2 8 C-1.34 8 -0.68 8 0 8 C-0.66 9.32 -1.32 10.64 -2 12 C-2.66 12 -3.32 12 -4 12 C-4 11.34 -4 10.68 -4 10 C-5.0725 10.45375 -6.145 10.9075 -7.25 11.375 C-7.89066406 11.64570312 -8.53132812 11.91640625 -9.19140625 12.1953125 C-11.09719754 13.00700819 -11.09719754 13.00700819 -13.1875 14.25 C-15.50419879 15.20863398 -16.64486602 14.68264753 -19 14 C-18.34773437 13.69707031 -17.69546875 13.39414063 -17.0234375 13.08203125 C-10.10972484 9.76793595 -4.35541974 6.53312961 0 0 Z " fill="#2EBB5B" transform="translate(151,90)"/>
<path d="M0 0 C2.31 0 4.62 0 7 0 C7 0.66 7 1.32 7 2 C10.3 2 13.6 2 17 2 C14.35300384 4.64699616 13.09605591 4.25749767 9.40625 4.265625 C8.29378906 4.26820312 7.18132812 4.27078125 6.03515625 4.2734375 C4.86855469 4.26570313 3.70195313 4.25796875 2.5 4.25 C1.33339844 4.25773437 0.16679688 4.26546875 -1.03515625 4.2734375 C-2.14761719 4.27085938 -3.26007813 4.26828125 -4.40625 4.265625 C-5.43041016 4.26336914 -6.45457031 4.26111328 -7.50976562 4.25878906 C-10 4 -10 4 -12 2 C-10.58344207 1.9727585 -9.16672955 1.95349533 -7.75 1.9375 C-6.56664063 1.92009766 -6.56664063 1.92009766 -5.359375 1.90234375 C-3.09308998 1.99614694 -1.1711105 2.36758937 1 3 C0.67 2.01 0.34 1.02 0 0 Z " fill="#F1D022" transform="translate(116,100)"/>
<path d="M0 0 C0.66 0.33 1.32 0.66 2 1 C1.21625 1.763125 0.4325 2.52625 -0.375 3.3125 C-3.07257717 5.90891805 -3.07257717 5.90891805 -5 9 C-5.99 9.33 -6.98 9.66 -8 10 C-8.9590625 11.051875 -8.9590625 11.051875 -9.9375 12.125 C-10.618125 12.74375 -11.29875 13.3625 -12 14 C-14.12890625 13.6171875 -14.12890625 13.6171875 -16 13 C-5.62642369 3.40546697 -5.62642369 3.40546697 0 0 Z " fill="#5AC289" transform="translate(61,84)"/>
<path d="M0 0 C1.32 0.33 2.64 0.66 4 1 C4.75 2.6875 4.75 2.6875 5 5 C2.80565887 8.41341953 0.79235994 10.51014431 -3 12 C-3.6875 10.1875 -3.6875 10.1875 -4 8 C-3.02246356 6.97803008 -2.0194119 5.98020375 -1 5 C-0.27802838 2.39388923 -0.27802838 2.39388923 0 0 Z " fill="#46BF80" transform="translate(222,126)"/>
<path d="M0 0 C1.32 0 2.64 0 4 0 C4.75 2.25 4.75 2.25 5 5 C3.0625 7.3125 3.0625 7.3125 1 9 C0.67 8.01 0.34 7.02 0 6 C-0.66 7.32 -1.32 8.64 -2 10 C-3.5625 8.1875 -3.5625 8.1875 -5 6 C-4.67 5.01 -4.34 4.02 -4 3 C-2.68 3 -1.36 3 0 3 C0 2.01 0 1.02 0 0 Z " fill="#F64840" transform="translate(134,29)"/>
<path d="M0 0 C-0.99 0 -1.98 0 -3 0 C-3.33 0.99 -3.66 1.98 -4 3 C-4.763125 3.061875 -5.52625 3.12375 -6.3125 3.1875 C-9.18326599 3.74687982 -9.18326599 3.74687982 -10.5625 6.3125 C-11.036875 7.199375 -11.51125 8.08625 -12 9 C-14.0625 11.3125 -14.0625 11.3125 -16 13 C-16.66 13 -17.32 13 -18 13 C-16.64527694 7.41176736 -12.41886827 4.30998246 -8 1 C-4.84961475 -0.83094345 -3.48493967 -1.24462131 0 0 Z " fill="#DF6361" transform="translate(117,22)"/>
<path d="M0 0 C3.36295835 1.44126786 5.62927102 3.20592655 8 6 C8 6.99 8 7.98 8 9 C8.66 9 9.32 9 10 9 C10 9.99 10 10.98 10 12 C9.34 12 8.68 12 8 12 C8 11.34 8 10.68 8 10 C7.34 10 6.68 10 6 10 C6 9.34 6 8.68 6 8 C5.401875 7.731875 4.80375 7.46375 4.1875 7.1875 C2.02775192 6.01506533 0.64209744 4.80630718 -1 3 C-0.67 2.01 -0.34 1.02 0 0 Z " fill="#53C186" transform="translate(183,147)"/>
<path d="M0 0 C1.43655854 -0.08131463 2.8744483 -0.13933559 4.3125 -0.1875 C5.51326172 -0.23970703 5.51326172 -0.23970703 6.73828125 -0.29296875 C9.47851584 0.06198392 10.29171079 0.89366282 12 3 C11.01 3 10.02 3 9 3 C8.9175 3.99 8.835 4.98 8.75 6 C8.13691993 10.47456948 6.18031955 14.09570685 4 18 C3.67 17.34 3.34 16.68 3 16 C3.73259643 14.33500811 4.4688481 12.67144818 5.23046875 11.01953125 C6.48382432 7.73026814 6.6934489 4.49468254 7 1 C4.69 1.33 2.38 1.66 0 2 C0 1.34 0 0.68 0 0 Z " fill="#CBD758" transform="translate(147,73)"/>
<path d="M0 0 C1.32 0.33 2.64 0.66 4 1 C4.32332002 5.63425362 3.8644432 8.28683289 1 12 C0.01 12.33 -0.98 12.66 -2 13 C-4 10 -4 10 -3.75 7.875 C-3 6 -3 6 -1 5 C-1 6.32 -1 7.64 -1 9 C-0.34 8.67 0.32 8.34 1 8 C1.40729228 5.67843403 1.74438677 3.3431213 2 1 C1.34 0.67 0.68 0.34 0 0 Z " fill="#E44B29" transform="translate(144,74)"/>
<path d="M0 0 C1.875 0.5625 1.875 0.5625 4 2 C5.25 5.625 5.25 5.625 6 9 C4.02 9.99 4.02 9.99 2 11 C-0.67927341 6.98108988 -0.15601248 4.75838077 0 0 Z " fill="#ED4B33" transform="translate(93,74)"/>
<path d="M0 0 C3.017489 0.33527656 4.57917788 0.54800587 6.6875 2.8125 C10.20033735 6.13545425 14.49851407 7.38496306 19 9 C19 9.33 19 9.66 19 10 C12.64586971 10.66188857 8.95641633 8.9780348 4 5 C1.5 2.1875 1.5 2.1875 0 0 Z " fill="#F2D66A" transform="translate(95,86)"/>
<path d="M0 0 C6.72938085 0.2757943 12.36113444 1.11905416 18 5 C20 7.25 20 7.25 21 9 C20.01 9 19.02 9 18 9 C18 8.34 18 7.68 18 7 C16.68 7 15.36 7 14 7 C13.67 6.34 13.34 5.68 13 5 C10.83927773 4.21376109 8.64509125 3.51798774 6.4375 2.875 C5.23996094 2.52179687 4.04242188 2.16859375 2.80859375 1.8046875 C1.88175781 1.53914063 0.95492187 1.27359375 0 1 C0 0.67 0 0.34 0 0 Z " fill="#DD7E7D" transform="translate(117,20)"/>
<path d="M0 0 C0.33 0.66 0.66 1.32 1 2 C0.01 3.485 0.01 3.485 -1 5 C-1 6.32 -1 7.64 -1 9 C-0.01 9.66 0.98 10.32 2 11 C2 11.66 2 12.32 2 13 C2.99 13.33 3.98 13.66 5 14 C5 14.99 5 15.98 5 17 C4.34 17 3.68 17 3 17 C1.62926214 15.36395804 0.29944744 13.69321939 -1 12 C-1.598125 11.525625 -2.19625 11.05125 -2.8125 10.5625 C-4 9 -4 9 -3.875 6 C-3.00772029 3.02646956 -2.39189062 1.8719144 0 0 Z " fill="#5FC18C" transform="translate(20,122)"/>
<path d="M0 0 C0.33 0 0.66 0 1 0 C1.33 2.31 1.66 4.62 2 7 C2.66 6.67 3.32 6.34 4 6 C3.67 7.98 3.34 9.96 3 12 C2.01 12.33 1.02 12.66 0 13 C-0.33 12.34 -0.66 11.68 -1 11 C-1.33 11.99 -1.66 12.98 -2 14 C-2.66 14 -3.32 14 -4 14 C-3.69255859 13.11248047 -3.69255859 13.11248047 -3.37890625 12.20703125 C-2.0002429 8.16339184 -0.68249153 4.23144751 0 0 Z " fill="#2EB54F" transform="translate(156,76)"/>
<path d="M0 0 C0.33 0 0.66 0 1 0 C1.34179688 2.97851562 1.34179688 2.97851562 1.68359375 5.95703125 C1.97170735 8.19396393 1.97170735 8.19396393 3 11 C3.66 11.33 4.32 11.66 5 12 C3.68 11.67 2.36 11.34 1 11 C0.67 9.35 0.34 7.7 0 6 C-1.65 6 -3.3 6 -5 6 C-5 4.68 -5 3.36 -5 2 C-4.360625 1.855625 -3.72125 1.71125 -3.0625 1.5625 C-1.02454854 1.18992819 -1.02454854 1.18992819 0 0 Z " fill="#FABD25" transform="translate(92,74)"/>
<path d="M0 0 C1.98 0 3.96 0 6 0 C6 2.64 6 5.28 6 8 C5.34 6.68 4.68 5.36 4 4 C3.731875 4.639375 3.46375 5.27875 3.1875 5.9375 C2 8 2 8 -1 9 C-0.67 6.03 -0.34 3.06 0 0 Z " fill="#F5C422" transform="translate(148,74)"/>
<path d="M0 0 C0.33 0 0.66 0 1 0 C1 2.31 1 4.62 1 7 C1.99 6.67 2.98 6.34 4 6 C4.33 6.99 4.66 7.98 5 9 C6.32 8.01 7.64 7.02 9 6 C9.99 7.485 9.99 7.485 11 9 C7.76746204 11.15502531 6.74849077 11.46856135 3 11 C1.1875 10 1.1875 10 0 8 C-0.24667073 5.28125957 -0.13481122 2.74116148 0 0 Z " fill="#E2746E" transform="translate(97,38)"/>
<path d="M0 0 C5.73235729 1.91078576 9.27838361 7.42772844 13 12 C10 12 10 12 8.02734375 10.28515625 C7.33769531 9.55167969 6.64804687 8.81820312 5.9375 8.0625 C3.26299207 5.13565586 3.26299207 5.13565586 0 3 C0 2.01 0 1.02 0 0 Z " fill="#4FBB82" transform="translate(31,144)"/>
<path d="M0 0 C4.98012761 1.50912958 8.24259942 4.55661849 12 8 C8.265625 9.109375 8.265625 9.109375 5.875 8.125 C5.25625 7.75375 4.6375 7.3825 4 7 C3.34 6.67 2.68 6.34 2 6 C1.27306096 4.02111039 0.60183749 2.02045442 0 0 Z " fill="#52C282" transform="translate(182,87)"/>
<path d="M0 0 C0 0.66 0 1.32 0 2 C-1.32 2.33 -2.64 2.66 -4 3 C-4.33 5.64 -4.66 8.28 -5 11 C-5.99 11 -6.98 11 -8 11 C-8.33 11.99 -8.66 12.98 -9 14 C-9 13.34 -9 12.68 -9 12 C-9.66 12 -10.32 12 -11 12 C-11 11.34 -11 10.68 -11 10 C-9.68 9.67 -8.36 9.34 -7 9 C-6.9175 8.2575 -6.835 7.515 -6.75 6.75 C-5.79113195 3.23415048 -3.97054162 0 0 0 Z " fill="#DC6B65" transform="translate(122,55)"/>
<path d="M0 0 C1.65 0 3.3 0 5 0 C0.81538462 4.92307692 0.81538462 4.92307692 -3.3125 5.3125 C-4.199375 5.209375 -5.08625 5.10625 -6 5 C-5.67 3.68 -5.34 2.36 -5 1 C-3.35 1 -1.7 1 0 1 C0 0.67 0 0.34 0 0 Z " fill="#E4D528" transform="translate(139,97)"/>
<path d="M0 0 C0.66 0 1.32 0 2 0 C0.40758592 4.29951803 -2.35540725 6.39671947 -6 9 C-6.99 8.67 -7.98 8.34 -9 8 C-8.34 8 -7.68 8 -7 8 C-7 7.34 -7 6.68 -7 6 C-6.01 6 -5.02 6 -4 6 C-4.66 5.34 -5.32 4.68 -6 4 C-5.67 3.01 -5.34 2.02 -5 1 C-4.01 1.33 -3.02 1.66 -2 2 C-1.34 1.34 -0.68 0.68 0 0 Z " fill="#54C389" transform="translate(54,150)"/>
<path d="M0 0 C2.50037734 2.17424117 3.43628586 3.73045798 4 7 C4.99 6.67 5.98 6.34 7 6 C7 6.99 7 7.98 7 9 C7.99 9.33 8.98 9.66 10 10 C9.67 11.32 9.34 12.64 9 14 C1.33257403 5.92255125 1.33257403 5.92255125 0 0 Z " fill="#DADD38" transform="translate(86,83)"/>
<path d="M0 0 C0.33 0 0.66 0 1 0 C0.96744792 2.01822917 0.93489583 4.03645833 0.90234375 6.0546875 C0.87350758 8.08185404 0.87350758 8.08185404 2 10 C1.0625 12.125 1.0625 12.125 0 14 C-0.33 14 -0.66 14 -1 14 C-1.22331199 12.41870971 -1.42804644 10.83478911 -1.625 9.25 C-1.74101562 8.36828125 -1.85703125 7.4865625 -1.9765625 6.578125 C-2.00207817 3.77140122 -1.44843844 2.36615134 0 0 Z " fill="#EF5B54" transform="translate(140,41)"/>
<path d="M0 0 C0.33 0.99 0.66 1.98 1 3 C-0.90726751 4.20253816 -2.8262012 5.38658949 -4.75 6.5625 C-5.81734375 7.22378906 -6.8846875 7.88507813 -7.984375 8.56640625 C-11 10 -11 10 -13.390625 9.71484375 C-13.92171875 9.47894531 -14.4528125 9.24304688 -15 9 C-14.33613281 8.68546875 -13.67226562 8.3709375 -12.98828125 8.046875 C-8.24303558 5.74698951 -3.95396814 3.55857132 0 0 Z " fill="#44AE3D" transform="translate(147,95)"/>
<path d="M0 0 C1.65 0 3.3 0 5 0 C5 4 5 4 3.625 5.625 C3.08875 6.07875 2.5525 6.5325 2 7 C1.34 7.66 0.68 8.32 0 9 C0 6.03 0 3.06 0 0 Z " fill="#32BD72" transform="translate(157,76)"/>
<path d="M0 0 C0.99 0.33 1.98 0.66 3 1 C3.33 4.96 3.66 8.92 4 13 C2.35 13.66 0.7 14.32 -1 15 C-0.67 14.29875 -0.34 13.5975 0 12.875 C1.54206567 8.44156121 1.37326684 4.46311722 0 0 Z " fill="#DD6C64" transform="translate(129,36)"/>
<path d="M0 0 C2.64 0.33 5.28 0.66 8 1 C8 1.66 8 2.32 8 3 C9.32 3.66 10.64 4.32 12 5 C10 6 10 6 7.3984375 5.22265625 C5.90183594 4.64837891 5.90183594 4.64837891 4.375 4.0625 C3.37210937 3.68222656 2.36921875 3.30195312 1.3359375 2.91015625 C0.56507812 2.60980469 -0.20578125 2.30945313 -1 2 C-0.67 1.34 -0.34 0.68 0 0 Z " fill="#DD5E58" transform="translate(117,74)"/>
<path d="M0 0 C0.33 0.66 0.66 1.32 1 2 C0.36328125 3.875 0.36328125 3.875 -0.6875 6 C-1.18830078 7.051875 -1.18830078 7.051875 -1.69921875 8.125 C-3.21910635 10.31582897 -4.55687434 11.01246289 -7 12 C-2.43902439 1.2195122 -2.43902439 1.2195122 0 0 Z " fill="#DFD42B" transform="translate(151,85)"/>
<path d="M0 0 C-0.99 0.495 -0.99 0.495 -2 1 C-2.65555119 3.52733235 -2.65555119 3.52733235 -3 6 C-3.33 5.34 -3.66 4.68 -4 4 C-4.66 3.67 -5.32 3.34 -6 3 C-8 2 -8 2 -9 0 C-5.93109813 -1.53445094 -3.29905734 -0.54984289 0 0 Z " fill="#EC5851" transform="translate(102,73)"/>
<path d="M0 0 C2.66666667 1.33333333 5.33333333 2.66666667 8 4 C3.25 8 3.25 8 1 8 C1.33 7.01 1.66 6.02 2 5 C1.34 4.67 0.68 4.34 0 4 C0 2.68 0 1.36 0 0 Z " fill="#E96B62" transform="translate(127,64)"/>
<path d="M0 0 C0.33 0.66 0.66 1.32 1 2 C-1.8475202 6.05224029 -4.36660757 8.1869334 -9 10 C-9.66 9.67 -10.32 9.34 -11 9 C-7.25 6 -7.25 6 -5 6 C-4.67 5.01 -4.34 4.02 -4 3 C-3.01 3 -2.02 3 -1 3 C-0.67 2.01 -0.34 1.02 0 0 Z " fill="#F4CA5A" transform="translate(146,83)"/>
<path d="M0 0 C-0.33 0.66 -0.66 1.32 -1 2 C-2.65 1.67 -4.3 1.34 -6 1 C-6 3.97 -6 6.94 -6 10 C-8 7 -8 7 -8 3 C-8.99 2.67 -9.98 2.34 -11 2 C-7.36576791 -0.32590854 -4.22911669 -0.16265833 0 0 Z " fill="#D4D869" transform="translate(92,73)"/>
<path d="M0 0 C0 0.66 0 1.32 0 2 C-0.66 2 -1.32 2 -2 2 C-2.33 2.99 -2.66 3.98 -3 5 C-4.98 5 -6.96 5 -9 5 C-9 4.34 -9 3.68 -9 3 C-3.375 0 -3.375 0 0 0 Z " fill="#E3615D" transform="translate(109,67)"/>
<path d="M0 0 C-0.33 0.99 -0.66 1.98 -1 3 C-1.66 3 -2.32 3 -3 3 C-3 3.66 -3 4.32 -3 5 C-4.98 5.33 -6.96 5.66 -9 6 C-4.5 0 -4.5 0 0 0 Z " fill="#53C789" transform="translate(30,116)"/>
<path d="M0 0 C1.12894876 0.93274109 2.25300876 1.87140122 3.375 2.8125 C4.00148438 3.33457031 4.62796875 3.85664062 5.2734375 4.39453125 C7 6 7 6 9 9 C5.625 8.4375 5.625 8.4375 2 7 C0.5625 3.375 0.5625 3.375 0 0 Z " fill="#42B146" transform="translate(89,91)"/>
<path d="M0 0 C1.32 0.99 2.64 1.98 4 3 C2.71086513 3.67154933 1.41859796 4.33708859 0.125 5 C-0.59429687 5.37125 -1.31359375 5.7425 -2.0546875 6.125 C-4 7 -4 7 -6 7 C-5 4 -5 4 -2 2 C-1.34 1.34 -0.68 0.68 0 0 Z " fill="#DE7068" transform="translate(114,74)"/>
<path d="M0 0 C2.475 0.495 2.475 0.495 5 1 C5.33 1.99 5.66 2.98 6 4 C5.34 4 4.68 4 4 4 C3.67 4.99 3.34 5.98 3 7 C0.64046906 4.64046906 0.50858587 3.22104383 0 0 Z " fill="#FDC917" transform="translate(100,93)"/>
<path d="M0 0 C0.66 0 1.32 0 2 0 C1.71125 0.70125 1.4225 1.4025 1.125 2.125 C-0.02133588 5.05452503 -1.02625654 8.00921653 -2 11 C-2.66 10.01 -3.32 9.02 -4 8 C-3.15955106 4.56816682 -2.51471866 2.51471866 0 0 Z " fill="#DD6F67" transform="translate(111,34)"/>
<path d="M0 0 C1.46067199 0.45082469 2.91848032 0.91093537 4.375 1.375 C5.18710938 1.63023438 5.99921875 1.88546875 6.8359375 2.1484375 C9 3 9 3 11 5 C6.94393835 4.53199289 3.53411321 4.12046792 0 2 C0 1.34 0 0.68 0 0 Z " fill="#DC6968" transform="translate(135,69)"/>
<path d="M0 0 C0.99 0 1.98 0 3 0 C1.95125002 2.62187494 1.35068687 3.79371361 -1.125 5.25 C-1.74375 5.4975 -2.3625 5.745 -3 6 C-3.33 5.01 -3.66 4.02 -4 3 C-3.01 3 -2.02 3 -1 3 C-0.67 2.01 -0.34 1.02 0 0 Z " fill="#36B872" transform="translate(215,138)"/>
<path d="M0 0 C1.98 1.65 3.96 3.3 6 5 C4.1875 5.625 4.1875 5.625 2 6 C1.01 5.34 0.02 4.68 -1 4 C-0.67 2.68 -0.34 1.36 0 0 Z " fill="#5FCB8F" transform="translate(194,96)"/>
<path d="M0 0 C0.86625 0.4640625 0.86625 0.4640625 1.75 0.9375 C3.84294184 1.92583364 5.74535275 2.5168613 8 3 C6.68 3.99 5.36 4.98 4 6 C4 5.34 4 4.68 4 4 C3.34 4 2.68 4 2 4 C1.67 4.66 1.34 5.32 1 6 C0.34 4.35 -0.32 2.7 -1 1 C-0.67 0.67 -0.34 0.34 0 0 Z " fill="#24C166" transform="translate(169,82)"/>
<path d="M0 0 C0.33 0 0.66 0 1 0 C1 1.65 1 3.3 1 5 C-2.63 4.67 -6.26 4.34 -10 4 C-10 3.67 -10 3.34 -10 3 C-6.7 2.67 -3.4 2.34 0 2 C0 1.34 0 0.68 0 0 Z " fill="#EA7169" transform="translate(127,29)"/>
<path d="M0 0 C-0.99 0 -1.98 0 -3 0 C-3.33 0.99 -3.66 1.98 -4 3 C-6.31 3.33 -8.62 3.66 -11 4 C-7.64918101 0.31409911 -4.96535219 -1.77334007 0 0 Z " fill="#DF7876" transform="translate(117,22)"/>
<path d="M0 0 C0.33 0.66 0.66 1.32 1 2 C1.99 2.33 2.98 2.66 4 3 C2.35 4.32 0.7 5.64 -1 7 C-1.66 6.67 -2.32 6.34 -3 6 C-3 5.34 -3 4.68 -3 4 C-2.01 4 -1.02 4 0 4 C0 2.68 0 1.36 0 0 Z " fill="#42BE7C" transform="translate(199,152)"/>
<path d="M0 0 C0.66 0 1.32 0 2 0 C1.34 1.65 0.68 3.3 0 5 C-2.31 4.67 -4.62 4.34 -7 4 C-4 2 -4 2 0 2 C0 1.34 0 0.68 0 0 Z " fill="#F3C227" transform="translate(135,93)"/>
<path d="M0 0 C0.99 0.33 1.98 0.66 3 1 C3 1.99 3 2.98 3 4 C3.66 4 4.32 4 5 4 C5 4.99 5 5.98 5 7 C4.34 7 3.68 7 3 7 C3 6.34 3 5.68 3 5 C2.34 5 1.68 5 1 5 C1 4.34 1 3.68 1 3 C0.34 2.67 -0.32 2.34 -1 2 C-0.67 1.34 -0.34 0.68 0 0 Z " fill="#5DC38D" transform="translate(188,152)"/>
<path d="M0 0 C1.32 0.33 2.64 0.66 4 1 C4 4.3 4 7.6 4 11 C3.67 11 3.34 11 3 11 C2.67 8.36 2.34 5.72 2 3 C1.01 3.495 1.01 3.495 0 4 C0 2.68 0 1.36 0 0 Z " fill="#58BE86" transform="translate(58,145)"/>
<path d="M0 0 C2.31 0.66 4.62 1.32 7 2 C4.64561267 3.42944945 3.51967567 4.08661261 0.75 3.625 C0.1725 3.41875 -0.405 3.2125 -1 3 C-0.67 2.01 -0.34 1.02 0 0 Z " fill="#41C67C" transform="translate(209,115)"/>
<path d="M0 0 C0.33 0 0.66 0 1 0 C1 1.65 1 3.3 1 5 C1.99 5.33 2.98 5.66 4 6 C2.35 6.33 0.7 6.66 -1 7 C-1 3 -1 3 0 0 Z " fill="#F44539" transform="translate(126,63)"/>
<path d="M0 0 C0.433125 0.495 0.86625 0.99 1.3125 1.5 C2.99740483 3.33218192 2.99740483 3.33218192 6 3 C5.01 3.99 4.02 4.98 3 6 C0 4 0 4 -1 2 C-0.67 1.34 -0.34 0.68 0 0 Z " fill="#FE4C46" transform="translate(104,33)"/>
</svg>
