<?xml version="1.0" encoding="UTF-8"?>
<svg version="1.1" xmlns="http://www.w3.org/2000/svg" width="268" height="277">
<path d="M0 0 C2.56050112 3.58625703 3.76484703 7.09737225 4.88525391 11.33154297 C5.2221524 12.5898996 5.5590509 13.84825623 5.90615845 15.14474487 C6.2632432 16.51048502 6.62003743 17.87630115 6.9765625 19.2421875 C7.35045587 20.65331821 7.72492604 22.0642962 8.09994507 23.47512817 C8.88300635 26.42763811 9.66080813 29.3814655 10.43457031 32.33642578 C11.4228575 36.10994136 12.42147263 39.8806238 13.42373085 43.65044975 C14.19734675 46.56308098 14.96677921 49.47680402 15.73484421 52.39090347 C16.10146396 53.78091937 16.46904573 55.17068192 16.83763504 56.56017685 C17.35362022 58.50894766 17.86368625 60.45928275 18.37353516 62.40966797 C18.6642691 63.51599579 18.95500305 64.62232361 19.25454712 65.76217651 C20.03720652 69.16160396 20.55389447 72.54164827 21 76 C21.69867188 75.98839844 22.39734375 75.97679688 23.1171875 75.96484375 C24.02726563 75.95582031 24.93734375 75.94679688 25.875 75.9375 C26.77992188 75.92589844 27.68484375 75.91429688 28.6171875 75.90234375 C31 76 31 76 33 77 C33.11786865 76.28972656 33.2357373 75.57945313 33.35717773 74.84765625 C34.03676552 71.83713141 35.05079104 69.26440065 36.28515625 66.4375 C36.73310547 65.39335938 37.18105469 64.34921875 37.64257812 63.2734375 C38.58981238 61.08971727 39.54033967 58.90742254 40.49414062 56.7265625 C40.94080078 55.68242188 41.38746094 54.63828125 41.84765625 53.5625 C42.26023682 52.61503906 42.67281738 51.66757813 43.09790039 50.69140625 C44.03915243 47.88318908 44.37952671 45.93442726 44 43 C38.83707174 38.08292547 32.57241806 36.26498141 25.9140625 34.11328125 C23 33 23 33 22 31 C21.54564243 26.98650809 21.40267607 24.82389508 23.8125 21.5 C24.84286898 20.6272512 25.91274396 19.80076525 27 19 C27.81339844 18.38511719 28.62679687 17.77023438 29.46484375 17.13671875 C35.58622988 12.852607 39.55588928 11.14384444 47 12 C50.34483383 12.68848226 53.56273989 13.64393547 56.8125 14.6875 C58.12408081 15.09850952 58.12408081 15.09850952 59.4621582 15.51782227 C77.99192352 21.42588822 89.79872939 28.64446168 99 46.375 C101.51985252 52.30305983 102.3061444 58.65844372 101 65 C99.21484375 66.9375 99.21484375 66.9375 97 68 C94.96484375 67.98828125 94.96484375 67.98828125 93 67 C91.25390625 64.85546875 91.25390625 64.85546875 89.5625 62.1875 C85.58010023 56.2477931 82.13344577 52.67845783 75 51 C70.85772867 50.68752692 67.01160997 50.8856639 63 52 C62.74476563 53.23621094 62.48953125 54.47242188 62.2265625 55.74609375 C60.92235263 61.61503815 59.15635985 67.32376958 57.375 73.0625 C57.05015625 74.11888672 56.7253125 75.17527344 56.390625 76.26367188 C55.59685528 78.84342348 54.79992286 81.42215108 54 84 C55.08829102 84.33733154 56.17658203 84.67466309 57.29785156 85.0222168 C61.39245083 86.29309137 65.48462902 87.57161792 69.57617188 88.85229492 C71.33660302 89.40218854 73.09765699 89.95009284 74.859375 90.49584961 C99.53622588 98.14427129 99.53622588 98.14427129 104 101 C105.30566406 103.65112305 105.30566406 103.65112305 106 106 C102.34714813 110.48304547 97.26859909 112.85385947 92 115 C91.01 115 90.02 115 89 115 C88.99635437 115.91375397 88.99270874 116.82750793 88.98895264 117.76895142 C88.95104605 126.3909597 88.89416293 135.01259076 88.81609726 143.63433266 C88.77663081 148.06662069 88.74443834 152.4987103 88.72900391 156.93115234 C88.71383169 161.21078712 88.67937656 165.48987637 88.63169098 169.76926804 C88.61688292 171.39983751 88.60895931 173.03048487 88.60811615 174.66112137 C88.60574288 176.94996167 88.57863755 179.23729873 88.54589844 181.52587891 C88.53701599 182.82715729 88.52813354 184.12843567 88.51898193 185.46914673 C87.9103531 189.60990573 86.61381226 191.76700639 84 195 C81.18408203 196.86230469 81.18408203 196.86230469 77.8828125 198.421875 C77.27559357 198.71052429 76.66837463 198.99917358 76.04275513 199.29656982 C68.14187392 202.98025922 60.00201427 206.10819264 51.875 209.25 C49.35757365 210.22910358 46.84069315 211.20960131 44.32383728 212.19017029 C42.64112489 212.84547883 40.95807167 213.49991288 39.27467346 214.15345764 C34.03315134 216.19206882 28.81644313 218.28356526 23.61328125 220.41796875 C22.33692807 220.93695837 21.06040327 221.45552619 19.78369141 221.97363281 C17.45689713 222.92077867 15.13458708 223.87904905 12.81787109 224.85058594 C0.29599202 229.9012648 -6.86602872 227.78834289 -19.1875 222.75 C-20.55324415 222.20467979 -21.91954785 221.66075911 -23.28637695 221.11816406 C-26.11767243 219.99111172 -28.9450899 218.8550569 -31.76953125 217.7109375 C-35.84006725 216.0621837 -39.91876214 214.43455035 -44 212.8125 C-47.81690031 211.29476947 -51.6325764 209.77434577 -55.44165039 208.23706055 C-61.00536509 205.99188339 -66.57204008 203.76769842 -72.18359375 201.64453125 C-73.11276611 201.28842773 -74.04193848 200.93232422 -74.99926758 200.56542969 C-76.68323997 199.92221643 -78.37159786 199.29030364 -80.06518555 198.67285156 C-84.64237108 196.91011505 -87.30993461 195.30820117 -90 191 C-91.16881179 187.49356462 -91.11998427 184.75098532 -91.11352539 181.05004883 C-91.11367142 180.34735367 -91.11381744 179.64465851 -91.1139679 178.92066956 C-91.11327157 176.59942532 -91.10549226 174.27826146 -91.09765625 171.95703125 C-91.09579108 170.3470616 -91.09436764 168.73709139 -91.09336853 167.12712097 C-91.08955118 162.89057853 -91.07972755 158.6540704 -91.06866455 154.4175415 C-91.05843364 150.09412093 -91.05386731 145.77069481 -91.04882812 141.44726562 C-91.03810459 132.96482801 -91.02103753 124.48241827 -91 116 C-91.92449951 115.69819824 -92.84899902 115.39639648 -93.80151367 115.08544922 C-97.10270964 113.96514411 -100.17124303 112.63499401 -103.3125 111.125 C-104.36050781 110.63257813 -105.40851563 110.14015625 -106.48828125 109.6328125 C-109 108 -109 108 -110.10546875 106.0546875 C-110 104 -110 104 -108.34594727 102.00537109 C-105.72069184 99.76124079 -103.63817879 98.90580174 -100.359375 97.859375 C-99.28945312 97.51132813 -98.21953125 97.16328125 -97.1171875 96.8046875 C-96.00601563 96.45664063 -94.89484375 96.10859375 -93.75 95.75 C-92.62335938 95.38648438 -91.49671875 95.02296875 -90.3359375 94.6484375 C-87.56059066 93.75468174 -84.78213349 92.87235313 -82 92 C-82 88.79693322 -82.58389682 87.34737822 -83.8984375 84.47265625 C-84.29546875 83.59802734 -84.6925 82.72339844 -85.1015625 81.82226562 C-85.73191406 80.45618164 -85.73191406 80.45618164 -86.375 79.0625 C-86.7875 78.15564453 -87.2 77.24878906 -87.625 76.31445312 C-89.68125297 71.67069386 -89.68125297 71.67069386 -92.08203125 67.20556641 C-93.44899419 63.92121981 -93.58874779 60.56096816 -93.8515625 57.05078125 C-93.94719986 55.8927021 -93.94719986 55.8927021 -94.04476929 54.71122742 C-94.17796101 53.07838829 -94.30715271 51.44521862 -94.43261719 49.81176758 C-94.62304639 47.33787958 -94.82603434 44.86527881 -95.03125 42.39257812 C-95.15960238 40.79953927 -95.28722926 39.20644177 -95.4140625 37.61328125 C-95.47340973 36.88482498 -95.53275696 36.15636871 -95.59390259 35.40583801 C-95.7557313 33.27107019 -95.88840637 31.13797366 -96 29 C-96.04227722 28.19219086 -96.08455444 27.38438171 -96.12811279 26.55209351 C-96.15206116 25.75010529 -96.17600952 24.94811707 -96.20068359 24.12182617 C-96.23843399 23.03003304 -96.23843399 23.03003304 -96.27694702 21.91618347 C-96 20 -96 20 -93.375 17.4375 C-87.95642202 15.12958716 -87.95642202 15.12958716 -84 16 C-81.05246789 18.03659503 -78.57017288 20.51387752 -76 23 C-74.1710223 24.67144532 -72.33746759 26.33789238 -70.5 28 C-69.10007812 29.28003906 -69.10007812 29.28003906 -67.671875 30.5859375 C-65.39641613 32.64183455 -63.0875792 34.6407758 -60.75 36.625 C-59.49376008 37.74302784 -58.24431735 38.86871784 -57 40 C-56.44272217 40.50063965 -55.88544434 41.0012793 -55.3112793 41.51708984 C-49.04556563 47.85497021 -46.78439924 55.74722397 -44.0625 64 C-43.56619403 65.45762517 -43.06815984 66.9146631 -42.56835938 68.37109375 C-41.35891541 71.90751746 -40.17302003 75.45130371 -39 79 C-34.71 77.68 -30.42 76.36 -26 75 C-26.64757777 69.13368258 -27.67288315 63.4639959 -28.9609375 57.70703125 C-29.15217194 56.83914474 -29.34340637 55.97125824 -29.54043579 55.07707214 C-30.14856318 52.32145145 -30.76176319 49.56698759 -31.375 46.8125 C-31.77896543 44.98379453 -32.18261387 43.155019 -32.5859375 41.32617188 C-32.78334534 40.43396942 -32.98075317 39.54176697 -33.18414307 38.62252808 C-33.57414262 36.85848193 -33.96263399 35.09410162 -34.34954834 33.32937622 C-35.19377291 29.50403223 -36.06095352 25.69495885 -37.06347656 21.90771484 C-37.36479492 20.74578613 -37.66611328 19.58385742 -37.9765625 18.38671875 C-38.24807129 17.40276123 -38.51958008 16.41880371 -38.79931641 15.4050293 C-39 13 -39 13 -37.99511719 11.31835938 C-35.1759742 9.45548956 -32.31702594 8.55580907 -29.1015625 7.51953125 C-28.42958832 7.30181564 -27.75761414 7.08410004 -27.0652771 6.85978699 C-25.64618535 6.40246921 -24.22561744 5.94971022 -22.80371094 5.5012207 C-20.63578922 4.81591062 -18.47408022 4.11322673 -16.3125 3.40820312 C-14.93002413 2.96509418 -13.54722156 2.52300299 -12.1640625 2.08203125 C-10.91061035 1.68218018 -9.6571582 1.2823291 -8.36572266 0.87036133 C-2.83411533 -0.56008841 -2.83411533 -0.56008841 0 0 Z " fill="#8751CC" transform="translate(130,39)"/>
<path d="M0 0 C0.87438721 0.27400635 1.74877441 0.5480127 2.6496582 0.83032227 C21.17942352 6.73838822 32.98622939 13.95696168 42.1875 31.6875 C44.70735252 37.61555983 45.4936444 43.97094372 44.1875 50.3125 C42.40234375 52.25 42.40234375 52.25 40.1875 53.3125 C38.15234375 53.30078125 38.15234375 53.30078125 36.1875 52.3125 C34.44140625 50.16796875 34.44140625 50.16796875 32.75 47.5 C28.76760023 41.5602931 25.32094577 37.99095783 18.1875 36.3125 C14.04522867 36.00002692 10.19910997 36.1981639 6.1875 37.3125 C5.93226563 38.54871094 5.67703125 39.78492188 5.4140625 41.05859375 C4.10985263 46.92753815 2.34385985 52.63626958 0.5625 58.375 C0.07523438 59.95958008 0.07523438 59.95958008 -0.421875 61.57617188 C-1.21564472 64.15592348 -2.01257714 66.73465108 -2.8125 69.3125 C-1.72420898 69.64983154 -0.63591797 69.98716309 0.48535156 70.3347168 C4.57995083 71.60559137 8.67212902 72.88411792 12.76367188 74.16479492 C14.52410302 74.71468854 16.28515699 75.26259284 18.046875 75.80834961 C42.72372588 83.45677129 42.72372588 83.45677129 47.1875 86.3125 C48.49316406 88.96362305 48.49316406 88.96362305 49.1875 91.3125 C45.53464813 95.79554547 40.45609909 98.16635947 35.1875 100.3125 C34.1975 100.3125 33.2075 100.3125 32.1875 100.3125 C32.18385437 101.22625397 32.18020874 102.14000793 32.17645264 103.08145142 C32.13854605 111.7034597 32.08166293 120.32509076 32.00359726 128.94683266 C31.96413081 133.37912069 31.93193834 137.8112103 31.91650391 142.24365234 C31.90133169 146.52328712 31.86687656 150.80237637 31.81919098 155.08176804 C31.80438292 156.71233751 31.79645931 158.34298487 31.79561615 159.97362137 C31.79324288 162.26246167 31.76613755 164.54979873 31.73339844 166.83837891 C31.72007477 168.79029648 31.72007477 168.79029648 31.70648193 170.78164673 C31.0978531 174.92240573 29.80131226 177.07950639 27.1875 180.3125 C24.37158203 182.17480469 24.37158203 182.17480469 21.0703125 183.734375 C20.1594841 184.16734894 20.1594841 184.16734894 19.23025513 184.60906982 C11.32937392 188.29275922 3.18951427 191.42069264 -4.9375 194.5625 C-7.45492635 195.54160358 -9.97180685 196.52210131 -12.48866272 197.50267029 C-14.17137511 198.15797883 -15.85442833 198.81241288 -17.53782654 199.46595764 C-22.77934866 201.50456882 -27.99605687 203.59606526 -33.19921875 205.73046875 C-34.47557193 206.24945837 -35.75209673 206.76802619 -37.02880859 207.28613281 C-39.35560287 208.23327867 -41.67791292 209.19154905 -43.99462891 210.16308594 C-50.26826478 212.69354641 -55.04280503 213.82889262 -61.8125 213.3125 C-61.1525 212.3225 -60.4925 211.3325 -59.8125 210.3125 C-58.67586854 203.92520309 -58.69641099 197.62829308 -58.75 191.15625 C-58.75378662 190.09571411 -58.75757324 189.03517822 -58.76147461 187.94250488 C-58.77766377 183.44241407 -58.80562424 178.94241731 -58.83300781 174.44238281 C-58.90385133 161.68682132 -58.88109659 149.03070766 -57.8125 136.3125 C-55.5025 135.9825 -53.1925 135.6525 -50.8125 135.3125 C-50.83570313 134.69761719 -50.85890625 134.08273438 -50.8828125 133.44921875 C-50.90085938 132.64097656 -50.91890625 131.83273438 -50.9375 131 C-50.96070313 130.19949219 -50.98390625 129.39898437 -51.0078125 128.57421875 C-50.8125 126.3125 -50.8125 126.3125 -48.8125 123.3125 C-48.1525 123.3125 -47.4925 123.3125 -46.8125 123.3125 C-46.67714844 122.73886719 -46.54179687 122.16523438 -46.40234375 121.57421875 C-43.27830731 109.24643424 -38.51635347 97.34051077 -33.7019043 85.58642578 C-32.90526669 83.54967513 -32.22319602 81.51969251 -31.5703125 79.43359375 C-29.38522405 72.81581964 -26.62656617 66.42424667 -23.9375 60 C-23.41507506 58.74556324 -22.89293813 57.4910065 -22.37109375 56.23632812 C-22.11422791 55.61952179 -21.85736206 55.00271545 -21.5927124 54.36721802 C-20.82825257 52.53079281 -20.06499881 50.6938657 -19.30175781 48.85693359 C-18.32384575 46.52950287 -17.32888611 44.20914736 -16.31542969 41.89697266 C-15.85813477 40.84429199 -15.40083984 39.79161133 -14.9296875 38.70703125 C-14.52089355 37.7838208 -14.11209961 36.86061035 -13.69091797 35.90942383 C-12.7550302 33.14259831 -12.44242626 31.20815939 -12.8125 28.3125 C-17.97542826 23.39542547 -24.24008194 21.57748141 -30.8984375 19.42578125 C-33.8125 18.3125 -33.8125 18.3125 -34.8125 16.3125 C-35.26685757 12.29900809 -35.40982393 10.13639508 -33 6.8125 C-31.96963102 5.9397512 -30.89975604 5.11326525 -29.8125 4.3125 C-28.99910156 3.69761719 -28.18570313 3.08273438 -27.34765625 2.44921875 C-17.72296085 -4.28671814 -10.85507893 -3.48578816 0 0 Z " fill="#9554CE" transform="translate(186.8125,53.6875)"/>
<path d="M0 0 C2.56050112 3.58625703 3.76484703 7.09737225 4.88525391 11.33154297 C5.39060165 13.21907791 5.39060165 13.21907791 5.90615845 15.14474487 C6.2632432 16.51048502 6.62003743 17.87630115 6.9765625 19.2421875 C7.35045587 20.65331821 7.72492604 22.0642962 8.09994507 23.47512817 C8.88300635 26.42763811 9.66080813 29.3814655 10.43457031 32.33642578 C11.4228575 36.10994136 12.42147263 39.8806238 13.42373085 43.65044975 C14.19734675 46.56308098 14.96677921 49.47680402 15.73484421 52.39090347 C16.10146396 53.78091937 16.46904573 55.17068192 16.83763504 56.56017685 C17.35362022 58.50894766 17.86368625 60.45928275 18.37353516 62.40966797 C18.6642691 63.51599579 18.95500305 64.62232361 19.25454712 65.76217651 C20.03720652 69.16160396 20.55389447 72.54164827 21 76 C24.3 76 27.6 76 31 76 C32.3143753 79.9431259 31.31328644 81.32459675 29.75 85.125 C28.22589905 88.91431693 26.72932755 92.667247 25.5 96.5625 C24.40825552 99.95003421 23.09764 103.19032808 21.6953125 106.4609375 C18.52886636 114.00165536 15.8698725 121.70161349 13.21875 129.43554688 C12.84492188 130.49966797 12.47109375 131.56378906 12.0859375 132.66015625 C11.7564209 133.61543213 11.4269043 134.57070801 11.08740234 135.55493164 C9.99438712 138.01262079 8.92201286 139.18231013 7 141 C5.79950593 144.10007201 5.79950593 144.10007201 5 147 C2.36 147.33 -0.28 147.66 -3 148 C-5.32066871 144.44413665 -6.66367112 141.24648684 -7.71875 137.140625 C-8.01136719 136.02429688 -8.30398437 134.90796875 -8.60546875 133.7578125 C-8.90066406 132.60023438 -9.19585937 131.44265625 -9.5 130.25 C-11.7814269 121.24646497 -11.7814269 121.24646497 -14.5625 112.390625 C-16.68142906 106.25022714 -17.81136689 99.88096642 -19.10546875 93.52734375 C-20.90448493 84.56767669 -20.90448493 84.56767669 -24 76 C-24.66 75.67 -25.32 75.34 -26 75 C-26.27259962 73.11100913 -26.53297318 71.21933247 -26.72686768 69.32064819 C-27.18928098 65.39178846 -28.09793399 61.56422928 -28.9609375 57.70703125 C-29.24778915 56.40520149 -29.24778915 56.40520149 -29.54043579 55.07707214 C-30.14856318 52.32145145 -30.76176319 49.56698759 -31.375 46.8125 C-31.77896543 44.98379453 -32.18261387 43.155019 -32.5859375 41.32617188 C-32.78334534 40.43396942 -32.98075317 39.54176697 -33.18414307 38.62252808 C-33.57414262 36.85848193 -33.96263399 35.09410162 -34.34954834 33.32937622 C-35.19377291 29.50403223 -36.06095352 25.69495885 -37.06347656 21.90771484 C-37.36479492 20.74578613 -37.66611328 19.58385742 -37.9765625 18.38671875 C-38.24807129 17.40276123 -38.51958008 16.41880371 -38.79931641 15.4050293 C-39 13 -39 13 -37.99511719 11.31835938 C-35.1759742 9.45548956 -32.31702594 8.55580907 -29.1015625 7.51953125 C-28.42958832 7.30181564 -27.75761414 7.08410004 -27.0652771 6.85978699 C-25.64618535 6.40246921 -24.22561744 5.94971022 -22.80371094 5.5012207 C-20.63578922 4.81591062 -18.47408022 4.11322673 -16.3125 3.40820312 C-14.93002413 2.96509418 -13.54722156 2.52300299 -12.1640625 2.08203125 C-10.91061035 1.68218018 -9.6571582 1.2823291 -8.36572266 0.87036133 C-2.83411533 -0.56008841 -2.83411533 -0.56008841 0 0 Z " fill="#159CF2" transform="translate(130,39)"/>
<path d="M0 0 C2.94753211 2.03659503 5.42982712 4.51387752 8 7 C9.8289777 8.67144532 11.66253241 10.33789238 13.5 12 C14.89992188 13.28003906 14.89992188 13.28003906 16.328125 14.5859375 C18.60358387 16.64183455 20.9124208 18.6407758 23.25 20.625 C31.049088 27.53869973 35.13225244 33.60371804 38.37139893 43.62231445 C39.48373514 47.05555493 40.66426195 50.46555891 41.8359375 53.87890625 C42.08419281 54.60695465 42.33244812 55.33500305 42.58822632 56.08511353 C45.69819219 65.14576278 49.16491758 74.06862443 52.625 83 C53.26898588 84.66898592 53.91286696 86.33801229 54.55664062 88.00708008 C57.32898599 95.18226122 60.12695698 102.34574607 62.9921875 109.484375 C63.42321777 110.56332031 63.85424805 111.64226562 64.29833984 112.75390625 C65.07371596 114.68714796 65.85730953 116.61712367 66.65087891 118.54296875 C66.98265137 119.36925781 67.31442383 120.19554687 67.65625 121.046875 C67.94306641 121.74651367 68.22988281 122.44615234 68.52539062 123.16699219 C69 125 69 125 68 128 C61.59732788 125.96327858 55.37380726 123.81894343 49.2734375 121 C45.83779342 119.48878886 42.30822864 118.26528722 38.7734375 117.0078125 C35.27401937 115.73619295 31.8302954 114.34453563 28.38671875 112.9296875 C25.955427 111.90999946 25.955427 111.90999946 23.0925293 111.37353516 C19.00164144 109.55658283 17.88341187 106.99093249 16.1328125 103.09375 C15.80836151 102.41324585 15.48391052 101.7327417 15.14962769 101.03161621 C14.12196336 98.86296256 13.12387764 96.68203762 12.125 94.5 C11.43148421 93.0317021 10.73619019 91.56424271 10.0390625 90.09765625 C5 79.39978713 5 79.39978713 5 77 C3.515 76.505 3.515 76.505 2 76 C2 75.01 2 74.02 2 73 C1.42411447 71.46825774 0.78208471 69.96086592 0.1015625 68.47265625 C-0.29546875 67.59802734 -0.6925 66.72339844 -1.1015625 65.82226562 C-1.73191406 64.45618164 -1.73191406 64.45618164 -2.375 63.0625 C-2.7875 62.15564453 -3.2 61.24878906 -3.625 60.31445312 C-5.68125297 55.67069386 -5.68125297 55.67069386 -8.08203125 51.20556641 C-9.44899419 47.92121981 -9.58874779 44.56096816 -9.8515625 41.05078125 C-9.94719986 39.8927021 -9.94719986 39.8927021 -10.04476929 38.71122742 C-10.17796101 37.07838829 -10.30715271 35.44521862 -10.43261719 33.81176758 C-10.62304639 31.33787958 -10.82603434 28.86527881 -11.03125 26.39257812 C-11.15960238 24.79953927 -11.28722926 23.20644177 -11.4140625 21.61328125 C-11.47340973 20.88482498 -11.53275696 20.15636871 -11.59390259 19.40583801 C-11.7557313 17.27107019 -11.88840637 15.13797366 -12 13 C-12.04227722 12.19219086 -12.08455444 11.38438171 -12.12811279 10.55209351 C-12.15206116 9.75010529 -12.17600952 8.94811707 -12.20068359 8.12182617 C-12.22585052 7.39396408 -12.25101746 6.66610199 -12.27694702 5.91618347 C-12 4 -12 4 -9.375 1.4375 C-3.95642202 -0.87041284 -3.95642202 -0.87041284 0 0 Z " fill="#FC7328" transform="translate(46,55)"/>
<path d="M0 0 C0.87438721 0.27400635 1.74877441 0.5480127 2.6496582 0.83032227 C21.17942352 6.73838822 32.98622939 13.95696168 42.1875 31.6875 C44.70735252 37.61555983 45.4936444 43.97094372 44.1875 50.3125 C42.40234375 52.25 42.40234375 52.25 40.1875 53.3125 C38.15234375 53.30078125 38.15234375 53.30078125 36.1875 52.3125 C34.44140625 50.16796875 34.44140625 50.16796875 32.75 47.5 C28.76760023 41.5602931 25.32094577 37.99095783 18.1875 36.3125 C14.04522867 36.00002692 10.19910997 36.1981639 6.1875 37.3125 C5.9296875 38.55 5.671875 39.7875 5.40625 41.0625 C4.10783988 46.89620179 2.41941638 52.595002 0.6875 58.3125 C0.37941406 59.36050781 0.07132813 60.40851563 -0.24609375 61.48828125 C-0.54644531 62.48214844 -0.84679687 63.47601563 -1.15625 64.5 C-1.42630859 65.40105469 -1.69636719 66.30210938 -1.97460938 67.23046875 C-2.8125 69.3125 -2.8125 69.3125 -4.8125 70.3125 C-5.54163698 72.49376651 -5.54163698 72.49376651 -6.09765625 75.22265625 C-7.93656563 83.01810824 -10.1989314 90.66086337 -12.51879883 98.32397461 C-13.00958233 99.95232708 -13.4951955 101.58224614 -13.97583008 103.21362305 C-14.67982788 105.60292725 -15.39869634 107.98729707 -16.12109375 110.37109375 C-16.33164902 111.09509872 -16.54220428 111.8191037 -16.75914001 112.56504822 C-18.09545557 116.89756805 -19.58254604 120.10280231 -22.8125 123.3125 C-25.1784668 124.50683594 -25.1784668 124.50683594 -27.76171875 125.296875 C-29.15680664 125.73966797 -29.15680664 125.73966797 -30.58007812 126.19140625 C-31.54365234 126.47886719 -32.50722656 126.76632813 -33.5 127.0625 C-35.42123971 127.65931604 -37.34184997 128.25816348 -39.26171875 128.859375 C-40.53535278 129.24367676 -40.53535278 129.24367676 -41.8347168 129.63574219 C-43.78915596 130.14245691 -43.78915596 130.14245691 -44.8125 131.3125 C-46.47867115 131.35313832 -48.14638095 131.355221 -49.8125 131.3125 C-49.19351846 126.57911176 -47.85490763 122.36032273 -46.125 117.9375 C-45.58183547 116.52090839 -45.03887262 115.10423943 -44.49609375 113.6875 C-44.0781958 112.6046875 -44.0781958 112.6046875 -43.65185547 111.5 C-42.56533814 108.66835507 -41.50700773 105.82660486 -40.44921875 102.98413086 C-38.30639517 97.2266661 -36.12729272 91.49010623 -33.76953125 85.81640625 C-32.95892389 83.6955927 -32.25628407 81.58337536 -31.56640625 79.421875 C-29.38267549 72.80807653 -26.62494771 66.42038015 -23.9375 60 C-23.41507506 58.74556324 -22.89293813 57.4910065 -22.37109375 56.23632812 C-22.11422791 55.61952179 -21.85736206 55.00271545 -21.5927124 54.36721802 C-20.82825257 52.53079281 -20.06499881 50.6938657 -19.30175781 48.85693359 C-18.32384575 46.52950287 -17.32888611 44.20914736 -16.31542969 41.89697266 C-15.85813477 40.84429199 -15.40083984 39.79161133 -14.9296875 38.70703125 C-14.52089355 37.7838208 -14.11209961 36.86061035 -13.69091797 35.90942383 C-12.7550302 33.14259831 -12.44242626 31.20815939 -12.8125 28.3125 C-17.97542826 23.39542547 -24.24008194 21.57748141 -30.8984375 19.42578125 C-33.8125 18.3125 -33.8125 18.3125 -34.8125 16.3125 C-35.26685757 12.29900809 -35.40982393 10.13639508 -33 6.8125 C-31.96963102 5.9397512 -30.89975604 5.11326525 -29.8125 4.3125 C-28.99910156 3.69761719 -28.18570313 3.08273438 -27.34765625 2.44921875 C-17.72296085 -4.28671814 -10.85507893 -3.48578816 0 0 Z " fill="#FA7628" transform="translate(186.8125,53.6875)"/>
<path d="M0 0 C5.36329566 0.55778275 10.19018519 1.49442907 15.359375 3.109375 C16.02986877 3.31806213 16.70036255 3.52674927 17.39117432 3.74176025 C18.80056168 4.18226802 20.20890209 4.62613855 21.61621094 5.07324219 C23.72830331 5.74311863 25.84419639 6.39966989 27.9609375 7.0546875 C34.32822815 9.04267187 40.65724273 11.13763618 46.890625 13.515625 C47.83454102 13.87430664 48.77845703 14.23298828 49.75097656 14.60253906 C52.56525051 16.351226 53.09262917 17.8743223 54 21 C50.34714813 25.48304547 45.26859909 27.85385947 40 30 C39.01 30 38.02 30 37 30 C36.66826782 30.94540649 36.66826782 30.94540649 36.32983398 31.90991211 C35 34 35 34 32.65649414 34.87329102 C31.68832764 35.06076904 30.72016113 35.24824707 29.72265625 35.44140625 C22.69561907 36.99400092 16.15275743 39.37695142 9.4375 41.9375 C7.14463163 42.80104783 4.85166401 43.66433216 2.55859375 44.52734375 C1.46530762 44.94097168 0.37202148 45.35459961 -0.75439453 45.78076172 C-5.48890929 47.55932097 -10.24211628 49.28509557 -15 51 C-13.37791562 42.94456401 -11.07103339 35.10646987 -8.74145508 27.23413086 C-8.06340958 24.94057674 -7.39175722 22.64521752 -6.72070312 20.34960938 C-6.28423603 18.86707503 -5.84739946 17.38464939 -5.41015625 15.90234375 C-5.21317642 15.22815903 -5.01619659 14.5539743 -4.81324768 13.85935974 C-3.41387053 9.15162241 -1.76414651 4.58384441 0 0 Z " fill="#602D95" transform="translate(182,124)"/>
<path d="M0 0 C2.94753211 2.03659503 5.42982712 4.51387752 8 7 C9.8289777 8.67144532 11.66253241 10.33789238 13.5 12 C14.89992188 13.28003906 14.89992188 13.28003906 16.328125 14.5859375 C18.60358387 16.64183455 20.9124208 18.6407758 23.25 20.625 C29.85335556 26.42671363 34.57174857 31.11310224 36 40 C34.1128125 40.495 34.1128125 40.495 32.1875 41 C24.26347474 43.36251252 16.75464274 46.82548375 9.16845703 50.08251953 C5.71645655 51.54307096 2.2228526 52.89158092 -1.28515625 54.2109375 C-3.20577991 54.97458652 -3.20577991 54.97458652 -5 57 C-8.11875082 51.3918374 -9.64766951 47.03247165 -10.046875 40.66015625 C-10.10780334 39.89376328 -10.16873169 39.1273703 -10.23150635 38.3377533 C-10.41998236 35.91355379 -10.58496654 33.4883951 -10.75 31.0625 C-10.87484558 29.44064243 -11.00113652 27.81889545 -11.12890625 26.19726562 C-11.4632804 21.79969742 -11.79539198 17.40580462 -12 13 C-12.04080688 12.19513153 -12.08161377 11.39026306 -12.12365723 10.56100464 C-12.14762573 9.75897614 -12.17159424 8.95694763 -12.19628906 8.13061523 C-12.23499115 7.03691872 -12.23499115 7.03691872 -12.2744751 5.92112732 C-12 4 -12 4 -9.375 1.4375 C-3.95642202 -0.87041284 -3.95642202 -0.87041284 0 0 Z " fill="#FCA538" transform="translate(46,55)"/>
<path d="M0 0 C2.66103442 9.86581139 5.28008279 19.69081647 7.2265625 29.7265625 C7.8266532 32.26634029 8.51344935 34.610796 9.35546875 37.0703125 C11.40146364 43.05585542 13.03738963 49.14562509 14.6875 55.25 C15.00783203 56.40757812 15.32816406 57.56515625 15.65820312 58.7578125 C16.11163086 60.43230469 16.11163086 60.43230469 16.57421875 62.140625 C16.84838623 63.14641602 17.12255371 64.15220703 17.4050293 65.18847656 C17.97639734 67.88846604 18.11480669 70.25093026 18 73 C14.66091309 72.52083624 11.92125604 71.71117035 9 70 C6.51911768 66.50282435 5.23234223 62.6494823 3.8125 58.625 C3.13485777 56.83950393 2.45720058 55.0540135 1.77909851 53.26869202 C1.03929176 51.30157134 0.31674012 49.32878842 -0.40234375 47.35400391 C-2.15794774 42.54449577 -3.98398194 37.76263772 -5.8125 32.98046875 C-9.2414381 23.99929126 -12.63089762 15.00377612 -16 6 C-13.18214999 2.92413376 -10.96257952 2.24328618 -6.875 1.3125 C-5.26238281 0.93544922 -5.26238281 0.93544922 -3.6171875 0.55078125 C-1 0 -1 0 0 0 Z " fill="#5C2A89" transform="translate(107,114)"/>
<path d="M0 0 C1.94424737 3.82994664 3.87915939 7.66453766 5.8125 11.5 C6.35970703 12.57765625 6.90691406 13.6553125 7.47070312 14.765625 C10.3191176 20.42792771 12.92752266 26.00799533 15 32 C7.79161056 30.54763453 1.29707165 28.43872218 -5.4375 25.5 C-8.04721017 24.40117467 -10.49875757 23.51443337 -13.1875 22.6875 C-28.49988063 17.66271188 -28.49988063 17.66271188 -31.09375 13.05859375 C-31 11 -31 11 -29.7109375 8.984375 C-25.69261586 6.04300988 -21.3385421 4.75445933 -16.625 3.25 C-15.69171875 2.93417969 -14.7584375 2.61835938 -13.796875 2.29296875 C-8.98456838 0.71840384 -5.10878069 -0.16536879 0 0 Z " fill="#5F2E98" transform="translate(51,132)"/>
<path d="M0 0 C1.0828125 0.4640625 1.0828125 0.4640625 2.1875 0.9375 C0.19953987 5.4104103 -2.05587546 9.09911102 -6.5625 11.25 C-7.67625 11.5903125 -7.67625 11.5903125 -8.8125 11.9375 C-9.1425 14.2475 -9.4725 16.5575 -9.8125 18.9375 C-9.090625 18.6075 -8.36875 18.2775 -7.625 17.9375 C-3.1603114 16.35005517 -0.84629989 16.4693642 3.5 18.4375 C4.386875 18.9325 5.27375 19.4275 6.1875 19.9375 C6.1875 20.5975 6.1875 21.2575 6.1875 21.9375 C5.5275 21.9375 4.8675 21.9375 4.1875 21.9375 C3.754375 22.8346875 3.754375 22.8346875 3.3125 23.75 C0.7358871 28.76008065 0.7358871 28.76008065 -1.9375 29.625 C-2.55625 29.728125 -3.175 29.83125 -3.8125 29.9375 C-4.1425 31.2575 -4.4725 32.5775 -4.8125 33.9375 C-5.4725 33.9375 -6.1325 33.9375 -6.8125 33.9375 C-6.8125 35.2575 -6.8125 36.5775 -6.8125 37.9375 C-5.513125 37.4425 -5.513125 37.4425 -4.1875 36.9375 C0.77292167 35.46774543 3.79353618 35.31796052 8.5625 37.4375 C9.42875 37.9325 10.295 38.4275 11.1875 38.9375 C11.1875 39.5975 11.1875 40.2575 11.1875 40.9375 C9.53747172 42.29136936 7.8700613 43.62428142 6.1875 44.9375 C5.8575 45.5975 5.5275 46.2575 5.1875 46.9375 C3.16206444 47.19469817 1.13399776 47.44592122 -0.90234375 47.59375 C-3.04772156 47.79226212 -3.04772156 47.79226212 -4.8125 49.9375 C-7.87313029 43.225355 -9.4778684 36.4209428 -11.02954102 29.23193359 C-11.49786763 27.07233303 -11.98355874 24.91714227 -12.47070312 22.76171875 C-14.01996007 15.75593456 -15.24034832 9.15441322 -14.8125 1.9375 C-8.85437152 -1.91775961 -6.70397476 -2.53261269 0 0 Z " fill="#0579D9" transform="translate(110.8125,63.0625)"/>
<path d="M0 0 C2.92315204 2.07056603 5.41691089 4.52734035 8 7 C10.16898987 8.81736182 12.34642401 10.62359515 14.53125 12.421875 C16 14 16 14 16 17 C12.23242503 18.50827797 8.46043651 20.00518994 4.6875 21.5 C3.61564453 21.92925781 2.54378906 22.35851562 1.43945312 22.80078125 C-0.10258789 23.40986328 -0.10258789 23.40986328 -1.67578125 24.03125 C-2.62364502 24.40830078 -3.57150879 24.78535156 -4.5480957 25.17382812 C-7 26 -7 26 -10 26 C-11.96450004 22.07099993 -11.69167299 17.32799772 -12 13 C-12.09023438 12.14664063 -12.18046875 11.29328125 -12.2734375 10.4140625 C-12.43253419 8.13367666 -12.4867131 6.23424492 -12 4 C-8.32286518 0.41041601 -5.07099978 -1.11561995 0 0 Z " fill="#FB4731" transform="translate(46,55)"/>
<path d="M0 0 C0.33 0 0.66 0 1 0 C3.68424283 9.95185681 6.24372399 19.86858707 8.30859375 29.96875 C9.10629246 33.46600535 10.17789967 36.7817458 11.44921875 40.1328125 C12 42 12 42 12 46 C9.55492066 46.87324262 8.32299678 47.10151327 5.8125 46.3125 C4 45 4 45 3.25 42.875 C3.1675 42.25625 3.085 41.6375 3 41 C2.34 41 1.68 41 1 41 C0.80664062 40.36191406 0.61328125 39.72382813 0.4140625 39.06640625 C0.15367188 38.24011719 -0.10671875 37.41382813 -0.375 36.5625 C-0.63023438 35.73878906 -0.88546875 34.91507813 -1.1484375 34.06640625 C-1.80882227 31.82201984 -1.80882227 31.82201984 -4 31 C-6.33947422 27.37381496 -5.93989816 24.73903594 -5.125 20.6875 C-4.76384694 19.12174149 -4.39328132 17.55799906 -4 16 C-2.68 16 -1.36 16 0 16 C0.2165625 15.1028125 0.2165625 15.1028125 0.4375 14.1875 C0.8872439 12.43849596 1.42892341 10.71322977 2 9 C1.34 9 0.68 9 0 9 C0 6.03 0 3.06 0 0 Z " fill="#5F2D9A" transform="translate(106,114)"/>
<path d="M0 0 C1 2 1 2 0.51855469 4.01538086 C-0.3954037 6.65948251 -1.31196922 9.30181745 -2.25 11.9375 C-2.56324219 12.85724609 -2.87648437 13.77699219 -3.19921875 14.72460938 C-3.50988281 15.60826172 -3.82054687 16.49191406 -4.140625 17.40234375 C-4.56649902 18.61651978 -4.56649902 18.61651978 -5.00097656 19.85522461 C-6.05304491 22.11388064 -7.22928049 23.28531967 -9 25 C-10.20049407 28.10007201 -10.20049407 28.10007201 -11 31 C-14.96 31.495 -14.96 31.495 -19 32 C-21.44829361 28.30355671 -22.69255736 24.99891812 -23.6875 20.6875 C-23.93886719 19.61886719 -24.19023438 18.55023438 -24.44921875 17.44921875 C-24.63097656 16.64097656 -24.81273438 15.83273438 -25 15 C-19.72684667 15.4452885 -14.98229776 16.08373163 -10 18 C-9.67 17.01 -9.34 16.02 -9 15 C-8.01 15.33 -7.02 15.66 -6 16 C-5.65066406 14.92878906 -5.30132812 13.85757813 -4.94140625 12.75390625 C-4.48192855 11.35671896 -4.02228454 9.95958635 -3.5625 8.5625 C-3.33240234 7.85544922 -3.10230469 7.14839844 -2.86523438 6.41992188 C-1.11328125 1.11328125 -1.11328125 1.11328125 0 0 Z " fill="#146FD2" transform="translate(146,155)"/>
<path d="M0 0 C0.33 0 0.66 0 1 0 C1.09279707 9.15355759 1.16381394 18.30695253 1.20724869 27.46087837 C1.22809828 31.71171849 1.25636734 35.9622361 1.30175781 40.21289062 C1.34531017 44.31723055 1.36915688 48.42126083 1.37950897 52.52581406 C1.38688357 54.08949532 1.40128466 55.65316017 1.42292023 57.21670914 C1.45208062 59.41193126 1.45595097 61.60588401 1.45410156 63.80126953 C1.46742523 65.67324509 1.46742523 65.67324509 1.48101807 67.58303833 C0.90698475 71.66074344 -0.45374961 73.80309507 -3 77 C-5.2890625 78.6796875 -5.2890625 78.6796875 -7.625 79.875 C-8.40101563 80.28492188 -9.17703125 80.69484375 -9.9765625 81.1171875 C-12 82 -12 82 -14 82 C-14 81.34 -14 80.68 -14 80 C-11.525 79.01 -11.525 79.01 -9 78 C-9 77.34 -9 76.68 -9 76 C-8.21625 75.896875 -7.4325 75.79375 -6.625 75.6875 C-3.66954819 75.22404978 -3.66954819 75.22404978 -2 72 C-1.67634782 68.83111015 -1.67634782 68.83111015 -1.69702148 65.15771484 C-1.68858215 64.46637955 -1.68014282 63.77504425 -1.67144775 63.0627594 C-1.64566699 60.77881179 -1.63353094 58.49499331 -1.62109375 56.2109375 C-1.60492247 54.62577282 -1.58774286 53.04061814 -1.56959534 51.45547485 C-1.52389862 47.28349411 -1.4890942 43.11150016 -1.45739746 38.93939209 C-1.40552316 32.25381321 -1.34053841 25.56838062 -1.26918221 18.88298416 C-1.24628004 16.54247595 -1.23005556 14.20198657 -1.21446228 11.86141968 C-1.20106142 10.43544302 -1.18744712 9.00946834 -1.17358398 7.58349609 C-1.16407211 6.33345795 -1.15456024 5.0834198 -1.14476013 3.79550171 C-1 1 -1 1 0 0 Z " fill="#855AAE" transform="translate(217,157)"/>
<path d="M0 0 C2.92315204 2.07056603 5.41691089 4.52734035 8 7 C10.16898987 8.81736182 12.34642401 10.62359515 14.53125 12.421875 C16 14 16 14 16 17 C14.02 17.33 12.04 17.66 10 18 C10.33 17.01 10.66 16.02 11 15 C8.69 15.33 6.38 15.66 4 16 C4 14.35 4 12.7 4 11 C3.34 11 2.68 11 2 11 C2 8.69 2 6.38 2 4 C0.741875 3.814375 -0.51625 3.62875 -1.8125 3.4375 C-2.52019531 3.33308594 -3.22789063 3.22867188 -3.95703125 3.12109375 C-6.2025342 2.86095201 -6.2025342 2.86095201 -9 4 C-9.33 5.65 -9.66 7.3 -10 9 C-9.34 9 -8.68 9 -8 9 C-8.66 13.95 -9.32 18.9 -10 24 C-10.33 24 -10.66 24 -11 24 C-11.38345398 20.33664506 -11.70194938 16.67122674 -12 13 C-12.09152344 12.1440625 -12.18304688 11.288125 -12.27734375 10.40625 C-12.43288774 8.12999651 -12.48581844 6.23013796 -12 4 C-8.32286518 0.41041601 -5.07099978 -1.11561995 0 0 Z " fill="#FB4733" transform="translate(46,55)"/>
<path d="M0 0 C2.97 0.495 2.97 0.495 6 1 C4.68 1.33 3.36 1.66 2 2 C2.33 24.44 2.66 46.88 3 70 C3.33 70 3.66 70 4 70 C4.12375 71.11375 4.2475 72.2275 4.375 73.375 C4.6465813 77.03103677 4.6465813 77.03103677 7 79 C5.1875 78.875 5.1875 78.875 3 78 C0.17871041 73.46089737 -0.36844501 70.00455181 -0.34057617 64.70947266 C-0.34101425 64.00633942 -0.34145233 63.30320618 -0.34190369 62.57876587 C-0.33982728 60.27357417 -0.31655188 57.96912585 -0.29296875 55.6640625 C-0.28736868 54.05838417 -0.28310052 52.45270069 -0.28010559 50.84701538 C-0.2686891 46.63504716 -0.23924979 42.4233927 -0.20599365 38.21154785 C-0.17522357 33.90800215 -0.16158547 29.60440541 -0.14648438 25.30078125 C-0.1143767 16.86704403 -0.06321945 8.43356112 0 0 Z " fill="#764FAE" transform="translate(39,155)"/>
<path d="M0 0 C1.0828125 0.4640625 1.0828125 0.4640625 2.1875 0.9375 C0.63561689 4.429237 -1.06383472 7.26116802 -3.8125 9.9375 C-6.48668746 10.5742113 -9.05831309 10.71538815 -11.8125 10.9375 C-12.4725 11.5975 -13.1325 12.2575 -13.8125 12.9375 C-15.01522819 10.53204362 -14.91321472 8.98753047 -14.875 6.3125 C-14.86597656 5.49523437 -14.85695313 4.67796875 -14.84765625 3.8359375 C-14.83605469 3.20945312 -14.82445313 2.58296875 -14.8125 1.9375 C-8.85437152 -1.91775961 -6.70397476 -2.53261269 0 0 Z " fill="#0976D2" transform="translate(110.8125,63.0625)"/>
<path d="M0 0 C0 0.66 0 1.32 0 2 C-1.65002828 3.35386936 -3.3174387 4.68678142 -5 6 C-5.33 6.66 -5.66 7.32 -6 8 C-8.02543556 8.25719817 -10.05350224 8.50842122 -12.08984375 8.65625 C-14.23522156 8.85476212 -14.23522156 8.85476212 -16 11 C-17.85776765 7.86501708 -18.20140476 5.62528568 -18 2 C-17.34 2 -16.68 2 -16 2 C-16 0.68 -16 -0.64 -16 -2 C-9.84569565 -3.89363211 -5.56876075 -3.182149 0 0 Z " fill="#0475D5" transform="translate(122,102)"/>
<path d="M0 0 C2.97 0 5.94 0 9 0 C9 0.66 9 1.32 9 2 C10.98 2.66 12.96 3.32 15 4 C14.34 5.65 13.68 7.3 13 9 C12.34 9 11.68 9 11 9 C11 9.99 11 10.98 11 12 C8.69 12.33 6.38 12.66 4 13 C3.67 14.32 3.34 15.64 3 17 C2.49255577 15.10614563 1.99435426 13.20981334 1.5 11.3125 C1.2215625 10.25675781 0.943125 9.20101562 0.65625 8.11328125 C0.0608285 5.28857328 -0.12786492 2.87163292 0 0 Z " fill="#0678D9" transform="translate(117,151)"/>
<path d="M0 0 C0.33 0.66 0.66 1.32 1 2 C2.64363134 2.72159424 4.31050386 3.39351421 6 4 C6 4.66 6 5.32 6 6 C5.34 6 4.68 6 4 6 C3.690625 6.639375 3.38125 7.27875 3.0625 7.9375 C2 10 2 10 1 11 C-0.47396739 11.20768229 -1.9549126 11.36716017 -3.4375 11.5 C-6.84497505 11.79146944 -6.84497505 11.79146944 -10 13 C-10.66 9.37 -11.32 5.74 -12 2 C-7.8803623 0.70756464 -4.33168317 -0.26252625 0 0 Z " fill="#0577D7" transform="translate(120,117)"/>
<path d="M0 0 C4.75207471 -0.43200679 7.78210698 1.01510917 12 3 C10.65713078 7.39484471 9.00799181 9.6842714 5 12 C1.1875 11.75 1.1875 11.75 -2 11 C-2.33 11.99 -2.66 12.98 -3 14 C-3.66 10.37 -4.32 6.74 -5 3 C-3.35 2.67 -1.7 2.34 0 2 C0 1.34 0 0.68 0 0 Z " fill="#0D77D7" transform="translate(117,133)"/>
<path d="M0 0 C2.52870624 3.79305936 3.43181588 7.51155341 4.625 11.875 C4.85445313 12.67808594 5.08390625 13.48117188 5.3203125 14.30859375 C6.42157818 18.28757154 7.32084607 21.82900107 7 26 C4.03 25.01 1.06 24.02 -2 23 C-4.09749843 14.61000626 -2.75335753 7.99784807 0 0 Z " fill="#562F9D" transform="translate(118,161)"/>
<path d="M0 0 C3.3 0 6.6 0 10 0 C11.3143753 3.9431259 10.31328644 5.32459675 8.75 9.125 C7.12914672 13.13896907 5.59537721 17.11554597 4.3125 21.25 C3 25 3 25 1 26 C1.875 21.125 1.875 21.125 3 20 C3.62764392 13.09591689 1.68135229 6.65535282 0 0 Z " fill="#4736A2" transform="translate(151,115)"/>
<path d="M0 0 C1.98 0.99 1.98 0.99 4 2 C3.83250244 2.57524414 3.66500488 3.15048828 3.49243164 3.74316406 C2.99650158 6.01603339 2.96346359 7.79746603 3.12109375 10.109375 C3.16943359 10.86347656 3.21777344 11.61757812 3.26757812 12.39453125 C3.32365234 13.17183594 3.37972656 13.94914062 3.4375 14.75 C3.48970703 15.54277344 3.54191406 16.33554688 3.59570312 17.15234375 C3.72489324 19.10193997 3.86169965 21.05102886 4 23 C10.7828776 25.2609592 18.22347264 20.71660335 24.36328125 17.92578125 C27 17 27 17 30 18 C23.05082991 21.26763484 16.12319881 24.45484562 8.92578125 27.140625 C6.81804151 27.94357558 6.81804151 27.94357558 5 30 C-0.61428572 20.58248847 -0.21315287 10.70501083 0 0 Z " fill="#F49E46" transform="translate(36,82)"/>
<path d="M0 0 C1.65 0.33 3.3 0.66 5 1 C4.125 5.75 4.125 5.75 3 8 C3.165 8.804375 3.33 9.60875 3.5 10.4375 C4 13 4 13 3 16 C3.66 16 4.32 16 5 16 C5.103125 16.639375 5.20625 17.27875 5.3125 17.9375 C5.6528125 18.9584375 5.6528125 18.9584375 6 20 C6.99 20.33 7.98 20.66 9 21 C8.67 22.32 8.34 23.64 8 25 C7.34 25 6.68 25 6 25 C6 26.32 6 27.64 6 29 C6.66 29 7.32 29 8 29 C8 29.99 8 30.98 8 32 C7.34 32 6.68 32 6 32 C5.67 32.66 5.34 33.32 5 34 C3.95891794 29.65042107 2.9457799 25.29478942 1.9375 20.9375 C1.64294922 19.70837891 1.34839844 18.47925781 1.04492188 17.21289062 C0.77099609 16.01728516 0.49707031 14.82167969 0.21484375 13.58984375 C-0.17006226 11.94810181 -0.17006226 11.94810181 -0.56274414 10.27319336 C-1.04991423 6.62635391 -0.67189671 3.60272213 0 0 Z " fill="#2792DC" transform="translate(98,72)"/>
<path d="M0 0 C4.93235464 1.35922925 9.726974 2.77979252 14.375 4.9375 C18.80963131 6.99448066 23.35183581 8.48829969 28 9.98828125 C31.65478549 11.22081959 35.19716369 12.66072434 38.74609375 14.16796875 C41.14548226 15.05370489 43.4838151 15.56066613 46 16 C46 16.66 46 17.32 46 18 C41.86003381 17.52231159 38.68124487 16.90409217 35 15 C33.68 15 32.36 15 31 15 C31 14.34 31 13.68 31 13 C30.02160156 12.81824219 30.02160156 12.81824219 29.0234375 12.6328125 C24.21353658 11.71056011 19.60974535 10.69832723 15 9 C15 8.34 15 7.68 15 7 C10.545 6.01 10.545 6.01 6 5 C6 5.66 6 6.32 6 7 C4.68 6.67 3.36 6.34 2 6 C2.66 6 3.32 6 4 6 C4 5.01 4 4.02 4 3 C2.68 3 1.36 3 0 3 C0 2.01 0 1.02 0 0 Z " fill="#9A5091" transform="translate(70,166)"/>
<path d="M0 0 C0 0.66 0 1.32 0 2 C0.66 2.33 1.32 2.66 2 3 C0.35 3.33 -1.3 3.66 -3 4 C-2.360625 4.5775 -1.72125 5.155 -1.0625 5.75 C1.04278441 8.0466739 1.41184231 9.05921154 2 12 C2.66 12.66 3.32 13.32 4 14 C2.02 14.66 0.04 15.32 -2 16 C-2 17.65 -2 19.3 -2 21 C-2.33 21 -2.66 21 -3 21 C-3.75057335 18.06648422 -4.47588856 15.1304735 -5.1875 12.1875 C-5.40341797 11.35412109 -5.61933594 10.52074219 -5.84179688 9.66210938 C-6.03193359 8.85966797 -6.22207031 8.05722656 -6.41796875 7.23046875 C-6.60125732 6.49207764 -6.7845459 5.75368652 -6.97338867 4.99291992 C-7 3 -7 3 -5.78637695 1.2355957 C-4 0 -4 0 0 0 Z " fill="#1596EB" transform="translate(98,49)"/>
<path d="M0 0 C1.32 0 2.64 0 4 0 C5.98904303 3.89086696 7.96447868 7.78848738 9.9375 11.6875 C10.50146484 12.79029297 11.06542969 13.89308594 11.64648438 15.02929688 C12.18466797 16.09599609 12.72285156 17.16269531 13.27734375 18.26171875 C13.77484131 19.24100342 14.27233887 20.22028809 14.78491211 21.22924805 C15.93467181 23.85103284 16.56570443 26.18045417 17 29 C13.9083091 26.47043472 13.09068668 23.77545388 12 20 C10.68 20.33 9.36 20.66 8 21 C7.14670459 17.90680414 7 15.20663885 7 12 C6.01 12.33 5.02 12.66 4 13 C2.6728739 9.0186217 2.93084087 5.14954773 3 1 C2.01 0.67 1.02 0.34 0 0 Z " fill="#552071" transform="translate(47,132)"/>
<path d="M0 0 C0.66 0.33 1.32 0.66 2 1 C2.625 3.0625 2.625 3.0625 3 5 C3.66 5 4.32 5 5 5 C4.67 6.32 4.34 7.64 4 9 C2.35 9.33 0.7 9.66 -1 10 C-1 9.34 -1 8.68 -1 8 C-2.9600281 6.36323743 -2.9600281 6.36323743 -5 5 C-5.99 5.495 -5.99 5.495 -7 6 C-7 6.66 -7 7.32 -7 8 C-8.65 7.67 -10.3 7.34 -12 7 C-12 6.01 -12 5.02 -12 4 C-11.34 4 -10.68 4 -10 4 C-9.67 3.01 -9.34 2.02 -9 1 C-2.25 0.875 -2.25 0.875 0 2 C0 1.34 0 0.68 0 0 Z " fill="#63309E" transform="translate(228,138)"/>
<path d="M0 0 C2.89360945 2.11254458 5.46253344 4.47541398 8 7 C7.01 7.33 6.02 7.66 5 8 C4.01 7.34 3.02 6.68 2 6 C2 5.34 2 4.68 2 4 C0.741875 3.814375 -0.51625 3.62875 -1.8125 3.4375 C-2.52019531 3.33308594 -3.22789063 3.22867188 -3.95703125 3.12109375 C-6.2025342 2.86095201 -6.2025342 2.86095201 -9 4 C-9.33 5.65 -9.66 7.3 -10 9 C-9.34 9 -8.68 9 -8 9 C-8.66 13.95 -9.32 18.9 -10 24 C-10.33 24 -10.66 24 -11 24 C-11.38345398 20.33664506 -11.70194938 16.67122674 -12 13 C-12.09152344 12.1440625 -12.18304688 11.288125 -12.27734375 10.40625 C-12.43288774 8.12999651 -12.48581844 6.23013796 -12 4 C-8.32286518 0.41041601 -5.07099978 -1.11561995 0 0 Z " fill="#DB5D50" transform="translate(46,55)"/>
<path d="M0 0 C1.5744136 2.36162039 2.53630433 4.1200187 3.52807617 6.70532227 C3.81144333 7.43940811 4.09481049 8.17349396 4.38676453 8.92982483 C4.83533562 10.11118263 4.83533562 10.11118263 5.29296875 11.31640625 C5.60325516 12.12867172 5.91354156 12.94093719 6.23323059 13.77781677 C6.88657341 15.49263697 7.53786731 17.208239 8.18725586 18.92456055 C9.1862014 21.5590752 10.19728269 24.18872135 11.20898438 26.81835938 C11.84189444 28.48409075 12.47408097 30.15009726 13.10546875 31.81640625 C13.41058884 32.60600235 13.71570892 33.39559845 14.03007507 34.2091217 C14.74555497 36.11838777 15.38075642 38.05738686 16 40 C15.67 40.66 15.34 41.32 15 42 C14.01 41.01 13.02 40.02 12 39 C11.01 39.495 11.01 39.495 10 40 C10.37125 38.7934375 10.37125 38.7934375 10.75 37.5625 C11.04755459 33.32234707 10.02362226 31.37696894 8.18359375 27.65234375 C6.30920978 23.45199156 5.16831129 19.04719402 3.9296875 14.625 C3.29071151 11.85626807 3.29071151 11.85626807 1 11 C0.5859375 8.49609375 0.5859375 8.49609375 0.375 5.4375 C0.30023438 4.42558594 0.22546875 3.41367188 0.1484375 2.37109375 C0.09945312 1.58863281 0.05046875 0.80617188 0 0 Z " fill="#E27956" transform="translate(88,112)"/>
<path d="M0 0 C0.70125 0.144375 1.4025 0.28875 2.125 0.4375 C5.07556141 1.01478375 8.03270151 1.51695141 11 2 C11 2.66 11 3.32 11 4 C12.19625 4.391875 13.3925 4.78375 14.625 5.1875 C22.81794905 7.91848302 31.00196778 10.73764475 39 14 C39 14.33 39 14.66 39 15 C33.44660553 14.47615262 28.91203724 13.44168576 23.69140625 11.34765625 C23.03921616 11.08746201 22.38702606 10.82726776 21.71507263 10.55918884 C20.35288357 10.01319086 18.99253965 9.46256807 17.6340332 8.9074707 C15.5479727 8.05657437 13.45534149 7.22368321 11.36132812 6.39257812 C1.13767886 2.27535773 1.13767886 2.27535773 0 0 Z " fill="#805BAF" transform="translate(48,235)"/>
<path d="M0 0 C5.64641196 6.721919 6.34690454 12.55586046 6.49609375 21.109375 C6 24 6 24 4.109375 25.8984375 C2 27 2 27 -0.1875 26.875 C-1.0846875 26.441875 -1.0846875 26.441875 -2 26 C-2.33 25.01 -2.66 24.02 -3 23 C-0.69 23 1.62 23 4 23 C3.85962479 21.18706911 3.71255111 19.3746557 3.5625 17.5625 C3.48128906 16.55316406 3.40007812 15.54382813 3.31640625 14.50390625 C3.26788532 12.06359221 3.26788532 12.06359221 2 11 C1.95936168 9.33382885 1.957279 7.66611905 2 6 C1.34 6 0.68 6 0 6 C0 4.02 0 2.04 0 0 Z " fill="#DC8044" transform="translate(225,80)"/>
<path d="M0 0 C1 2 1 2 0.51855469 4.01538086 C-0.3954037 6.65948251 -1.31196922 9.30181745 -2.25 11.9375 C-2.71986328 13.31711914 -2.71986328 13.31711914 -3.19921875 14.72460938 C-3.50988281 15.60826172 -3.82054687 16.49191406 -4.140625 17.40234375 C-4.56649902 18.61651978 -4.56649902 18.61651978 -5.00097656 19.85522461 C-6.05186235 22.11134182 -7.19024716 23.32509981 -9 25 C-10.17574711 27.09989652 -10.17574711 27.09989652 -11 29 C-11 26.69 -11 24.38 -11 22 C-11.99 21.67 -12.98 21.34 -14 21 C-13.01 21 -12.02 21 -11 21 C-11 20.34 -11 19.68 -11 19 C-11.99 18.67 -12.98 18.34 -14 18 C-12.68 18 -11.36 18 -10 18 C-9.67 17.01 -9.34 16.02 -9 15 C-8.01 15.33 -7.02 15.66 -6 16 C-5.65066406 14.92878906 -5.30132812 13.85757813 -4.94140625 12.75390625 C-4.48192855 11.35671896 -4.02228454 9.95958635 -3.5625 8.5625 C-3.33240234 7.85544922 -3.10230469 7.14839844 -2.86523438 6.41992188 C-1.11328125 1.11328125 -1.11328125 1.11328125 0 0 Z " fill="#388BC2" transform="translate(146,155)"/>
<path d="M0 0 C0 3 0 3 -2 6 C-1.01 6.33 -0.02 6.66 1 7 C0.67 7.66 0.34 8.32 0 9 C-0.66 9 -1.32 9 -2 9 C-2.33 9.66 -2.66 10.32 -3 11 C-2.01 11.33 -1.02 11.66 0 12 C0 12.66 0 13.32 0 14 C2.64 14 5.28 14 8 14 C8.33 15.32 8.66 16.64 9 18 C7.22604492 17.57533503 5.45589369 17.1347591 3.6875 16.6875 C2.70136719 16.44386719 1.71523437 16.20023438 0.69921875 15.94921875 C-2.04646135 14.9836612 -3.29584025 14.32694238 -5 12 C-5.5 8.625 -5.5 8.625 -5 5 C-2.5 2.0625 -2.5 2.0625 0 0 Z " fill="#E37E43" transform="translate(157,58)"/>
<path d="M0 0 C1.24092786 4.10469318 0.48616782 6.58958351 -0.8125 10.6875 C-1.16957031 11.84636719 -1.52664062 13.00523438 -1.89453125 14.19921875 C-3 17 -3 17 -5 18 C-5.50217353 19.95659633 -5.50217353 19.95659633 -5.8125 22.25 C-6.74657857 27.01152244 -8.28156988 28.96654385 -12 32 C-9.94400621 24.55838512 -7.29150906 17.49231351 -4.3125 10.375 C-3.68891602 8.86873047 -3.68891602 8.86873047 -3.05273438 7.33203125 C-2.03945904 4.88619424 -1.02183204 2.4422715 0 0 Z " fill="#DF7F5F" transform="translate(168,101)"/>
<path d="M0 0 C0 0.66 0 1.32 0 2 C-1.65 2.33 -3.3 2.66 -5 3 C-5.33 3.99 -5.66 4.98 -6 6 C-7.87700337 6.52303015 -9.7604402 7.03006049 -11.66503906 7.44140625 C-15.70663537 8.40827914 -19.51463626 9.98002152 -23.375 11.5 C-24.58349609 11.96212891 -24.58349609 11.96212891 -25.81640625 12.43359375 C-26.58597656 12.73394531 -27.35554688 13.03429687 -28.1484375 13.34375 C-28.84114746 13.61380859 -29.53385742 13.88386719 -30.24755859 14.16210938 C-32.19637229 14.97442403 -32.19637229 14.97442403 -34 17 C-33.89819336 15.1862793 -33.89819336 15.1862793 -33 13 C-30.25610352 11.46020508 -30.25610352 11.46020508 -26.62890625 10.01953125 C-25.99137924 9.76121017 -25.35385223 9.5028891 -24.69700623 9.23674011 C-22.65766379 8.4140899 -20.61060389 7.61305474 -18.5625 6.8125 C-17.18627716 6.26249631 -15.81061788 5.71108023 -14.43554688 5.15820312 C-11.91809862 4.14701092 -9.39747133 3.14610884 -6.87329102 2.15161133 C-1.50498198 0 -1.50498198 0 0 0 Z " fill="#ED691D" transform="translate(76,96)"/>
<path d="M0 0 C0.45164525 7.11341265 -0.67202085 11.71546794 -4 18 C-4.33 18 -4.66 18 -5 18 C-5.41917468 16.10919048 -5.80944146 14.21195776 -6.1875 12.3125 C-6.40792969 11.25675781 -6.62835938 10.20101562 -6.85546875 9.11328125 C-7.02886693 5.37819082 -6.31697397 3.88970911 -4 1 C-1 0 -1 0 0 0 Z " fill="#338EC5" transform="translate(152,137)"/>
<path d="M0 0 C3.002135 4.50320249 4.70900256 9.47883648 6.6875 14.5 C7.11611328 15.55832031 7.54472656 16.61664063 7.98632812 17.70703125 C8.38658203 18.72152344 8.78683594 19.73601562 9.19921875 20.78125 C9.56877686 21.71001953 9.93833496 22.63878906 10.3190918 23.59570312 C11 26 11 26 10 29 C7.36 28.01 4.72 27.02 2 26 C6 25 6 25 8 25 C7.21494099 22.87255001 6.4217394 20.74810326 5.625 18.625 C5.18414062 17.44164062 4.74328125 16.25828125 4.2890625 15.0390625 C3.2049658 11.95506554 3.2049658 11.95506554 1 10 C1 8.68 1 7.36 1 6 C0.34 5.67 -0.32 5.34 -1 5 C-0.67 3.35 -0.34 1.7 0 0 Z " fill="#DD7A64" transform="translate(104,154)"/>
<path d="M0 0 C8.26405949 -0.56993514 15.1977858 1.51394597 23 4 C22.67 4.66 22.34 5.32 22 6 C20.02 6 18.04 6 16 6 C16 5.34 16 4.68 16 4 C15.175 4.165 14.35 4.33 13.5 4.5 C9.58727683 5.05896045 5.94816827 5.06807187 2 5 C2 4.34 2 3.68 2 3 C3.98 3 5.96 3 8 3 C8 2.34 8 1.68 8 1 C5.36 1 2.72 1 0 1 C0 0.67 0 0.34 0 0 Z " fill="#EE8A50" transform="translate(168,51)"/>
<path d="M0 0 C0.99 0 1.98 0 3 0 C3 2.97 3 5.94 3 9 C0.36 9.33 -2.28 9.66 -5 10 C-5.33 8.35 -5.66 6.7 -6 5 C-4.68 5 -3.36 5 -2 5 C-1.34 3.35 -0.68 1.7 0 0 Z " fill="#1996F1" transform="translate(132,177)"/>
<path d="M0 0 C2 2 2 2 2.3125 5.125 C1.94707674 9.65624842 0.75707285 12.82695197 -1 17 C-1.66 16.34 -2.32 15.68 -3 15 C-3.99 15.495 -3.99 15.495 -5 16 C-4.54762239 14.08191891 -4.08785537 12.16557967 -3.625 10.25 C-3.24214844 8.64898437 -3.24214844 8.64898437 -2.8515625 7.015625 C-2.12466459 4.44147278 -1.2973776 2.32399814 0 0 Z " fill="#57288B" transform="translate(182,130)"/>
<path d="M0 0 C-0.33 0.66 -0.66 1.32 -1 2 C-1.99 2.33 -2.98 2.66 -4 3 C-4.73323796 5.01508358 -4.73323796 5.01508358 -5 7 C-4.236875 7.103125 -3.47375 7.20625 -2.6875 7.3125 C0.22761867 8.05822803 1.10756853 8.74710539 3 11 C3.66 11.66 4.32 12.32 5 13 C-0.2975334 12.48316747 -3.66762987 10.97319519 -8 8 C-9.1875 6 -9.1875 6 -9 4 C-6.34633802 0.3256988 -4.47218731 -0.4969097 0 0 Z " fill="#573585" transform="translate(29,139)"/>
<path d="M0 0 C1.65 0 3.3 0 5 0 C5.268125 0.61875 5.53625 1.2375 5.8125 1.875 C6.95556848 4.2995233 6.95556848 4.2995233 10 6 C8.68 6 7.36 6 6 6 C6.20625 6.598125 6.4125 7.19625 6.625 7.8125 C7 10 7 10 5 13 C5 14.32 5 15.64 5 17 C4.34 17.33 3.68 17.66 3 18 C3 18.99 3 19.98 3 21 C2.34 21 1.68 21 1 21 C1 21.66 1 22.32 1 23 C0.34 23 -0.32 23 -1 23 C1.75813296 14.56011315 1.75813296 14.56011315 3.1875 11.25 C4.1534587 8.57503746 4.43386699 6.82013545 4 4 C2.10415891 1.68622853 2.10415891 1.68622853 0 0 Z " fill="#DB7842" transform="translate(170,78)"/>
<path d="M0 0 C0.33 0 0.66 0 1 0 C1.82074855 2.97710638 2.63172084 5.95633909 3.4375 8.9375 C3.66759766 9.76830078 3.89769531 10.59910156 4.13476562 11.45507812 C5.61837273 16.98097705 6.49949757 22.29887465 7 28 C5 25 5 25 5 22 C4.34 22 3.68 22 3 22 C1.89771304 17.59085217 1.92345464 13.51617599 2 9 C1.34 9 0.68 9 0 9 C0 6.03 0 3.06 0 0 Z " fill="#33359D" transform="translate(106,114)"/>
<path d="M0 0 C0.33 0.66 0.66 1.32 1 2 C0.67 2.66 0.34 3.32 0 4 C-0.66 4 -1.32 4 -2 4 C-2 3.34 -2 2.68 -2 2 C-2.66 2 -3.32 2 -4 2 C-4.33 5.63 -4.66 9.26 -5 13 C-5.66 12.67 -6.32 12.34 -7 12 C-7.59355614 9.35139573 -7.74209269 6.70802678 -8 4 C-7.34 4 -6.68 4 -6 4 C-6 2.68 -6 1.36 -6 0 C-2.25 -1.125 -2.25 -1.125 0 0 Z " fill="#0974CF" transform="translate(112,100)"/>
<path d="M0 0 C2.375 0.1875 2.375 0.1875 5 1 C6.3125 3.5625 6.3125 3.5625 7 6 C4.54300608 8.63249349 2.43431346 10.78137264 -1 12 C-1.99 11.67 -2.98 11.34 -4 11 C-3.67 9.35 -3.34 7.7 -3 6 C-2.34 6.33 -1.68 6.66 -1 7 C-1.33 7.66 -1.66 8.32 -2 9 C0.49552484 8.21869929 0.49552484 8.21869929 3 7 C3.33 6.01 3.66 5.02 4 4 C3.34 4 2.68 4 2 4 C1.34 2.68 0.68 1.36 0 0 Z " fill="#5A3B81" transform="translate(229,139)"/>
<path d="M0 0 C0 0.66 0 1.32 0 2 C-0.99 2 -1.98 2 -3 2 C-2.67 4.31 -2.34 6.62 -2 9 C-1.34 9 -0.68 9 0 9 C0.66 11.31 1.32 13.62 2 16 C1.34 16 0.68 16 0 16 C0 17.65 0 19.3 0 21 C-0.33 21 -0.66 21 -1 21 C-1.75057335 18.06648422 -2.47588856 15.1304735 -3.1875 12.1875 C-3.40341797 11.35412109 -3.61933594 10.52074219 -3.84179688 9.66210938 C-4.03193359 8.85966797 -4.22207031 8.05722656 -4.41796875 7.23046875 C-4.60125732 6.49207764 -4.7845459 5.75368652 -4.97338867 4.99291992 C-5 3 -5 3 -3.66137695 1.2355957 C-2 0 -2 0 0 0 Z " fill="#3F96D2" transform="translate(96,49)"/>
<path d="M0 0 C1.65 0 3.3 0 5 0 C4.14111602 6.69929505 2.12569907 13.01922515 -1 19 C-1.625 17.125 -1.625 17.125 -2 15 C-1.34 14.34 -0.68 13.68 0 13 C0.24360073 9.87185486 0.24360073 9.87185486 0.125 6.375 C0.10695312 5.18648438 0.08890625 3.99796875 0.0703125 2.7734375 C0.04710937 1.85820313 0.02390625 0.94296875 0 0 Z " fill="#624981" transform="translate(154,122)"/>
<path d="M0 0 C2 2 2 2 2.125 4.625 C2.08375 5.40875 2.0425 6.1925 2 7 C0 4 0 4 -1 2 C-1.66 2 -2.32 2 -3 2 C-3 2.99 -3 3.98 -3 5 C-7.95 5 -12.9 5 -18 5 C-6.13953488 -0.93023256 -6.13953488 -0.93023256 0 0 Z " fill="#409CD1" transform="translate(130,39)"/>
<path d="M0 0 C1.98 0.99 1.98 0.99 4 2 C3.84152588 2.57975586 3.68305176 3.15951172 3.51977539 3.75683594 C2.71911382 7.21220398 2.62776918 10.71910303 2.4375 14.25 C2.39431641 14.99507812 2.35113281 15.74015625 2.30664062 16.5078125 C2.20103275 18.338349 2.10005799 20.16915176 2 22 C1.67 22 1.34 22 1 22 C0.29223008 14.64424835 -0.14715692 7.3905476 0 0 Z " fill="#F2B56B" transform="translate(36,82)"/>
<path d="M0 0 C2.44168979 3.03056792 4.13027389 6.09018596 5.75 9.625 C6.19859375 10.58664063 6.6471875 11.54828125 7.109375 12.5390625 C7.40328125 13.35117188 7.6971875 14.16328125 8 15 C7.67 15.66 7.34 16.32 7 17 C3 10.25 3 10.25 3 8 C1.68 8.33 0.36 8.66 -1 9 C-2.0326802 6.21176345 -2.04509293 5.1322726 -1.0625 2.25 C-0.711875 1.5075 -0.36125 0.765 0 0 Z " fill="#64246A" transform="translate(56,144)"/>
<path d="M0 0 C2.32472205 2.85306797 3.7508258 5.54074837 5 9 C5.66 8.67 6.32 8.34 7 8 C7.66 12.95 8.32 17.9 9 23 C6.93171476 20.93171476 6.31932087 19.65232267 5.2734375 16.97265625 C4.9640625 16.18052734 4.6546875 15.38839844 4.3359375 14.57226562 C4.01882812 13.74404297 3.70171875 12.91582031 3.375 12.0625 C3.05015625 11.23814453 2.7253125 10.41378906 2.390625 9.56445312 C0 3.38197545 0 3.38197545 0 0 Z " fill="#5E1F61" transform="translate(98,136)"/>
<path d="M0 0 C0.66 0.33 1.32 0.66 2 1 C2.80502219 3.46207518 3.49598315 5.86825139 4.125 8.375 C4.30675781 9.06078125 4.48851562 9.7465625 4.67578125 10.453125 C5.43346214 13.38130529 6 15.96334729 6 19 C5.34 19 4.68 19 4 19 C3.80664062 18.14535156 3.61328125 17.29070312 3.4140625 16.41015625 C3.15367187 15.30542969 2.89328125 14.20070313 2.625 13.0625 C2.36976563 11.96035156 2.11453125 10.85820313 1.8515625 9.72265625 C1.57054687 8.82417969 1.28953125 7.92570312 1 7 C0.34 6.67 -0.32 6.34 -1 6 C-0.67 4.02 -0.34 2.04 0 0 Z " fill="#3E9DD7" transform="translate(132,47)"/>
<path d="M0 0 C0.721875 0.144375 1.44375 0.28875 2.1875 0.4375 C3.5796875 0.7159375 3.5796875 0.7159375 5 1 C5.886875 1.20625 6.77375 1.4125 7.6875 1.625 C10.01864219 2.23427015 10.01864219 2.23427015 12 1 C12.66 1.33 13.32 1.66 14 2 C14 2.99 14 3.98 14 5 C15.98 5.66 17.96 6.32 20 7 C16.92793215 8.36624097 15.65237552 7.89059724 12.36328125 6.85546875 C11.00829762 6.31109116 9.65810029 5.754675 8.3125 5.1875 C7.27899414 4.77661133 7.27899414 4.77661133 6.22460938 4.35742188 C1.13533453 2.27066906 1.13533453 2.27066906 0 0 Z " fill="#7D53B0" transform="translate(88,251)"/>
<path d="M0 0 C0.33 0 0.66 0 1 0 C1.33 2.31 1.66 4.62 2 7 C1.01 7.495 1.01 7.495 0 8 C-1.04808041 9.97522846 -2.0520411 11.97481509 -3 14 C0.465 13.505 0.465 13.505 4 13 C1.64031256 15.09749995 0.45383006 15.96905704 -2.75 16.1875 C-3.86375 16.0946875 -3.86375 16.0946875 -5 16 C-4.39363767 10.23955788 -2.24341721 5.27985631 0 0 Z " fill="#DF7F4F" transform="translate(142,169)"/>
<path d="M0 0 C2.94887797 0.50842724 5.37371875 1.59306362 8 3 C8 3.66 8 4.32 8 5 C6.35666496 6.03789581 4.68756133 7.03567924 3 8 C2.34 8.66 1.68 9.32 1 10 C0.63883954 8.5225254 0.28624952 7.04295325 -0.0625 5.5625 C-0.25972656 4.73878906 -0.45695312 3.91507813 -0.66015625 3.06640625 C-0.82837891 2.04353516 -0.82837891 2.04353516 -1 1 C-0.67 0.67 -0.34 0.34 0 0 Z " fill="#0371CF" transform="translate(127,171)"/>
<path d="M0 0 C3.69903077 2.46602052 4.349471 4.97378586 5.6875 9 C5.91244141 9.64195313 6.13738281 10.28390625 6.36914062 10.9453125 C8 15.68422302 8 15.68422302 8 18 C7.34 18 6.68 18 6 18 C3.01253155 12.83982722 1.97458672 7.80165739 1 2 C-0.65 2.33 -2.3 2.66 -4 3 C-3 1 -3 1 0 0 Z " fill="#DC7643" transform="translate(80,94)"/>
<path d="M0 0 C0.33 0 0.66 0 1 0 C1.14285714 7.42857143 1.14285714 7.42857143 0 11 C0.66 11.33 1.32 11.66 2 12 C-1.465 13.485 -1.465 13.485 -5 15 C-4.34 12.03 -3.68 9.06 -3 6 C-2.34 6 -1.68 6 -1 6 C-0.67 4.02 -0.34 2.04 0 0 Z " fill="#5A217A" transform="translate(172,160)"/>
<path d="M0 0 C1.32 0 2.64 0 4 0 C4.12375 0.680625 4.2475 1.36125 4.375 2.0625 C5.95901792 9.9638173 5.95901792 9.9638173 11 16 C8.70703125 15.90234375 8.70703125 15.90234375 6 15 C4.19921875 12.12890625 4.19921875 12.12890625 2.6875 8.5625 C1.91986328 6.80099609 1.91986328 6.80099609 1.13671875 5.00390625 C0 2 0 2 0 0 Z " fill="#F27E47" transform="translate(60,150)"/>
<path d="M0 0 C-1.89564426 0.79211929 -3.79152371 1.58367576 -5.6875 2.375 C-6.74324219 2.81585938 -7.79898438 3.25671875 -8.88671875 3.7109375 C-9.91410156 4.13632813 -10.94148438 4.56171875 -12 5 C-13.33998047 5.57621094 -13.33998047 5.57621094 -14.70703125 6.1640625 C-17 7 -17 7 -20 7 C-20 4.69 -20 2.38 -20 0 C-19.67 0 -19.34 0 -19 0 C-18.67 1.65 -18.34 3.3 -18 5 C-17.34 4.34 -16.68 3.68 -16 3 C-13.87924156 2.20083271 -11.72793793 1.48120268 -9.5625 0.8125 C-8.40878906 0.44769531 -7.25507812 0.08289063 -6.06640625 -0.29296875 C-3 -1 -3 -1 0 0 Z " fill="#DF4A1D" transform="translate(56,74)"/>
<path d="M0 0 C3.44137432 1.5294997 6.2222133 3.45369552 9 6 C9 6.99 9 7.98 9 9 C7.02 9.33 5.04 9.66 3 10 C3.33 8.02 3.66 6.04 4 4 C2.35 3.67 0.7 3.34 -1 3 C-0.67 2.01 -0.34 1.02 0 0 Z " fill="#E24E36" transform="translate(53,63)"/>
<path d="M0 0 C-1.6232687 0.6708712 -3.24867578 1.33657029 -4.875 2 C-5.77992188 2.37125 -6.68484375 2.7425 -7.6171875 3.125 C-10 4 -10 4 -12 4 C-12.33 4.99 -12.66 5.98 -13 7 C-13.33 6.34 -13.66 5.68 -14 5 C-15.98 5.33 -17.96 5.66 -20 6 C-18.59742285 3.19484571 -16.61889801 2.96825048 -13.77539062 1.99804688 C-12.74188477 1.65870117 -12.74188477 1.65870117 -11.6875 1.3125 C-10.67139648 0.95575195 -10.67139648 0.95575195 -9.63476562 0.59179688 C-3.45848063 -1.46696479 -3.45848063 -1.46696479 0 0 Z " fill="#AF5295" transform="translate(162,179)"/>
<path d="M0 0 C1.65 0.33 3.3 0.66 5 1 C4.125 5.75 4.125 5.75 3 8 C3.27942455 9.67654729 3.60828247 11.34608154 4 13 C2.0625 12.4375 2.0625 12.4375 0 11 C-0.94284862 7.08355188 -1.38087404 3.83576122 0 0 Z " fill="#2193E3" transform="translate(98,72)"/>
<path d="M0 0 C7.21740127 0.64154678 16.10440269 2.28846981 21 8 C13.60741743 6.34886481 6.79360575 4.37964731 0 1 C0 0.67 0 0.34 0 0 Z " fill="#EA7B5A" transform="translate(77,168)"/>
<path d="M0 0 C2.31 1.65 4.62 3.3 7 5 C6.01 5.33 5.02 5.66 4 6 C4 5.34 4 4.68 4 4 C-1.65020618 4.60108576 -6.66164461 6.07528683 -12 8 C-12 7.34 -12 6.68 -12 6 C-10.56570999 5.32645501 -9.12742943 4.66140299 -7.6875 4 C-6.48673828 3.443125 -6.48673828 3.443125 -5.26171875 2.875 C-3 2 -3 2 0 2 C0 1.34 0 0.68 0 0 Z " fill="#F6A556" transform="translate(62,70)"/>
<path d="M0 0 C2.56616632 3.84924948 2.55097676 6.4349304 3 11 C2.34 10.34 1.68 9.68 1 9 C-1.34973818 10.89755144 -1.34973818 10.89755144 -1.125 14.125 C-1.08375 15.07375 -1.0425 16.0225 -1 17 C-1.66 17 -2.32 17 -3 17 C-3.40214229 10.83381819 -1.96818336 5.82254243 0 0 Z " fill="#462F97" transform="translate(118,161)"/>
<path d="M0 0 C0.66 0.66 1.32 1.32 2 2 C2.33 1.34 2.66 0.68 3 0 C3.66 0 4.32 0 5 0 C4.71640113 1.4391134 4.42278601 2.87625518 4.125 4.3125 C3.88136719 5.51326172 3.88136719 5.51326172 3.6328125 6.73828125 C3 9 3 9 1 12 C-0.26237731 9.47524538 -0.09856404 7.68799534 -0.0625 4.875 C-0.05347656 3.96492188 -0.04445312 3.05484375 -0.03515625 2.1171875 C-0.02355469 1.41851562 -0.01195312 0.71984375 0 0 Z " fill="#E37A40" transform="translate(187,94)"/>
<path d="M0 0 C3.3 0.99 6.6 1.98 10 3 C10 3.66 10 4.32 10 5 C8.68 5 7.36 5 6 5 C6 5.66 6 6.32 6 7 C4.68 6.67 3.36 6.34 2 6 C2.66 6 3.32 6 4 6 C4 5.01 4 4.02 4 3 C2.68 3 1.36 3 0 3 C0 2.01 0 1.02 0 0 Z " fill="#9952A3" transform="translate(70,166)"/>
<path d="M0 0 C1.32 0 2.64 0 4 0 C4 0.66 4 1.32 4 2 C4.66 2.33 5.32 2.66 6 3 C0.87080814 5.10428384 -3.5610835 5.21755666 -9 5 C-9 4.67 -9 4.34 -9 4 C-6.69 4 -4.38 4 -2 4 C-1.34 2.68 -0.68 1.36 0 0 Z " fill="#9669C5" transform="translate(134,262)"/>
<path d="M0 0 C2.31 0.33 4.62 0.66 7 1 C6.01 2.32 5.02 3.64 4 5 C4.66 5.66 5.32 6.32 6 7 C5.01 7 4.02 7 3 7 C2.67 7.66 2.34 8.32 2 9 C0.14223235 5.86501708 -0.20140476 3.62528568 0 0 Z " fill="#2595EE" transform="translate(111,128)"/>
<path d="M0 0 C1.56393356 3.97376829 0.36145292 6.81377903 -0.9375 10.75 C-1.31777344 11.92046875 -1.69804687 13.0909375 -2.08984375 14.296875 C-2.39019531 15.18890625 -2.69054687 16.0809375 -3 17 C-3.66 16.67 -4.32 16.34 -5 16 C-3.90301833 10.30860098 -2.45946923 5.25432063 0 0 Z " fill="#E2834B" transform="translate(168,101)"/>
<path d="M0 0 C5.41258741 0.6013986 5.41258741 0.6013986 7.75 2.1875 C9.43706568 4.63374523 10.17974888 7.16066921 11 10 C10.01 10 9.02 10 8 10 C6.61558 8.03501678 5.28796166 6.02951535 4 4 C2.70317626 2.63113049 1.38176866 1.2830709 0 0 Z " fill="#E2844A" transform="translate(212,92)"/>
<path d="M0 0 C1.98 0.495 1.98 0.495 4 1 C3.01 3.97 2.02 6.94 1 10 C-0.87376865 6.2524627 -1.3214079 4.96403081 -1 1 C-0.67 0.67 -0.34 0.34 0 0 Z " fill="#1992E1" transform="translate(139,162)"/>
<path d="M0 0 C4.16390476 4.54244156 5 10.02237112 5 16 C4.34 16 3.68 16 3 16 C2.49193553 14.27318563 1.99389533 12.54342021 1.5 10.8125 C1.08234375 9.36810547 1.08234375 9.36810547 0.65625 7.89453125 C0.03322392 5.14654124 -0.12302812 2.80401584 0 0 Z " fill="#3B359F" transform="translate(113,144)"/>
<path d="M0 0 C0.66 0 1.32 0 2 0 C2 0.66 2 1.32 2 2 C2.66 2.33 3.32 2.66 4 3 C4 4.32 4 5.64 4 7 C5.32 7.33 6.64 7.66 8 8 C5.36 8.33 2.72 8.66 0 9 C0 6.03 0 3.06 0 0 Z " fill="#0A7DDC" transform="translate(108,102)"/>
<path d="M0 0 C5.28 0 10.56 0 16 0 C16.33 1.32 16.66 2.64 17 4 C16.05125 3.67 15.1025 3.34 14.125 3 C9.44552744 1.6355542 4.83176241 1.82500659 0 2 C0 1.34 0 0.68 0 0 Z " fill="#DC824A" transform="translate(195,88)"/>
<path d="M0 0 C0.33 0 0.66 0 1 0 C1 1.65 1 3.3 1 5 C-2.3 5 -5.6 5 -9 5 C-9.33 3.68 -9.66 2.36 -10 1 C-8.3603125 1.2475 -8.3603125 1.2475 -6.6875 1.5 C-3.12474127 2.06718184 -3.12474127 2.06718184 0 2 C0 1.34 0 0.68 0 0 Z " fill="#6566D3" transform="translate(135,184)"/>
<path d="M0 0 C3.39417765 3.12621626 5.6062718 5.56541027 7 10 C5.35 10 3.7 10 2 10 C0.68373308 6.38026598 0 3.90432869 0 0 Z " fill="#E7854D" transform="translate(218,70)"/>
<path d="M0 0 C1.62723299 0.45034123 3.25173664 0.91055354 4.875 1.375 C5.77992188 1.63023438 6.68484375 1.88546875 7.6171875 2.1484375 C10 3 10 3 12 5 C10.35 5.66 8.7 6.32 7 7 C7 6.01 7 5.02 7 4 C4.36 3.34 1.72 2.68 -1 2 C-0.67 1.34 -0.34 0.68 0 0 Z " fill="#E5884E" transform="translate(195,57)"/>
<path d="M0 0 C2.64 0 5.28 0 8 0 C8 0.66 8 1.32 8 2 C6.02 2 4.04 2 2 2 C2 2.66 2 3.32 2 4 C0.35 4.33 -1.3 4.66 -3 5 C-2.67 4.01 -2.34 3.02 -2 2 C-1.34 2 -0.68 2 0 2 C0 1.34 0 0.68 0 0 Z " fill="#F17220" transform="translate(168,52)"/>
<path d="M0 0 C0.33 0.66 0.66 1.32 1 2 C1.66 2 2.32 2 3 2 C3.33 6.95 3.66 11.9 4 17 C1.25968939 11.51937878 -0.3867994 6.18879033 0 0 Z " fill="#2677D7" transform="translate(117,151)"/>
<path d="M0 0 C2.64 0.33 5.28 0.66 8 1 C5.66666667 3.33333333 3.33333333 5.66666667 1 8 C0.67 5.36 0.34 2.72 0 0 Z " fill="#2196F1" transform="translate(115,144)"/>
<path d="M0 0 C3.96 0.33 7.92 0.66 12 1 C12.33 2.32 12.66 3.64 13 5 C11.20620902 4.55005243 9.41501072 4.08975857 7.625 3.625 C6.62726563 3.36976562 5.62953125 3.11453125 4.6015625 2.8515625 C2 2 2 2 0 0 Z " fill="#E3905A" transform="translate(153,71)"/>
<path d="M0 0 C0 0.66 0 1.32 0 2 C-0.639375 2.28875 -1.27875 2.5775 -1.9375 2.875 C-4.15206079 3.82823451 -4.15206079 3.82823451 -5 6 C-6.32 6 -7.64 6 -9 6 C-9 4.68 -9 3.36 -9 2 C-2.25 0 -2.25 0 0 0 Z " fill="#5B348B" transform="translate(47,132)"/>
<path d="M0 0 C0.99 0 1.98 0 3 0 C3 2.64 3 5.28 3 8 C3.66 8 4.32 8 5 8 C4.67 9.32 4.34 10.64 4 12 C3.01 11.67 2.02 11.34 1 11 C0.875 3.25 0.875 3.25 2 1 C1.34 0.67 0.68 0.34 0 0 Z " fill="#4E288E" transform="translate(103,115)"/>
<path d="M0 0 C2.97 0 5.94 0 9 0 C10.2077558 3.62326739 9.54311128 4.64146369 8 8 C7.67 8 7.34 8 7 8 C7 6.35 7 4.7 7 3 C6.34 3 5.68 3 5 3 C5 2.34 5 1.68 5 1 C3.35 1 1.7 1 0 1 C0 0.67 0 0.34 0 0 Z " fill="#53236E" transform="translate(152,115)"/>
<path d="M0 0 C2.31 0.33 4.62 0.66 7 1 C7.33 1.99 7.66 2.98 8 4 C5.69 3.67 3.38 3.34 1 3 C0.67 3.66 0.34 4.32 0 5 C-0.33 4.01 -0.66 3.02 -1 2 C-0.67 1.34 -0.34 0.68 0 0 Z " fill="#542A85" transform="translate(220,136)"/>
<path d="M0 0 C2 3 2 3 2 7 C2.66 7 3.32 7 4 7 C3.67 8.98 3.34 10.96 3 13 C-0.09902323 9.90097677 0.0101421 7.60852615 -0.0625 3.25 C-0.041875 2.1775 -0.02125 1.105 0 0 Z " fill="#2A7ABF" transform="translate(99,81)"/>
<path d="M0 0 C0.66 0 1.32 0 2 0 C2 0.66 2 1.32 2 2 C2.66 2 3.32 2 4 2 C4 1.34 4 0.68 4 0 C4.66 0 5.32 0 6 0 C6 1.98 6 3.96 6 6 C4.35 6 2.7 6 1 6 C0.67 4.02 0.34 2.04 0 0 Z " fill="#5D2A96" transform="translate(115,178)"/>
<path d="M0 0 C4.26086957 6.39130435 4.26086957 6.39130435 3.625 10.3125 C3.41875 10.869375 3.2125 11.42625 3 12 C2.34 11.34 1.68 10.68 1 10 C1 8.68 1 7.36 1 6 C0.34 5.67 -0.32 5.34 -1 5 C-0.67 3.35 -0.34 1.7 0 0 Z " fill="#E5734F" transform="translate(104,154)"/>
<path d="M0 0 C1.35439668 2.70879335 1.06501451 5.00933268 1 8 C0.34 8 -0.32 8 -1 8 C-2.6446674 10.46326712 -2.6446674 10.46326712 -4 13 C-4 10.01923835 -3.51310356 8.16768223 -2.5625 5.375 C-2.29566406 4.57835937 -2.02882812 3.78171875 -1.75390625 2.9609375 C-1 1 -1 1 0 0 Z " fill="#D7814B" transform="translate(155,136)"/>
<path d="M0 0 C0 0.66 0 1.32 0 2 C-0.66 2 -1.32 2 -2 2 C-2.33 2.99 -2.66 3.98 -3 5 C-5.5625 6.1875 -5.5625 6.1875 -8 7 C-8.66 6.34 -9.32 5.68 -10 5 C-8.71186658 4.16121545 -7.41936744 3.32913217 -6.125 2.5 C-5.40570313 2.0359375 -4.68640625 1.571875 -3.9453125 1.09375 C-2 0 -2 0 0 0 Z " fill="#E48750" transform="translate(168,52)"/>
<path d="M0 0 C2 2 2 2 2 5 C2.99 5 3.98 5 5 5 C5.66 3.68 6.32 2.36 7 1 C7 4 7 4 6 6 C4.68 6 3.36 6 2 6 C1.67 6.99 1.34 7.98 1 9 C0.67 6.03 0.34 3.06 0 0 Z " fill="#1B7EDF" transform="translate(124,176)"/>
<path d="M0 0 C0.66 0 1.32 0 2 0 C3.23076923 6.4 3.23076923 6.4 2.0625 9.4375 C1.711875 9.953125 1.36125 10.46875 1 11 C1 9.35 1 7.7 1 6 C0.34 6 -0.32 6 -1 6 C-0.67 4.02 -0.34 2.04 0 0 Z " fill="#0A82DE" transform="translate(102,82)"/>
<path d="M0 0 C-2.6860286 1.79068573 -4.6626589 2.66055791 -7.6875 3.625 C-8.49574219 3.88539063 -9.30398437 4.14578125 -10.13671875 4.4140625 C-10.75160156 4.60742188 -11.36648437 4.80078125 -12 5 C-12 4.01 -12 3.02 -12 2 C-7.8803623 0.70756464 -4.33168317 -0.26252625 0 0 Z " fill="#9165B5" transform="translate(175,250)"/>
<path d="M0 0 C1.98 0.66 3.96 1.32 6 2 C5 4 5 4 3.15234375 4.6328125 C2.05599609 4.87644531 2.05599609 4.87644531 0.9375 5.125 C0.20402344 5.29257813 -0.52945313 5.46015625 -1.28515625 5.6328125 C-1.85105469 5.75398437 -2.41695312 5.87515625 -3 6 C-2.01 4.02 -1.02 2.04 0 0 Z " fill="#F8711C" transform="translate(141,178)"/>
<path d="M0 0 C1.65 0 3.3 0 5 0 C4.34 3.63 3.68 7.26 3 11 C2.67 11 2.34 11 2 11 C1.34 7.37 0.68 3.74 0 0 Z " fill="#217ADD" transform="translate(108,119)"/>
<path d="M0 0 C2.1519437 3.22791555 2.20086443 4.28400809 2 8 C0.02 8.99 0.02 8.99 -2 10 C-2.33 8.68 -2.66 7.36 -3 6 C-2.34 6 -1.68 6 -1 6 C-0.67 4.02 -0.34 2.04 0 0 Z " fill="#319DE1" transform="translate(149,108)"/>
<path d="M0 0 C0.66 0 1.32 0 2 0 C1.71640113 1.4391134 1.42278601 2.87625518 1.125 4.3125 C0.88136719 5.51326172 0.88136719 5.51326172 0.6328125 6.73828125 C0 9 0 9 -2 12 C-1.85904936 10.3745692 -1.71207913 8.74965949 -1.5625 7.125 C-1.48128906 6.22007813 -1.40007812 5.31515625 -1.31640625 4.3828125 C-1 2 -1 2 0 0 Z " fill="#DE8957" transform="translate(186,107)"/>
<path d="M0 0 C0.66 0 1.32 0 2 0 C2.66 1.98 3.32 3.96 4 6 C3.01 6.66 2.02 7.32 1 8 C-0.42944945 5.64561267 -1.08661261 4.51967567 -0.625 1.75 C-0.41875 1.1725 -0.2125 0.595 0 0 Z " fill="#0E7FDD" transform="translate(98,66)"/>
<path d="M0 0 C1.65 0 3.3 0 5 0 C5.268125 0.61875 5.53625 1.2375 5.8125 1.875 C6.95556848 4.2995233 6.95556848 4.2995233 10 6 C8.35 6.33 6.7 6.66 5 7 C4.731875 6.401875 4.46375 5.80375 4.1875 5.1875 C3.01506533 3.02775192 1.80630718 1.64209744 0 0 Z " fill="#E58B4D" transform="translate(170,78)"/>
<path d="M0 0 C0.33 0 0.66 0 1 0 C1.12375 1.11375 1.2475 2.2275 1.375 3.375 C1.6465813 7.03103677 1.6465813 7.03103677 4 9 C2.125 8.8125 2.125 8.8125 0 8 C-1.375 5.625 -1.375 5.625 -2 3 C-1.34 2.01 -0.68 1.02 0 0 Z " fill="#7950AD" transform="translate(42,225)"/>
<path d="M0 0 C0.26218749 3.14624993 0.24754367 4.61837017 -1.5 7.3125 C-2.2425 8.1478125 -2.2425 8.1478125 -3 9 C-3.33 6.36 -3.66 3.72 -4 1 C-1 0 -1 0 0 0 Z " fill="#1994E2" transform="translate(152,137)"/>
<path d="M0 0 C0 0.66 0 1.32 0 2 C-0.66 2 -1.32 2 -2 2 C-1.67 2.99 -1.34 3.98 -1 5 C-4.51716303 5 -5.37121748 4.17554415 -8 2 C-2.25 0 -2.25 0 0 0 Z " fill="#664194" transform="translate(34,136)"/>
<path d="M0 0 C1.65 0 3.3 0 5 0 C5 1.32 5 2.64 5 4 C3.35 4 1.7 4 0 4 C0 2.68 0 1.36 0 0 Z " fill="#652A98" transform="translate(154,118)"/>
<path d="M0 0 C2.31 0 4.62 0 7 0 C7 0.99 7 1.98 7 3 C5.1875 3.6875 5.1875 3.6875 3 4 C1.25 2.625 1.25 2.625 0 1 C0 0.67 0 0.34 0 0 Z " fill="#E28850" transform="translate(222,103)"/>
<path d="M0 0 C1.65 0.33 3.3 0.66 5 1 C5 1.66 5 2.32 5 3 C2.69 3.33 0.38 3.66 -2 4 C-1.34 2.68 -0.68 1.36 0 0 Z " fill="#8A5ABB" transform="translate(140,260)"/>
<path d="M0 0 C0.33 0.66 0.66 1.32 1 2 C1.61875 1.79375 2.2375 1.5875 2.875 1.375 C3.57625 1.25125 4.2775 1.1275 5 1 C5.66 1.66 6.32 2.32 7 3 C4.69 3.66 2.38 4.32 0 5 C-0.66 4.34 -1.32 3.68 -2 3 C-1.34 3 -0.68 3 0 3 C0 2.01 0 1.02 0 0 Z " fill="#8C5CCA" transform="translate(46,231)"/>
<path d="M0 0 C0 0.66 0 1.32 0 2 C-0.66 2 -1.32 2 -2 2 C-2 2.66 -2 3.32 -2 4 C-3.98 3.34 -5.96 2.68 -8 2 C-4.91190305 0.23537317 -3.76687864 0 0 0 Z " fill="#F8793B" transform="translate(79,164)"/>
<path d="M0 0 C2.475 0.495 2.475 0.495 5 1 C4.34 2.32 3.68 3.64 3 5 C2.01 5 1.02 5 0 5 C0 3.35 0 1.7 0 0 Z " fill="#0175D4" transform="translate(124,135)"/>
<path d="M0 0 C0.66 1.98 1.32 3.96 2 6 C1.01 6.495 1.01 6.495 0 7 C-0.33 5.68 -0.66 4.36 -1 3 C-2.32 2.67 -3.64 2.34 -5 2 C-2 0 -2 0 0 0 Z " fill="#F66727" transform="translate(81,96)"/>
<path d="M0 0 C2.97 0.33 5.94 0.66 9 1 C8.67 1.66 8.34 2.32 8 3 C6.02 3 4.04 3 2 3 C2 2.34 2 1.68 2 1 C1.34 0.67 0.68 0.34 0 0 Z " fill="#E27E45" transform="translate(182,54)"/>
<path d="M0 0 C-0.99 0.495 -0.99 0.495 -2 1 C-2.33 1.99 -2.66 2.98 -3 4 C-3.33 3.34 -3.66 2.68 -4 2 C-5.98 2.33 -7.96 2.66 -10 3 C-8.0130571 -0.97388579 -3.91761109 -0.08705802 0 0 Z " fill="#A2549F" transform="translate(152,182)"/>
<path d="M0 0 C0.66 0 1.32 0 2 0 C3.02611949 1.65071396 4.02308143 3.31970006 5 5 C6.58245275 6.75149165 6.58245275 6.75149165 8 8 C5.6875 7.9375 5.6875 7.9375 3 7 C1.1875 3.4375 1.1875 3.4375 0 0 Z " fill="#DF7961" transform="translate(63,158)"/>
<path d="M0 0 C1.10844919 3.32534757 0.84454356 5.62182575 0 9 C-2 8 -2 8 -2.8125 5.625 C-3 3 -3 3 -1.5625 1.1875 C-1.046875 0.795625 -0.53125 0.40375 0 0 Z " fill="#1C7BC7" transform="translate(107,104)"/>
<path d="M0 0 C-1.6875 1.5625 -1.6875 1.5625 -4 3 C-6.75 2.6875 -6.75 2.6875 -9 2 C-4.13793103 -1.24137931 -4.13793103 -1.24137931 0 0 Z " fill="#FD9B41" transform="translate(50,78)"/>
<path d="M0 0 C0.66 0.33 1.32 0.66 2 1 C1.67 1.66 1.34 2.32 1 3 C2.32 3.33 3.64 3.66 5 4 C4.01 4.66 3.02 5.32 2 6 C1.01 5.67 0.02 5.34 -1 5 C-0.67 3.35 -0.34 1.7 0 0 Z " fill="#552C86" transform="translate(226,145)"/>
</svg>
